<svg xmlns="http://www.w3.org/2000/svg" viewBox="0 0 1003.239 550.547"><defs><linearGradient id="a" x1=".5" x2=".5" y2="-.343" gradientUnits="objectBoundingBox"><stop offset="0" stop-color="#f3f3f5"/><stop offset="1" stop-color="#fff"/></linearGradient></defs><path d="M907.305 227.752c-32.2-.817-149.258-2.457-249.133 60.161-56.619 35.5-46.758 53.43-128.344 131.769-115.967 111.355-173.022 110.781-200 182.505C309.61 655.941 312.8 732.984 360.1 762.255c55.414 34.29 118.635-29.613 257.229-47.344 223.074-28.535 311.24 104.786 489.4 49.667 99.219-30.694 151.338-96.622 160.6-108.713 9.521-12.435 69.771-93.566 50-187.873-31.686-151.131-247.929-236.125-410.024-240.24z" transform="translate(-318.047 -227.534)" fill="#F3F3F5"/></svg>