<svg xmlns="http://www.w3.org/2000/svg" viewBox="0 0 572.82 508.27"><defs><style>.cls-1{fill:#f3f3f5;}</style></defs><g id="Layer_2" data-name="Layer 2"><g id="Layer_1-2" data-name="Layer 1"><path id="Subtraction_1" data-name="Subtraction 1" class="cls-1" d="M8.6,508.27h0A79.8,79.8,0,0,1,0,507.8V0A110.9,110.9,0,0,1,10.11,6.8h0c8.54,6.41,16.4,12.4,24,18.2h0C55.17,41.07,73.35,55,91.21,66.21a269.28,269.28,0,0,0,27.24,15.17,233.55,233.55,0,0,0,29.87,11.87,293.41,293.41,0,0,0,35.16,8.81c13,2.48,27.11,4.44,43.07,6s33.53,2.68,53.63,3.42c19.75.73,41.61,1.09,66.83,1.09,7.85,0,16.16,0,24.68-.11l0,0h1.64a198.66,198.66,0,0,1,109.6,32.92,202.45,202.45,0,0,1,56.78,56.69,198.5,198.5,0,0,1,29.74,146.33,194,194,0,0,1-154.1,154.79,198.36,198.36,0,0,1-88.08-3h0C284.78,489,250.3,481,221.84,476c-27.16-4.85-49.56-7.2-68.48-7.2a188.23,188.23,0,0,0-26.73,1.78A158.33,158.33,0,0,0,104,475.46c-14.28,4.2-27.32,10.05-42.43,16.82-7.06,3.17-14.37,6.45-22.48,9.86a77.46,77.46,0,0,1-15,4.59A79.67,79.67,0,0,1,8.6,508.27Z"/></g></g></svg>