<svg xmlns="http://www.w3.org/2000/svg" viewBox="0 0 572.82 508.27"><g data-name="Layer 2"><g data-name="Layer 1"><path data-name="Subtraction 1" d="M8.6 508.27a79.8 79.8 0 01-8.6-.47V0a110.9 110.9 0 0110.11 6.8c8.54 6.41 16.4 12.4 24 18.2 21.06 16.07 39.24 30 57.1 41.21a269.28 269.28 0 0027.24 15.17 233.55 233.55 0 0029.87 11.87 293.41 293.41 0 0035.16 8.81c13 2.48 27.11 4.44 43.07 6s33.53 2.68 53.63 3.42c19.75.73 41.61 1.09 66.83 1.09 7.85 0 16.16 0 24.68-.11h1.64a198.66 198.66 0 01109.6 32.92 202.45 202.45 0 0156.78 56.69 198.5 198.5 0 0129.74 146.33 194 194 0 01-154.1 154.79 198.36 198.36 0 01-88.08-3C284.78 489 250.3 481 221.84 476c-27.16-4.85-49.56-7.2-68.48-7.2a188.23 188.23 0 00-26.73 1.78 158.33 158.33 0 00-22.63 4.88c-14.28 4.2-27.32 10.05-42.43 16.82-7.06 3.17-14.37 6.45-22.48 9.86a77.46 77.46 0 01-15 4.59 79.67 79.67 0 01-15.49 1.54z" fill="#f3f3f5"/></g></g></svg>