<svg version="1.1" id="Layer_1" xmlns="http://www.w3.org/2000/svg" x="0" y="0" viewBox="0 0 526.3 515.7" xml:space="preserve"><style>.st0{fill:#262728}.st2{fill:#df880b}.st4{fill:#e7a579}.st5{fill:#e5e6e7}.st6{fill:#1d5dc4}.st7{fill:#a6a8ab}.st8{fill:#e76464}.st9{fill:#f6bd96}.st10{fill:#d0d2d3}.st11{fill:#f0f1f1}.st15{fill:#808184}.st17{fill:#f17e7e}.st18{fill:#3a3942}.st20{fill:#0a8e6d}.st21{fill:#0b7c5c}</style><g id="Layer_2_1_"><g id="Layer_1-2"><g id="Group_61"><g id="Group_20"><path id="Path_1" class="st0" d="M50 300.3L6.8 454.8c-.7 2.3.7 4.8 3 5.5s4.8-.7 5.5-3l48.1-158.1c-4.5.4-8.9.8-13.4 1.1z"/><g id="Group_18"><path id="Path_2" class="st0" d="M199.9 222.8l24.5 199.4c.2 2-1.2 3.9-3.3 4.1-2 .2-3.8-1.1-4.1-3.1l-31.9-198.3c-.7-4 2.1-7.9 6.1-8.5 4-.7 7.9 2.1 8.5 6.2.2 0 .2.1.2.2z"/></g><g id="Group_19"><path id="Path_3" class="st0" d="M188 235.2L73.8 202.3c-3.9-1.3-5.9-5.6-4.6-9.4 1.2-3.6 5-5.7 8.7-4.8l.3.1L191 225.8c2.6.9 4 3.7 3.1 6.3-.9 2.4-3.6 3.8-6.1 3.1z"/></g></g><g id="Group_21"><path id="Path_4" d="M380 54.3c-.4-.3-.7-.5-1.1-.7-2.7-1.3-6.1-1.4-9.1-1.8-3.4-.3-6.8-.4-10.3-.2-6.3.1-12.5.7-18.8.9-14.4.4-28.9.2-43.4.1-20.4-.2-43.2-4.7-62.6 4.1-17.3 7.8-23.8 27.1-28.1 44.2-5.9 23.4-10.8 47.1-15.7 70.8-3.1 15.3-7.6 30.3-13.5 44.8-3.1 7.6-6.6 15.1-9.4 22.8-1.7 4.6-2.9 9.4-4.6 14-11.7.7-23.5 3.9-35.2 4.6-13.9.9-27.7 2.6-41.4 5-21.3 3.8-44.2 7.1-63.9 16.5-7.9 3.8-16.8 9.1-20.2 17.7-3.2 8.2-3.3 20.4-2 29 1 6.9 6 6.7 12.7 8 12.3 2.5 25 2 37.3 4.3 18.2 3.5 36.3 7.2 54.4 10.9 9.1 1.9 18.1 3.8 27.2 5.7 8.7 1.8 17.1 4.3 25.9 5.3 9.4 1 18.8-1.4 27.9-3.2 17.4-3.5 34.9-6.8 52.5-9.3 18.9-2.7 38-2.5 56.8-5.3 9.2-1.4 19.7-.8 27.9-5.5 10.8-6.2 10.6-21.3 11.4-32.4 1.1-14.3 4-28.3 7-42.3 6.1-27.9 10.9-55.9 16.5-83.9 5.5-27.6 10.9-55.4 17.7-82.8 1.5-6.2 4.5-11.9 6.4-18 1.4-4.3 2.4-9 1.9-13.6-.2-2.2-1.2-3.8-1.8-5.8-.2-1.5-1.1-2.9-2.4-3.9z" fill="#ffa000"/><path id="Path_5" class="st2" d="M374.3 67.1c-.5-4-2.2-7.5-4.7-6.5-9.2.7-15.6 10.8-20 17.9-7.8 12.6-11.4 26.8-14.9 41.1-4.4 17.9-10.1 35.4-14.7 53.2s-8.4 35.6-12.2 53.4c-5.5 25.4-15.1 48.5 2.9 71.5 2.2 2.8 5.7 5.7 9 4.4 5-2 6.5-15.4 7.4-19.9 3.6-17.5 7.1-35 10.8-52.5 8.6-41.3 19-82.1 29.9-122.9 3.5-12.6 8.1-26.2 6.5-39.7z"/><path id="Path_6" d="M228.5 280.1c-25.7-15-57-21.6-86.6-19.8-17.6 1.1-35 5.1-52.2 8.5-9.4 1.9-18.8 3.6-28.2 5.5-3.9.8-7.8 1.6-11.6 2.7-4.5 1.3-8.6 3.6-13.5 3.7-.7 0-1.3.5-1.4 1.2-.1-.8-.8-1.3-1.6-1.2-.3.1-.6.2-.9.5l-1.2 1.4c-.6.6-.6 1.6 0 2.2 3.4 3.8 7.2 4.8 12.2 4.5 8-.4 16-1.2 24-2 17.8-1.9 35.4-3.2 53.3-3.4 35.7-.4 71.3 1.9 107-.8.9 0 1.5-.7 1.5-1.6-.1-.6-.4-1.1-.8-1.4z" fill="#ffbc00"/><path id="Path_7" class="st2" d="M239.2 342.3l53.1-7.1c6.8-.9 13.8-1.9 19.9-5.2 8.5-4.6 18.8-22.1 8.8-30.4-6.8-5.5-20.5-2-28.2-.6-12.8 2.3-25.6 4.3-38.5 6.3-16 2.5-32 5.6-48 8-8.8 1.3-17.8 2.2-26.6 3.3-6.3.8-18.3.4-22.8 5.8-2.7 3.2-1.7 15.3-1.3 19.6 1.4 17.7 46.9 5.2 57 3.8l26.6-3.5z"/></g><g id="Group_41"><g id="Group_28"><g id="Group_22"><path id="Path_8" class="st4" d="M135.8 437.7c3.2-.2 6.4-1 9.4-2.2l-.9-20.3-26-2.6 1 24 1.8.2c4.9.8 9.8 1.1 14.7.9z"/><path id="Path_9" class="st5" d="M135.8 437.7c-4.9.2-9.8-.1-14.7-.8-.6-.1-1.2-.1-1.8-.2l1 23.8 25.8-5.5-.9-19.5c-3 1.3-6.2 2-9.4 2.2z"/></g><g id="Group_27"><path id="Path_10" class="st6" d="M149.6 458.5c-1.4-3.1-2.6-6.2-3.6-9.5-8.9 3.3-17.7 1.2-26.5-1.9-1.3 4.6-5.5 9.9-6.6 11.5-.2.4-.5.7-.8 1-.5.7-1.1 1.3-1.8 1.9-.6.7-1.3 1.3-2.1 1.8l-2.1 1.5c-.8.5-1.5 1-2.3 1.5s-1.5.9-2.2 1.3-1.3.8-1.9 1.1c-.1.1-.2.1-.3.2-.7.4-1.5.8-2.3 1.2-4.9 2.6-10 4.7-15.2 6.5-1.7.4-3.3 1.1-4.7 2.1-2.8 2.3-3.6 6.3-2 9.6 2 3.5 6.9 2.8 9.9 2.2 20.8-3.8 44.6-8.4 65.3-12.6 6.5-1.7.5-16.9-.8-19.4z"/><path id="Path_11" class="st7" d="M75.5 488.4c2.1 3 6.7 2.3 9.5 1.8 20.8-3.9 44.6-8.4 65.3-12.6 1.8-.4 3.1-2.1 2.9-3.9l-77.7 14.7z"/><g id="Group_23"><path id="Path_12" class="st7" d="M103 474.9c-.2.2-.4.3-.6.3-.4.1-.8-.1-1.1-.4l-4.2-5c.8-.4 1.5-.8 2.3-1.2l3.7 4.3c.5.7.4 1.5-.1 2z"/></g><g id="Group_24"><path id="Path_13" class="st7" d="M107.4 472.3c-.2.2-.4.3-.6.3-.4.1-.9-.1-1.2-.5l-4.1-4.8c.7-.4 1.5-.8 2.2-1.3l3.6 4.2c.6.8.6 1.6.1 2.1z"/></g><g id="Group_25"><path id="Path_14" class="st7" d="M111.6 469.2c-.2.2-.4.3-.6.3-.5.1-.9-.1-1.2-.5l-3.7-4.3c.7-.4 1.4-.9 2.1-1.5l3.5 4c.4.6.4 1.4-.1 2z"/></g><g id="Group_26"><path id="Path_15" class="st7" d="M115.8 466c-.2.2-.4.3-.6.3-.4.1-.8-.1-1.1-.4l-3.8-4.4c.6-.6 1.2-1.2 1.8-1.9l3.8 4.5c.4.6.4 1.4-.1 1.9z"/></g></g></g><g id="Group_33"><path id="Path_16" class="st6" d="M115.3 286.2c-17.1 6.9-36.8 14.7-54 21.4-2.5 1-6.6 2.4-8.7 0-1.8-2.4-1.6-5.8.4-8 1.1-1 2.4-1.9 3.8-2.5 4.2-2.3 8.2-4.9 12.1-7.8.6-.4 1.2-.9 1.8-1.3.1-.1.2-.1.2-.2l1.5-1.2c.5-.4 1.2-.9 1.8-1.4s1.2-1 1.8-1.6c.6-.5 1.1-1 1.6-1.5.6-.5 1.1-1.1 1.6-1.8.5-.6.9-1.1 1.3-1.8.2-.3.4-.6.6-1 .8-1.4 1.6-3 2.2-4.5.5-1.7.1-3.6 1.3-5.1s3.3-1.4 5-1.5h.3c2-.2 2.7-.9 4.4-1.9 2.8-1.7 8.2-2.8 11.2-3.9.7-.2 4.1 7.1 6.8 10.6 1.4 1.7 8.5 12.8 3 15z"/><path id="Path_17" class="st7" d="M53 307.8c2.2 2 6 .7 8.4-.2 17.2-6.7 36.9-14.4 54-21.4 1.4-.6 2.3-2.1 2-3.6L53 307.8z"/><g id="Group_29"><path id="Path_18" class="st7" d="M74.7 292.3c-.1.2-.3.3-.5.4-.3.1-.7.1-1-.1l-4.2-3.2c.6-.4 1.2-.9 1.8-1.3l3.8 2.8c.5.3.6.9.3 1.4-.1-.1-.1-.1-.2 0z"/></g><g id="Group_30"><path id="Path_19" class="st7" d="M78.1 289.5c-.1.2-.3.3-.5.4-.3.1-.7 0-1-.2l-4.1-3.1c.6-.5 1.2-.9 1.8-1.4l3.6 2.8c.4.4.5 1 .2 1.5z"/></g><g id="Group_31"><path id="Path_20" class="st7" d="M81.3 286.3c-.1.2-.3.3-.5.4-.4.1-.8.1-1.1-.1l-3.7-2.8c.6-.5 1.1-1 1.6-1.5l3.5 2.6c.5.2.5.9.2 1.4z"/></g><g id="Group_32"><path id="Path_21" class="st7" d="M84.4 283c-.1.2-.3.3-.5.4-.3.1-.7.1-1-.1l-3.8-2.9c.5-.6.9-1.1 1.3-1.8l3.8 2.9c.5.3.6 1 .2 1.5.1 0 .1 0 0 0z"/></g></g><path id="Path_22" class="st8" d="M209.3 228.7c-20.2-18.9-45.5-36.8-68.1-52.8-21.1-14.9-44-39.4-67.2-25.8-28.6 16.9-5.9 78 4.5 109.1 9.1 1.7 19.5-3.4 28.6-1.7 6.7-48.8 1.7-37.8 2.5-51.5 30.5 32.8 55.5 57.3 90.4 68.9l9.3-46.2z"/><path id="Path_23" class="st9" d="M156 212.9l24.3 6.8c20.4-3.3 34.4-16.7 43.9-32.6-7.2-4.2-14-9.4-21.1-12.7-12 16.7-27.5 29.3-47.1 38.5z"/><path id="Path_24" class="st7" d="M225 111.4l3.4 2.1c.2-.7.3-1.4.5-2.1H225z"/><path id="Path_25" class="st10" d="M223.5 116.7c-5.4 24.5-12.7 40.5-24.4 56.8 7.2 3.3 20.6 12.1 27.8 16.2 16.9-28.2 17.1-66.6 17.1-66.6l-20.5-6.4z"/><path id="Path_26" class="st8" d="M213.2 270.4c9.7 6 30.4 4.8 42.7 2.3-12.2-17.7-35.5-31.5-51.4-47.4-5.6 16.5-9 34.2 8.7 45.1z"/><path id="Path_27" class="st11" d="M304.1 156.2c-2-17.7-9.3-41.3-25-51.7-12-7.9-31.7-14.3-46.1-9.8-17 5.4-9.2 32.5-10.4 45.5-2.2 24-8.2 47.4-17.7 69.5-1.3 2.9-2.6 5.9-2.6 9.1.1 6.6 8 12 12.5 15.9 6.2 5.4 12.6 10.6 18.9 15.9 2.6 2.2 33.8 31.6 32.9 32.1 14.2-7.9 29.9-55.6 33.7-73.7 3.6-17.4 5.8-35.2 3.8-52.8z"/><g id="Group_34"><path id="Path_28" class="st8" d="M269.4 267.6c-1.2-11.6-7.4-14-18.3-14.5-34.4-1.6-68-4.9-102.6-3.3-10 .5-21.1 1.8-27.4 9.6-4.5 5.6-5.3 13.3-5.8 20.5-3.4 47.9-4 95.9-1.6 143.8 9.9 3.2 20 3.9 35.1 4.8 7.1-28.4 21.3-130.3 21.4-130.2 17.2.5 30 1.1 47.4 2.4 12.6 1 25.9.8 36.9-5.3 10-5.8 16.1-16.5 14.9-27.8z"/><path id="Path_29" d="M161.8 284.7L147 428.3l2 .1c7.1-28.4 21.3-130.2 21.4-130.2 17.2.5 30 1.1 47.4 2.4 12.6 1 25.9.8 36.9-5.3 5-2.8 9.1-7 11.8-12.1-30.6 17.5-69.9-1.7-104.7 1.5z" opacity=".78" fill="#d24242"/><path id="Path_30" class="st11" d="M227.2 245.2c15.1 12.6 31.7 26.3 39.4 37.5 6.7-3.8 13.8-16.5 19.8-30.7-19.5-4.1-39.3-6.4-59.2-6.8z"/></g><path id="Path_31" d="M160.2 235.1c-1.4.1-2.8.2-4.2.4 1.4.2 2.8.1 4.2-.4z" fill="#d0ccc8"/><g id="Group_37"><g id="Group_36"><path id="Path_32" class="st6" d="M194 37.1c-2.6 5.1-4.3 10.5-5 16.1-.7 5.6.3 11.4 2.9 16.4 3-11.1 7.2-21.9 12.3-32.2l-10.2-.3z"/><path id="Path_33" class="st9" d="M242.7 117.4c8.6-2.3 13.7-11.1 11.4-19.6l-15.6-58.5-31.1 8.3 15.6 58.5c2.3 8.5 11.2 13.6 19.7 11.3z"/><path id="Path_34" class="st4" d="M243.8 95.7c.9-4.7 1.2-9.4.7-14.2-.2-3.6-.8-7.3-1.7-10.8-2.6.4-5 1.9-7.4 3.1-2.5 1.2-5.1 2.3-7.8 3.2-3.7 1.4-7.5 2.6-11.2 3.9l6.7 25c.7 2.7 2.1 5.1 4.1 7.1 8.5-1.4 14.7-9 16.6-17.3z"/><g id="Group_35"><path id="Path_35" class="st9" d="M225.1 107.4c-31.6 16.9-49.6-60.7-17.6-78.8 36.2-20.5 47.5 18.4 36.3 50-4 11.2-8.1 23.1-18.7 28.8z"/><path id="Path_36" class="st6" d="M247.3 74.8c.5 2.5 1.4 4.8 2.9 6.9-.6-.8 2.3-7.6 2.6-8.7 2.3-8.3 4.5-16.8 3.7-25.4-.3-2.9-1-5.8-2.2-8.5-7.8-17.9-31.6-22.1-47.7-12.7-3.4 2-6.6 4.3-9.4 7.1-3.2 2.9-5.5 6.8-6.4 11.1-.8 4.3.3 9 3.5 11.9 9.4 8.6 21.1-2.1 28.9-7.2 3.8-2.5 9.3-4.4 12.5-1.2 4.6 4.5 5.2 15.1 5 21.4 0 .6 2.7.7 2.8-.1.2-1.6 0-2.8 1.3-3.4.4-.2 3-1.3 2.4 0-1.1 3.1-.5 5.7.1 8.8z"/></g><path id="Path_37" class="st9" d="M242.8 67c.4-.9 1.1-1.7 2-2.1.9-.4 2-.2 2.7.5.6 1 .7 2.2.3 3.2-.9 2.6-2.2 5.1-3.8 7.3l-1.2-8.9z"/><path id="Path_38" class="st6" d="M198.4 94.8c-.1.2-.2.3-.3.5-1.2 2.5.1 5.4 1.4 7.9 2 3.8 4.2 7.9 7.9 10 7.2 4.1 15.8-.3 21.6-4.8 14.2-11.2 19.7-30.2 13.6-47.2-1.2 1.4-1.9 3.3-2 5.1-.2 2.4.9 15.3-6.6 23.2-3.3 3.5-9.5 3.7-14 3.3-5.6-.4-11.2-2.2-16.8-.9-1.9.3-3.6 1.3-4.8 2.9z"/><path id="Path_39" class="st6" d="M239.4 29.8c-2.3-5.7-3.5-11.8-3.5-17.9 0-4.1.9-8.7 4.4-10.8 3.6-2.3 8.6-.6 11.9 2.1 4.1 3.3 7 8.9 5.4 14-2.4 7.9-13.8 10.6-15.6 18.7l-2.6-6.1z"/><path id="Path_40" class="st9" d="M204.2 94.6c-1.4 1.2-1.9 3.1-1.1 4.8.3.7.8 1.2 1.5 1.4.6.1 1.3-.1 1.8-.5s.9-.9 1.2-1.5c.8.8 1.7 1.5 2.7 2.1 1 .6 2.2.7 3.3.3 1.1-.4 1.8-1.5 1.7-2.7-.2-.7-.6-1.4-1.2-1.9-2.1-1.9-7.1-4.2-9.9-2z"/></g><path class="st4" d="M206.5 89.9c-1 0-2-.2-3-.5-.8-.1-1.5-.7-1.9-1.4l-.1-.2c-.2-.9 0-1.9.5-2.7 1.4-3.1.8-6.7-.1-10.7-.1-.5.2-1 .7-1.1.5-.1 1 .2 1.1.7.7 3.4 1.7 8-.1 12l-.1.1c-.2.3-.3.7-.3 1.1.2.2.4.4.7.4.9.3 1.7.4 2.6.4.5 0 .9.4.9 1s-.4.9-.9.9zm-3.7-4.3z"/><path d="M216.4 79h-.5c-1-.1-2-.6-2.6-1.5-.3-.4-.2-1 .1-1.3.4-.3 1-.2 1.3.1.7.9 2 1.1 2.9.3.4-.3 1-.3 1.3.1.3.4.3 1-.1 1.3-.7.8-1.5 1-2.4 1zm-20.5.5c-1 0-2-.4-2.8-1.2-.3-.4-.3-.9 0-1.3.4-.3.9-.3 1.3 0 .6.6 1.5.8 2.3.5.5-.2 1 0 1.2.5.2.5 0 1-.5 1.2-.5.2-1 .3-1.5.3zm25.9-5.7c-.1 0-.3 0-.4-.1-3.6-1.4-7.5-1.7-11.3-1.1-.6.1-1.2-.3-1.3-.9-.1-.6.3-1.2.9-1.3 4.2-.7 8.5-.3 12.5 1.2.6.2.9.9.7 1.5-.2.4-.6.7-1.1.7zm-29-.2c-.6 0-1.1-.4-1.1-1-.1-.6.3-1.2 1-1.3 2.1-.3 4.2-.3 6.2 0 .6.1 1.1.7 1 1.3-.1.6-.7 1.1-1.3 1-1.8-.3-3.7-.3-5.6 0h-.2z" fill="#39395c"/></g><g id="Group_38"><path id="Rectangle_18" class="st15" d="M180.4 244.7h55.4v5.6h-55.4z"/><path id="Path_46" class="st7" d="M104.6 250.2h99.6L190 194.6c-1.1-4.1-4.8-7-9-7H93.7c-2.2 0-4 1.8-4 4 0 .3 0 .7.1 1l14.8 57.6z"/><path id="Path_47" class="st15" d="M189.9 194.7l14.2 55.6H198l-16-62.5c3.8.4 7 3.1 7.9 6.9z"/><circle id="Ellipse_1" cx="141.2" cy="217" r="4.7" opacity=".88" fill="#fff"/></g><path id="Path_48" class="st9" d="M252.4 168.2c-2.1 19.6-8.5 67.4-8.5 67.4-15.3-4.7-30.4-4.3-45.6-7.7l3.7 14.4c20.3 5.9 39.7 13.3 43.1 14.3 6 1.7 13 1.5 18-2.3 4.5-3.4 6.5-9.1 8.2-14.5 6.3-20.4 11.8-40.7 14-61.4-12.7-2.8-18.3-10.2-32.9-10.2z"/><g id="Group_40"><path id="Path_49" class="st11" d="M287.1 150.9c-.9-12-1.9-31.1-11.2-36.9-14.2-8.8-27.9 6.4-28.8 20.4-1 15.8-3.8 30.9-5.4 46 16.1 0 30.8.2 44.8 3.2 1.2-10.8 1.4-21.8.6-32.7z"/><path id="Path_50" class="st10" d="M287.1 150.9c-.8-10.5-1.6-26.6-8.2-34.2 6.9 21.2 4.7 44.2 3 66.1 1.5.3 3 .5 4.5.9 1.2-10.9 1.5-21.9.7-32.8z"/><g id="Group_39"><path id="Path_51" class="st5" d="M246.3 143.4c.1-.5.1-1 .1-1.6 0 .5-.1 1-.1 1.6z"/><path id="Path_52" class="st5" d="M246.3 143.4c-1.3 12.6-3.3 24.8-4.6 37.1h4.6c-.5-15.8-.8-27.7 0-37.1z"/></g></g><path id="Path_53" class="st17" d="M111.9 411.1c-.4.3-.8.7-1 1.2-1 2-.1 4.5-.1 6.6v6.3s15.1 8.6 40.9 5.1c.6-.1 2.1-10.5 2.2-11.5.7-5.9-8.7-3.7-12.3-3.8-4.5-.1-9.1-.4-13.6-.9-4.1-.4-8.2-1.2-12.2-2.4-1.5-.4-2.8-1.3-3.9-.6z"/><path id="Path_54" class="st17" d="M77.7 265.1c.8 2.2 2 4.4 4 5.4 1.9.9 4.1.5 6.2.1 7.9-1.4 15.6-3.2 23.4-5.2-.3-3.5-.6-7-.8-10.4 0-.8-.2-1.5-.6-2.1-1-1.4-3.1-1.2-4.7-.8-9.4 2.2-20.6 3.2-29.5 6.9.4 2.1 1.1 4.1 2 6.1z"/></g><g id="Group_45"><g id="Group_42"><path id="Path_55" class="st0" d="M243.1 231.6l-77.6 255.2c-.8 2.3-3.3 3.6-5.6 2.8-2.2-.7-3.5-3-2.9-5.3l71.9-256.9c1.1-3.9 5.2-6.3 9.1-5.1 3.9 1.1 6.3 5.2 5.2 9.1-.1 0-.1.1-.1.2z"/></g><g id="Group_43"><path id="Path_56" class="st0" d="M314.4 252.3l24.5 199.4c.3 2-1 3.9-3.1 4.2-2 .3-3.9-1-4.2-3.1v-.2l-31.9-198.3c-.7-4 2.1-7.9 6.1-8.5s7.9 2.1 8.5 6.1c.1.2.1.3.1.4z"/></g><g id="Group_44"><path id="Path_57" class="st0" d="M338.2 264.7l-124-35.9c-3.9-1.1-6.2-5.3-5.1-9.2s5.3-6.2 9.2-5.1l.3.1 122.5 40.7c2.6.8 4.1 3.6 3.3 6.2-.9 2.5-3.6 4-6.2 3.2z"/></g></g><g id="Group_60"><g id="Group_49"><g id="Group_46"><path id="Path_58" class="st18" d="M431.4 497.6h-.2c-1.1 0-1.9-.9-1.9-1.9l1.3-107.8c0-1.1.9-1.9 1.9-1.9s1.9.9 1.9 1.9v.1l-1.3 107.8c0 .9-.7 1.7-1.7 1.8z"/></g><g id="Group_47"><path id="Path_59" class="st18" d="M385.7 515.7h-.4c-1-.2-1.7-1.2-1.5-2.2l26.7-131c.2-1 1.3-1.7 2.3-1.4 1 .2 1.6 1.2 1.4 2.2l-26.7 130.9c-.1.9-.9 1.5-1.8 1.5z"/></g><g id="Group_48"><path id="Path_60" class="st18" d="M492.4 515.7c-.9 0-1.7-.6-1.9-1.5l-26.7-130.9c-.2-1 .4-2.1 1.5-2.3s2.1.4 2.3 1.5v.1l26.7 130.9c.2 1-.5 2-1.5 2.2h-.4z"/></g><ellipse id="Ellipse_2" class="st18" cx="436.7" cy="376.5" rx="41.9" ry="15.2"/><path class="st18" d="M439.1 451.3c-15.2 0-40.9-2.7-40.9-12.9s25.7-12.9 40.9-12.9 40.9 2.7 40.9 12.9-25.7 12.9-40.9 12.9zm-34.9-12.8c.9 2 12.3 6.9 35 6.9s34-4.9 35-6.9c-.9-2-12.3-6.9-35-6.9s-34.1 4.8-35 6.9z"/></g><g id="Group_57"><g id="Group_56"><g id="Group_50"><path id="Path_61" d="M452.3 275.3c0-.2-.2-.5-.4-.6-.1-.1-.3-.2-.4-.2-.4-.1-.8-.2-1.1-.2h-.1c-2.1-.1-4.2.5-5.9 1.6-3.5 2.2-6.4 5.1-8.5 8.6-.2-2.2-.5-4.4-.9-6.5l-1.2-7.2c0-.4-.1-.7-.2-1.1-.3-1.5-.6-2.9-.9-4.4.5-.4 1-.8 1.4-1.1 3.2-2.6 6-5.4 7.7-9.7.3-.8.5-1.6.7-2.4.6-2.3.6-5-2.5-4.8-3.4.2-5.9 3.8-7.6 6.5l-.1.2c-.6.9-1.1 1.9-1.7 3-.8-2.9-1.6-5.8-2.5-8.7-.7-2.3-1.5-4.6-2.2-6.8-.1-.3-.2-.5-.3-.8l.2-.2c.9-.8 1.9-1.3 2.8-2.1.7-.7 1.3-1.5 1.8-2.3.3-.4.5-.9.7-1.3 1.1-2.4 1.8-5 2-7.7.3-1.7.3-3.4 0-5.1-.3-1.8-1.2-3.2-3.1-3-3.7.4-5.1 6-6.1 8.9-.6 1.8-1 3.7-1.4 5.6-2.9-6.7-6.4-13-10.6-18.9 3.2-1.9 4.7-7.2 4.1-10.9-.2-1.6-.6-3.1-1.4-4.5-.8-1.4-1.7-2.8-2.7-4-2.3-2.5-5-4.5-8-5.9-.4-.3-1-.1-1.2.3-.1.2-.2.4-.1.7 1.1 5.8 1.8 11.6 3.4 16.8-2.4-2.8-5.1-5.4-7.9-7.8-1.7-4.5-4.6-8.4-8.4-11.3-4.1-3-9.4-4.1-14.3-3-.5.1-.7.6-.6 1.1v.1c.6 1.3 1.3 2.5 2.3 3.5.4.5.9.9 1.4 1.4.5.5 1 .9 1.5 1.3 2.1 1.6 4.3 3 6.4 4.3 1.2.8 2.4 1.4 3.7 2 1.2.6 2.6 1.2 3.9 1.8s2.4 1.1 3.6 1.7c1.2.6 2.3 1.4 3.3 2.4 2 2 3.9 4.1 5.6 6.2-1.5-.9-3.1-1.6-4.8-2.1-1.6-.5-3.3-.7-5-.6-3.3.1-6.5 1.7-8.6 4.2-.3.3-.4.8 0 1.1l.1.1c3.2 1.5 6.6 2.5 10 3.2 4 .7 8.2.9 11.6-1.5l.2.2c0 .1.1.1.1.1 4.4 6.4 8.2 13.2 11.2 20.4-1.2-1.2-2.6-2.2-4.1-3.1-2.1-1.4-4.3-2.5-6.7-3.3-2.4-.8-4.9-1.1-7.4-.9-.6 0-1 .4-1 1v.2c.3 2.1 1.5 4 3.1 5.4.3.2.5.4.8.6 1.6 1.1 3.2 2 5 2.7.8.3 1.6.5 2.4.7 3.2.8 6.9.9 9.4 3.1 4.1 3.6 3.2 10.9 5.5 15.6 0 .1.1.2.1.3l-.2-.3c-2.9-5.3-7.4-9.6-12.9-12.1-1.4-.6-2.8-1-4.3-1.1-.5-.1-1 .3-1.1.7-.6 4.8 2 8.6 5.8 12 .4.4.8.7 1.3 1 1.4 1.1 2.9 2.2 4.5 3.1.6.4 1.2.7 1.8 1.1 1.8 1.1 3.5 2 5.1 2.9.1.1.2.1.3.1.3.2.6.3.9.5.1 0 .2.1.3.1h.3l.1.1c.4 1.6.7 3.2 1 4.9v.3c.5 2.6.9 5.2 1.3 7.8.2 1.6.5 3.1.6 4.7 0 .2.1.4.1.6-.1-.2-.2-.3-.3-.5-.3-.4-.5-.8-.8-1.1-.4-.6-.9-1.1-1.4-1.7-1.3-1.5-2.8-2.8-4.5-3.9-1.5-1-3.1-1.8-4.9-2.2-1.2-.3-2.4-.4-3.7-.4-.4.1-.7.4-.8.8 0 .2 0 .3.1.5.6 1 1.3 2 2 3 2.6 3.7 5.8 7.5 9.9 9.9.5.3 1.1.6 1.6.8 0 0 .1.1.2.1.4.2.8.3 1.2.5h.1l.9.3c.4.1.7.2 1.1.3.2 0 .4 1.6.4 3.5.1 1.1.1 2.3.1 3.4.1 1.7.1 3.1.1 3.5v2.2c0 1.4.1 2.7.1 4v4.9l-.1 2.3v.6c0 1.5-.1 2.9-.2 4.3-.2 3.4-.6 6.8-1.2 10.2-.1.6-.3 1.3-.4 1.9 0 .2-.1.4-.1.5-.1.5-.2 1-.4 1.5h3.3c.2-4.7.6-9.4.8-14.1 0-.5.1-1.1.1-1.7.1-.9.1-1.8.1-2.6s.1-1.8.1-2.7v-.9c0-.5 0-2.3-.1-4.7 0-.6 0-1.3-.1-2v-.4c0-1-.1-2.1-.1-3.1v-.7c0-1.4-.1-2.9-.2-4.2s-.1-2.7-.1-3.8c-.1-1.8-.1-3-.2-3 .5-.1.9-.2 1.4-.3 1.6-.4 3.1-1 4.5-1.8.8-.4 1.6-.9 2.4-1.5.3-.2.6-.5.9-.7.6-.5 1.2-1 1.7-1.6.2-.2.4-.5.6-.7 1.6-2.1 3.1-4.4 4.4-6.8.6-.6.6-.9.5-1.2z" fill="#00b580"/></g><g id="Group_51"><path id="Path_62" class="st20" d="M526.1 241.2c-2.8-3.7-8.8-4.6-14-4.7-3 0-5.9.4-8.7 1.3-2.7.7-5 1.7-7.8 2.2-2.7.5-5.4 1.1-8.1 1.9 5.5-3.6 11.7-7.9 11.2-13.2-.1-.5-.8-.7-1.4-.5-4.2 1.3-8.1 3.4-11.4 6.2-3.3 2.9-5 6.5-3.8 9.3l-.3.1c-.1 0-.1.1-.2.1-3.6 1.5-7 3.3-10.1 5.5-3.1 2.2-6 4.8-8.6 7.6.8-1.6 1.4-3.4 1.9-4.5 2-4.6 4.1-9.1 5.1-13.6.1-.6-.4-.8-1.1-.6-2.8.9-5.2 2.7-7 5.1-1.6 2.1-2.7 4.4-3.3 6.9-.9 3.9.7 7.5-.3 11.2-.7 2.5-2.4 4.7-4.1 7-1.5 1.8-2.8 3.7-3.9 5.8-.2.4-.4.8-.5 1.3.1-.4.3-.8.4-1.3 1-3.2 1.8-6.5 2.2-9.8.6-3.3.7-6.7.2-10.1-.1-.3-.4-.5-.7-.5-.1 0-.2.1-.3.1-4.6 3-6.9 8.1-7.5 13.2-.4 2.9-.3 5.7.1 8.6.2 1.8.6 3.5 1.1 5.2 0 .1 0 .2.1.3.1.3.2.6.2.8.1.2.2.3.3.4v.1l-1.5 3.3c-.6 1.3-1.2 2.6-1.7 3.9-1.3 3-2.4 6-3.4 9.1 0 .1-.1.2-.1.4v-.3c-.1-1.6-.2-3.2-.5-4.8-.1-1-.3-1.9-.5-2.9-.1-.4-.2-.7-.3-1.1s-.2-.6-.3-1c-.4-1.3-1-2.5-1.8-3.7-.5-.7-1.1-1.3-1.8-1.8-.1-.1-.2-.1-.3-.1-.1 0-.2.1-.2.1-.3.2-.5.5-.6.9-.2 1.1-.3 2.3-.4 3.4-.1.6-.1 1.2-.1 1.8v3c.1 1.2.2 2.4.4 3.5.3 1.7.8 3.4 1.6 4.9.1.2.2.3.3.5 0 .1.1.2.2.3l.2.4c.5.7 1 1.4 1.7 1.9l.1.1c.2.2.3.3.5.4-.2.5-.3 1-.4 1.6s-.4 1.3-.5 2c-.3 1-.5 2.1-.8 3.2-.2.8-.4 1.7-.6 2.6 0 .2-.1.4-.1.6-.3 1.4-.6 2.9-.8 4.3-.3 1.7-.6 3.4-.8 5.2-.2 1.5-.4 3-.5 4.6s-.2 2.8-.4 4.3h1.5c.3-4.7.9-9.4 1.7-14.1.2-1.3.5-2.7.8-4 0-.1.1-.2.1-.3l.6-2.7c0-.1.1-.2.1-.4.5-2.4 1.2-4.7 1.9-7 1.4.2 2.9.2 4.3-.1 1.2-.2 2.3-.4 3.4-.8.7-.2 1.3-.5 1.9-.8 2-1 3.8-2.5 5.9-3.7.4-.3.6-.8.3-1.2 0-.1-.1-.1-.1-.2-1.5-1.6-4-2.1-6.7-1.6-.8.1-1.5.3-2.2.6-.8.3-1.5.6-2.3 1-1.1.6-2.1 1.3-3 2.1.3-1.1.7-2.1 1.1-3.2.8-2.3 1.7-4.6 2.7-6.9s1.9-4.3 2.9-6.4c.1-.2.2-.5.3-.7h.3c2.7-.1 5.3-.6 7.8-1.4 1-.3 2-.8 2.9-1.3 1.1-.6 2.9-1.5 3.6-2.7.6-.8.5-1.8-.3-2.5-1.7-1.9-5.2-1.3-7.7-.5-.6.2-1.3.4-1.9.7-.3.1-.6.3-1 .4.2-.3.4-.7.6-1 2.5-4.3 5.3-8.5 8.4-12.5 1 .2 1.8.7 2.8.9 1.2.2 2.3.3 3.5.1 2-.2 4-.6 6-1 1.2-.2 2.4-.5 3.5-.9 1.1-.5 1.9-1.2 1.5-2.5-.5-1.3-1.7-2.3-3.1-2.6-1.5-.4-3-.5-4.5-.4-1.6.1-3.3.4-4.8.9 2.4-2.5 5-4.7 7.9-6.6 2.8-1.9 5.9-3.5 9-4.8.6 1.4 1.7 2.6 3 3.3 1.4.8 2.8 1.4 4.4 1.9 4.5 1.2 9.3 0 13.9-1.4.4-.1.6-.5.5-.8 0-.2-.1-.3-.3-.4-3.8-2.9-8.2-4.7-12.9-5.3 3.4-.8 6.9-1.4 10.4-1.8 8 2.3 16 4.5 24.6 1.6.3-.1.5-.5.4-.8.1 0 .1-.1 0-.2z"/></g><g id="Group_52"><path id="Path_63" class="st20" d="M442.2 282.2c-2.4-.5-4.6 1-6.3 3.4-1 1.4-1.9 3-2.5 4.6l-.9 2.7v.3c-.4-1.3-.8-2.5-1.2-3.8-.1-.2-.1-.3-.1-.5-1.3-4-2.7-8-4.2-11.9-.2-.6-.5-1.3-.8-1.9.3-.4.5-.8.8-1.2 1.8-2.3 2.9-5.1 3.4-8 .1-.4.1-.9.1-1.4v-.5c.1-1.8 0-5.5-1.8-6.4-.3-.2-.6-.2-.9-.2-.2 0-.4 0-.6.1-2 .4-2.9 2.7-3.5 5-.2.7-.3 1.3-.5 1.9s-.2 1-.3 1.6-.2 1-.2 1.5c-1.6-3.2-3.3-6.3-5.2-9.2-1.1-1.7-2.3-3.4-3.5-5 .4-.9 1.1-1.6 1.4-2.6.4-1.2.6-2.4.5-3.7 0-.4-.1-.9-.1-1.4-.3-2-.8-3.9-1.6-5.7-.1-.2-.2-.5-.3-.8-.5-1.3-1.2-2.5-2-3.6-1.1-1.4-2.6-2.5-4-1.8-.8.4-1.3 1.1-1.3 2-.1.6-.1 1.3 0 1.9.2 1.7.6 3.3 1 4.9.4 1.6.9 3.3 1.4 5-5-5.1-10.9-9.1-17.5-11.8.6-1.5.5-3.2-.3-4.6-.8-1.7-2-3.2-3.5-4.3-2.6-1.9-5.6-3-8.8-3.2-3.2-.3-6.4-.1-9.5.7-.8.2-.9.9-.4 1.2 4.3 2.6 8.8 5.5 13.3 7.8-3.6-.5-7.3-.7-10.9-.5-4.2-1.5-8.6-2.2-13-2-4.5.2-8.9 1.5-12.7 3.9-.3.2-.4.5-.2.9 0 .1.1.1.1.2 3.8 2.9 9.9 2.2 15 1.6 2.9-.4 5.7-1 8.5-1.9 2.6-.6 5-1.5 7.9-1.3 2.7.1 5.4.4 8.1.9-3.1.1-6.2 1.2-8.7 3-2.2 1.5-3.5 4-3.5 6.7 0 .4.4.7.8.7h.1c3.1-.8 6.2-1.8 9.2-3 3.1-1.3 6.3-2.9 7.4-5.7l.3.1h.2c7 2.8 13.3 7.2 18.3 12.8-1.4-.7-2.9-1.3-4.4-1.8-4.4-1.4-8.8-1.4-12.3.5-.4.2-.5.6-.3 1l.1.1c1.2 1.4 2.8 2.5 4.5 3.1 1.8.6 3.7 1 5.7 1.2 3.3.4 6.9-.9 10.3 1 2.2 1.2 3.8 3.7 5 6.3s2.4 5.3 3.9 7.4c-2.2-3-5-5.5-8.2-7.4-2.6-1.7-5.7-2.4-8.8-2.2-.4 0-.6.4-.6.7v.1c1 4 4 6.8 7.7 9.3 3.3 2.1 6.7 4.1 10.2 5.7l1.3.6c.1.1.2.1.2.1.3.1.5.2.8.4.1.1.3.1.5 0h.1c1.6 4.1 3.1 8.3 4.5 12.6.5 1.5 1 3.1 1.5 4.7-.8-1-1.6-2-2.5-2.9l-1.5-1.5c-.3-.3-.6-.5-.9-.7-1.7-1.5-3.7-2.5-5.9-3.1-.5-.1-.9-.2-1.4-.1-.5 0-1 0-1.5.1-.4.1-.6.9-.2 1.3s.4.5.6.8c1.5 2.1 3.1 4 4.9 5.9 1.2 1.3 2.5 2.4 3.9 3.4 1.8 1.4 3.9 2.3 6.2 2.6.2.9.5 1.7.7 2.6.1.3.2.6.2.9l1.2 5.1c.2.6.3 1.2.4 1.8s.4 1.5.5 2.2c.2 1 .5 2.1.6 3.1 0 .1.1.2.1.3.2.8.3 1.5.5 2.3.1.5.2 1.1.3 1.7.8 4.1 1.4 8.1 1.9 12.2.1.6.2 1.3.3 2h1.4c-.1-.6-.1-1.2-.2-1.7-.1-1-.2-1.9-.4-2.9-.4-3.2-1-6.4-1.5-9.6-.2-1.4-.5-2.9-.8-4.3-.2-1-.4-2.1-.6-3.1l-.1-.3-.6-2.9-.6-2.4c-.2-1-.5-2.1-.8-3.1-.1-.3-.1-.6-.2-.9 0-.1-.1-.2-.1-.4s-.1-.4-.1-.5l-.9-3.3 1.2-.6c.6-.3 1.1-.7 1.6-1.1.8-.6 1.5-1.3 2.1-2.1.4-.4.7-.8 1-1.3.6-.9 1.1-1.9 1.5-2.9.3-.9.6-1.7.8-2.6.3-1.2.6-2.5.9-3.7.3-.4-.1-1-.7-1.2z"/></g><g id="Group_53"><path id="Path_64" class="st20" d="M437.3 301.1c-.2 0-.3.1-.5.1-.6.1-1.2.3-1.7.6-.1 0-.2.1-.3.1h-.1c-.4.2-.8.5-1.2.7-.4.2-.7.5-1 .8-.5.4-1 .8-1.4 1.3-1.6 1.6-2.8 3.4-3.8 5.3-1.3-3.2-2.7-6.3-4.4-9.3.8-.9 1.6-1.8 2.4-2.8.4-.5.7-1 1.1-1.5.8-1.2 1.4-2.5 1.7-3.9.1-.4.2-.8.2-1.2v-1.1c0-.9-.4-1.7-1.5-1.5l-.2.1c-.2 0-.3.1-.5.2-1.6.9-2.9 2.2-3.7 3.9-.3.6-.6 1.1-.8 1.6l-.9 2.1c-1.5-2.6-3.2-5-5-7.4.5-.7 1.3-1.4 1.8-2.1l.1-.1c.5-.7.9-1.4 1.2-2.2.1-.1.1-.3.2-.4.5-1.6.7-3.3.7-5v-.9c-.1-1.5-.6-3.5-2-3.4-.3 0-.6.1-.9.3-2.3 1.3-2.6 5.1-3 7-.2 1.2-.4 2.4-.4 3.6-2.4-3-5.2-5.5-8.4-7.6 1.5-2.5 1.6-5.6.3-8.2-1.9-3.6-6.4-4.7-9.7-4.2-.4.1-.7.5-.6 1 0 .1 0 .1.1.1 1.6 3.1 3.3 6.2 5.4 9-1.8-.7-3.7-1.2-5.6-1.6-3.6-4-8.7-6.6-13.5-3.7-.3.2-.3.6-.2 1 1.5 3.8 4.7 4.7 7.4 5.2 1.5.2 3.1.2 4.6-.1 1.4-.2 2.9-.6 4.3-.2 1.4.4 2.7.9 4 1.5-2 .2-3.9 1-5.4 2.4-1.7 1.7-2.8 3.8-3.2 6.1-.1.5.1.8.3.8 1.8-.5 3.5-1.3 5-2.4 2.3-1.4 4.3-3.3 5.8-5.5l.1.1h.1c3.3 2.2 6.3 4.9 8.7 8-.9-.3-1.9-.5-2.9-.6-3.1-.4-6.3.4-8.9 2.3-.3.2-.5.6-.5.9.3 2 2.9 1.9 5.8 1.6 2.5-.2 5.8-1.9 8.1-1.2 3.1.8 3.2 5.2 5.3 7-3.7-2.9-8.5-3.8-12.9-2.4-.3.1-.7.5-.7.7 0 2.8 2 3.9 4.9 4.6 3.1.6 6.3.9 9.5.9h.9c.1 0 .3 0 .4-.1h.1c1.5 2.8 2.9 5.7 4.1 8.7-3.6-2.3-8-2.8-12-1.3-.4.2-.6.6-.4.8 3.1 2 7.7 4.4 13.5 3.5.3.7.5 1.4.7 2.2.5 1.4.9 2.7 1.3 4.1 1.3 4.5 2.3 9 2.9 13.7h1.4c-.1-.7-.2-1.3-.3-2s-.2-1.5-.4-2.3c-.2-1.5-.5-2.9-.9-4.4-.4-1.7-.8-3.5-1.3-5.2-.4-1.4-.8-2.8-1.3-4.1-.3-1-.6-1.9-1-2.9 1.1-.5 2.1-1.1 3-1.7.5-.3.9-.7 1.4-1.1.5-.5 1.1-1 1.6-1.5l.5-.5c.1-.2.3-.3.4-.5s.5-.6.7-1c.3-.5.6-1.1.9-1.6 0-.1.1-.2.1-.3.4-.8.7-1.6 1.1-2.5.2-.1-.1-.5-.7-.4z"/></g><g id="Group_54"><path id="Path_65" class="st21" d="M516.2 268.2c-2.5-3.4-6.9-3.5-10.6-3.1-2.1.3-4.1 1-6 2.1-1.8.9-3.3 2.1-5.2 2.6s-3.7 1.2-5.6 1.9c3.5-3.3 7.2-8 5.8-13.1-.1-.4-.5-.6-.9-.5l-.1.1c-2.8 1.5-5.3 3.7-7.1 6.3-1.9 2.8-2.7 6-1.4 8.8l-.2.1s-.1 0-.1.1c-5 2.2-9.7 5.1-13.9 8.6.6-1.1 1-2.3 1.4-3.4 1.6-3.5 2.6-7.3 3-11.2 0-.4-.3-.7-.6-.7h-.2c-2 .4-3.8 1.6-4.9 3.2-1.2 1.6-2 3.4-2.3 5.3-.7 3.1.8 6.6 0 9.5-.7 1.8-2 3.4-3.6 4.6-1.5 1.4-3.2 2.8-3.9 4.5 2-4.6 3.4-11.1 2.7-16 0-.2 0-.4-.1-.6-.1-.4-.4-.6-.8-.5h-.1c-1 .3-1.9.8-2.7 1.4-1.2 1-2.2 2.3-2.9 3.7-.6 1.2-1 2.6-1.2 3.9-.3 2-.4 4-.1 6 .2 1.8.5 3.6 1.1 5.4 0 .1 0 .2.1.2.1.2.1.5.2.7 0 .1.1.3.3.3v.1c-2.4 3.5-4.7 7.2-6.7 11 0-2-.2-4.1-.6-6.1-.1-.4-.2-.7-.3-1.1-.5-1.8-1.4-3.5-2.6-5l-.9-.9c-.3-.2-.8-.1-1 .2 0 .1-.1.1-.1.2l-.3 1.5c-.4 2.2-.4 4.4-.2 6.7 0 .2 0 .5.1.7.4 2.9 1.7 5.6 3.9 7.6-.4.7-.7 1.4-1 2.1-.7 1.4-1.4 2.8-2 4.2-1.4 3.1-2.8 6.2-4.1 9.4-.4.9-.7 1.8-1.1 2.6-.3.6-.5 1.3-.8 2h1.5l.7-1.7c1.6-4.1 3.4-8.1 5.2-12.2.7-1.4 1.3-2.8 2-4.2.3-.7.7-1.4 1-2.1 2.4.9 4.9 1.4 7.4 1.3 2.8 0 5-.8 7.5-1.4.5-.1.6-.6.2-1-2.8-3.3-9.3-3.7-13.4-2 2.1-3.9 4.4-7.7 6.9-11.3 3.5.6 6.7 1.4 10 .8 1.6-.3 4.8-.7 2.9-3.1-1.5-2-4.6-2.5-6.8-2.5-.9 0-1.7 0-2.6.1 1.2-1.5 2.5-3 3.8-4.4s2.6-2.9 4.1-4.1c.8.4 1.6 1.1 2.4 1.5.9.5 1.9.8 3 1 1.6.3 3.3.6 5 .7 1.4 0 4.9.7 4-2s-4.2-3.8-6.4-4.3c-1.3-.3-2.7-.4-4-.4 3.8-3.1 8.1-5.6 12.5-7.6 1 2.6 4.2 4.6 6.4 5.4 3.6 1.2 7-.1 10-1.9.3-.3.4-.8.1-1.1l-.1-.1c-3-2.2-6.5-4.2-10.2-4.6 2.4-.8 4.8-1.5 7.2-2.2 6.1 1.8 12.1 2.9 17.6-.9-.1-.3-.1-.8-.3-1.1z"/></g><g id="Group_55"><path id="Path_66" class="st21" d="M448.1 211.1c6.1-5.4 11.8-10.9 14.1-19.2.1-.4-.1-.7-.5-.8h-.1c-4.5 0-8.7 4.5-11.4 8.8-1.5 2.5-2.6 5.2-3.4 8-.8 2.5-1 5-2.1 7.5s-2 4.9-2.9 7.4c.3-3.2 0-6.4-.7-9.4-.7-2.9-2-5.3-4.5-6.4-.4-.2-1 .2-1.1.8-1 3.9-1.3 8-.7 12 .6 4 2.3 7.3 5.2 8.2l-.1.3v.2c-2.2 7-3.9 14.2-5.2 21.4-.2-1.7-.7-3.5-1-4.6-.7-3.2-1.8-6.4-3.3-9.4-.5-1.1-1.2-2.1-1.9-3-.3-.4-.9-.2-1.2.3-1.2 2.2-1.8 4.7-1.5 7.2 0 .3 0 .6.1.9.3 1.9.8 3.7 1.5 5.4.2.5.5.9.7 1.4 1.3 2 3 3.6 4.2 5.8.4.6.6 1.3.8 2 1.3 4.6-1.6 10.5-1.3 15.4v.4c0-.2-.1-.5-.1-.7-.3-2.1-.7-4.2-1.3-6.3-.6-2.5-1.5-4.9-2.7-7.2-.8-1.7-1.9-3.3-3.2-4.7-.2-.2-.6-.2-.9 0-.1 0-.1.1-.1.2-1.4 2.6-1.9 5.6-1.6 8.5.2 1.6.5 3.1 1 4.6l.3.9c.9 2.5 2.2 4.9 3.7 7.1 1 1.5 2.1 2.9 3.2 4.3 0 .1.1.1.2.2l.6.6c.1.1.2.2.4.2l.1.1c0 .5-.1 1-.1 1.6-.1 2.7-.2 5.3-.2 8v7.8c-.7-1.9-1.6-3.7-2.7-5.4-.5-.9-1.1-1.7-1.7-2.5-.2-.3-.4-.5-.7-.8-1.3-1.7-3.2-2.9-5.3-3.4-.2 0-.4.1-.6.4-.1.2-.2.5-.1.8.6 2.4 1.4 4.8 2.5 7.1v.1c.8 1.7 1.7 3.4 2.8 4.9 1.4 2.1 3.4 3.7 5.7 4.6 0 .7 0 1.4.1 2.1 0 2 .1 4 .2 6.1 0 1.5.1 2.9.2 4.4s.1 2.8.2 4.2c.1 1.8.2 3.5.3 5.2.2 2.9.4 5.8.5 8.6h1.5c-.1-1.3-.1-2.6-.2-3.9-.1-1.7-.2-3.3-.3-5l-.3-5.1c-.1-1.4-.1-2.9-.2-4.3-.1-1.8-.2-3.6-.2-5.4-.1-2.1-.1-4.2-.2-6.3v-1.5l.8-.1 1.2-.3.2-.1.4-.2c.6-.2 1.1-.4 1.7-.7.9-.4 1.7-.9 2.5-1.5.1 0 .1-.1.1-.1.1-.1.2-.1.2-.2.7-.5 1.4-1.1 1.9-1.8 1.4-1.6 2.7-3.3 3.9-5.1.3-.4.2-1-.2-1.3l-.1-.1c-.3-.2-.6-.3-.9-.4-.5-.1-1-.2-1.5-.2s-1 .1-1.5.2c-1.1.3-2.1.7-3 1.3-.6.4-1.2.8-1.7 1.2-.6.4-1.1.9-1.6 1.5-.8.7-1.4 1.6-2 2.5-.2.2-.3.4-.4.7v-9c0-1.8.1-3.6.1-5.4 0-1.2.1-2.4.1-3.5.1-.1.2-.1.3-.1l1.8-1c2.7-1.4 5-3.3 6.9-5.8 1.2-1.6 3.7-5 .8-6.1-2.4-.9-5.2 1.2-7.1 2.9l-1.8 1.8c-.1.1-.2.2-.3.4 0-.5.1-1 .1-1.5.1-1.9.3-3.7.5-5.5.3-2.9.7-5.8 1.1-8.6.9-.3 1.9-.3 2.8-.6 1.1-.4 2.2-1 3.1-1.7.5-.4.9-.7 1.4-1.1 1.1-1 2.1-2.1 3.1-3.3.9-.9 1.7-2 2.4-3.1.7-1.2.9-2.5-.3-3.4-2.2-1.7-5.9 1-7.9 2.6-1.3 1-2.4 2.2-3.5 3.5 1.2-6.6 2.9-13 4.8-19.4 2.6 1.1 6.5-.8 8.7-2.7 3.7-3.1 5.5-8.1 6.5-12.7.1-.4-.1-.7-.4-.9-.2-.1-.3-.1-.5 0-4.4 1.7-8.3 4.4-11.4 7.8.6-1.6 1.3-3.2 1.9-4.8l2.3-4.8z"/></g></g></g><g id="Group_59"><g id="Group_58"><path id="Path_67" d="M457.4 378.2c-13.7 3.7-28.1 3.7-41.8 0-2.5-18.2-5-36.5-7.8-54.7h57.5c-2.8 18.2-5.4 36.5-7.9 54.7z" fill="#bbbdbf"/></g><path id="Path_68" d="M465.2 323.5h-57.5l2.6 16.9h52.3l2.6-16.9z" fill="#929497"/><path id="Path_69" class="st10" d="M468 323.5h-63l2 13.1h59l2-13.1z"/><path d="M463.7 334.4h-.1c-.5-.1-.9-.5-.8-1.1l1.1-8c.1-.5.6-.9 1.1-.8.5.1.9.5.8 1.1l-1.1 8c-.1.5-.5.8-1 .8z" opacity=".64" fill="#fff"/><path d="M455.6 372.1h-.1c-.5-.1-.9-.5-.8-1l3.4-28.6c.1-.5.5-.9 1-.8.5.1.9.5.8 1l-3.4 28.6c0 .5-.4.8-.9.8z" opacity=".47" fill="#fff"/></g></g></g></g></g></svg>