<?xml version="1.0" encoding="utf-8"?>
<!-- Generator: Adobe Illustrator 24.1.2, SVG Export Plug-In . SVG Version: 6.00 Build 0)  -->
<svg version="1.1" id="Layer_1" xmlns="http://www.w3.org/2000/svg" xmlns:xlink="http://www.w3.org/1999/xlink" x="0px" y="0px"
	 viewBox="0 0 524 619.6" style="enable-background:new 0 0 524 619.6;" xml:space="preserve">
<style type="text/css">
	.st0{fill:#EE8D1B;}
	.st1{fill:#FFA82F;}
	.st2{fill:#18A2F7;}
	.st3{fill:#D0CCC8;}
	.st4{fill:#F6BD96;}
	.st5{fill:#667CD7;}
	.st6{fill:#576FD2;}
	.st7{fill:#6D6E71;}
	.st8{fill:#D24242;}
	.st9{fill:#2C2C4C;}
	.st10{fill:#4C4C75;}
	.st11{fill:#39395C;}
	.st12{fill:#7E8EE8;}
	.st13{fill:#A6A8AB;}
	.st14{fill:#E7A579;}
	.st15{fill:#ED5830;}
	.st16{fill:#808184;}
	.st17{fill:#D79468;}
	.st18{fill:#A5B4F6;}
	.st19{fill:#20A7F7;}
	.st20{fill:#FA9E9E;}
	.st21{fill:#00B580;}
	.st22{fill:#FF7E19;}
	.st23{fill:#1A1A3A;}
	.st24{fill:#D0D2D3;}
	.st25{fill:#BBBDBF;}
	.st26{fill:#FFFFFF;}
	.st27{fill:#929497;}
	.st28{fill:#58595B;}
</style>
<g id="Layer_2_1_">
	<g id="Layer_1-2">
		<path class="st0" d="M200.4,367.3c0,0-57.8-9-81.1-32.6S91.7,219.5,91.7,219.5L0,239.9v109.3c38.8,72.8,109.6,75.1,109.6,75.1
			l143.1-41.9L200.4,367.3z"/>
		<path class="st1" d="M210.2,365.7c0,0-57.8-9-81.1-32.6s-27.6-115.3-27.6-115.3L0,240.5v85c35,94.5,119.4,97.1,119.4,97.1
			l143.1-41.8L210.2,365.7z"/>
		<path id="Path_139" class="st2" d="M457,309.9v5.2c0,9.6-7.8,17.4-17.4,17.4c-9.6,0-17.3-7.8-17.4-17.4l0,0v-5.2H457z"/>
		<path id="Path_140" class="st2" d="M466.2,328.6c-6,3.3-15.7,5.4-26.6,5.4s-20.6-2.1-26.6-5.4H466.2z"/>
		<g id="Group_120">
			<path id="Path_141" class="st2" d="M431.9,328.4l0.1-1.9c-0.1,0-9.4-0.7-12.2-4.6c-1.2-1.5-1.3-3.6-0.4-5.2
				c2-3.4,8.6-2.2,9.9-1.9l0.4-1.8c-2.1-0.5-9.3-1.6-11.9,2.8c-1.3,2.3-1.1,5.2,0.5,7.3C421.6,327.7,431.5,328.4,431.9,328.4z"/>
		</g>
		<path id="Path_142" class="st3" d="M437.3,270.9c-0.8,0.4-1.6,1-2.3,1.7c-0.7,0.7-1.3,1.6-1.6,2.5c-0.4,1-0.5,2.1-0.4,3.2
			c0.1,1.1,0.6,2.2,1.4,3c0.7,0.7,1.6,1.2,2.6,1.6c0.9,0.3,1.7,0.7,2.5,1.1c0.8,0.4,1.4,0.9,1.9,1.6c0.4,0.7,0.5,1.5,0.3,2.3
			c-0.2,0.7-0.5,1.4-1,2c-0.5,0.6-1,1.2-1.6,1.8c-0.6,0.6-1.3,1.2-2,1.9c-0.7,0.7-1.3,1.5-1.8,2.4c-0.5,1-0.8,2.1-0.9,3.2
			c0,1.1,0.2,2.1,0.6,3.1c0.7,1.8,1.8,3.3,3.2,4.6l0.2-0.1c-0.6-1.7-1-3.4-1.3-5.1c-0.1-0.7-0.1-1.5,0-2.2c0.1-0.7,0.4-1.3,0.8-1.9
			c1-1.4,2-2.7,3.1-4c0.6-0.8,1.2-1.6,1.6-2.5c0.4-1,0.6-2.1,0.5-3.1c-0.1-1-0.5-2-1.1-2.8c-0.6-0.7-1.3-1.4-2.2-1.9
			c-1.5-0.9-2.7-2-3.7-3.4c-0.4-0.6-0.6-1.2-0.7-1.8c-0.1-0.7-0.1-1.5,0-2.2c0.2-0.8,0.4-1.6,0.7-2.3c0.4-0.8,0.8-1.6,1.2-2.4
			L437.3,270.9z"/>
		<path id="Path_143" class="st4" d="M165.2,280.3c16.7,20.9,34.3,39,59.4,48.2c-31.9,5.8-66.5-7.3-86.6-32.8L165.2,280.3z"/>
		<path id="Path_144" class="st5" d="M136.4,220.8c-1.6,1.9,9.5,26.9,11.1,30.5c2.1,4.7,4.6,9.2,7.6,13.5c2.4,3.5,9.2,8.4,10.1,12.1
			c0.3,1.6-0.3,3.3-1.5,4.4c-1.2,1.1-2.5,2.1-3.9,3c-3.2,2.4-5.6,5.8-6.8,9.7c-0.6,2-1.1,4.4-3,5.5c-1.9,1-4,0.2-5.4-1.2
			c-13.3-13.8-25.6-30.6-32.7-48.7L136.4,220.8z"/>
		<path id="Path_145" class="st6" d="M170.9,285.5c-11,2.7-20,10.5-24.2,21c-4.6,0.2-9-2.8-11.1-6.9c-2-4.2-2.2-9.1-0.6-13.4
			c1.7-4.3,4.3-8.2,7.8-11.3c4.6-4.3,11.4-8.2,18-7.4C167.1,268.4,168.8,280.1,170.9,285.5z"/>
		<rect x="98.8" y="404.9" class="st7" width="11.9" height="165.7"/>
		<path id="Path_148" class="st8" d="M90.8,476.8c-0.9,2.9-3.3,5.6-6.4,5.5c-2.2-0.1-3.8-6.5-4.4-8c-1.2-3-1.9-6-2.9-9
			c-1.4-4-1.8-8.7-2.5-12.8c-1-5.5-2.1-10.9-2.7-16.4c-0.5-4-0.7-8.5,1.8-11.7c2.7-3.6,7.7-4.4,12.1-4.9s9.4-1.4,12.1-5l6.4,14.3
			c0.3,0.6,0.5,1.3,0.6,2c-0.1,3.4-14.9,9.9-14,35.4c0.1,3.3,0.9,6.6,0.2,9.8C90.9,476.2,90.8,476.5,90.8,476.8z"/>
		<path id="Path_149" class="st8" d="M276.2,588.5c2.6,1.7,4.5,4.8,3.5,7.7c-0.7,2-57.9,1.8-59.7,0.8c-3.2-1.9-1.9-4.7-1.5-7.6
			c0.5-4,1.4-8,1.7-12c0.1-1.3,0.8-13.6-1.8-13.3l15.5-2.1c0.7-0.2,1.4-0.2,2.1,0c3.2,1.1,5.2,17.1,30,23.4c3.2,0.8,6.6,1,9.5,2.5
			C275.7,588.2,275.9,588.4,276.2,588.5z"/>
		<path id="Path_150" class="st9" d="M87.1,364.8c17.7,13.4,40.2,19.7,62.5,19.9s44.2-5.3,64.9-13.5c19-7.5,31.1-8.5,49.7-17
			c3.7-1.7,6.1-12,1-18.7c-3.2-4.1-1.3-8.2-6.2-8.7c-37.9-3.5-75.6,1.9-112,12.7C126.1,345.7,106,354.2,87.1,364.8z"/>
		<path id="Path_151" class="st10" d="M147.4,433.4c-10.2-4.2-20.4-8.4-30.5-12.7c-9-3.8-18.9-6-27.9-10.3
			c-8.3-4-16.1-9.5-21.4-17.1c-3.4-4.9-5.7-11.1-4.3-16.9c4.8-20.4,40.8-18.9,56.1-16.5c42.1,6.4,94.4,40.9,110.6,81.4
			c8.1,20.3,15.9,91.8,15.9,129.9l-28.1,3.3l-27.3-103.3c-1.7-6.4-3.4-12.9-7.4-18.2c-5.4-7-13.9-10.7-22-14L147.4,433.4z"/>
		<path id="Path_152" class="st11" d="M93.8,410.1c12.3,3.7,25,5.7,37.6,8c17.2,3.2,35.9,6.9,49.7,18.6c7.2,6.2,11.9,14.7,15.7,23.4
			c4,9.4,7.3,19.2,9.7,29.2c2.5,9.7,4.4,19.5,6.4,29.3c2.3,11.4,5,22.6,7.7,33.9c1.7,7,3.3,14.1,4.9,21.2l-7.7,0.9l-27.3-103.3
			c-1.7-6.4-3.4-12.9-7.4-18.2c-5.4-7-13.9-10.7-22-14l-13.6-5.6c-10.2-4.2-20.4-8.4-30.5-12.7c-9-3.8-18.9-6-27.9-10.3
			c-3.9-1.9-7.7-4.1-11.2-6.7C82.9,406.4,88.3,408.5,93.8,410.1z"/>
		<path id="Path_153" class="st12" d="M37.6,210.9c7.2-6.3,15.6-11.1,24.2-15.4c7.9-4,16.5-8.1,25.6-7.9c5.7,0.1,11.4,1.2,16.9,3.1
			c14.4,5.2,26,16.1,32.1,30.2c3.7,8.6,6.2,19.7,5.9,29c-0.4,10.6-2.7,20.8-2.3,31.6c0.4,10.8,2.1,21.4,4.9,31.8
			c1.3,4.9,2.6,11.8,5.2,16.2c2.5,4.2,3.6,6.5,0.6,11.2c-2.3,3.6-6.1,6-9.7,8.3c-8.8,5.5-17.7,11.1-27.3,15c-4.9,1.8-9.9,3.2-15,4.2
			c-5.1,1.1-10.2,3.4-15.2,5.2c-6.2,2.2-13.2,4.5-19.3,2c-6-2.4-9.3-8.4-12.1-14.1c-12.4-25.6-19.8-53.1-27.9-80.3
			C16.6,256.6,17.2,228.6,37.6,210.9z"/>
		<path id="Path_154" class="st13" d="M94.5,202.1l-3.6,2.2c-0.2-0.7-0.3-1.4-0.5-2.2H94.5z"/>
		<g id="Group_127">
			<g id="Group_125">
				<path id="Path_155" class="st4" d="M80,207.9L80,207.9c-8.8-0.2-15.8-7.4-15.7-16.2l0.9-60l31.9,0.5l-0.9,60
					C96.1,201,88.8,208,80,207.9z"/>
				<path id="Path_156" class="st14" d="M67.9,162.2l-2.7-30.4l31.9,0.5l-0.9,60c-0.1,2.6-0.8,5.2-2.1,7.5
					C76.9,194.1,71.3,178.6,67.9,162.2z"/>
				<g id="Group_124">
					<path id="Path_157" class="st4" d="M94.5,195.1c35.5,12.9,44-69.5,7.9-83.5C46.8,90,48.7,178.5,94.5,195.1z"/>
					<path id="Path_158" class="st15" d="M66.6,164.8c-0.1,2.6-0.8,5.1-2,7.4c0.5-0.8-3.4-7.5-3.8-8.6c-3.5-8.2-7-16.7-7.3-25.6
						c-0.1-3,0.2-6.1,1-9c8.6-30.2,51.2-25.1,71.4-11c1.9,1.2,3.5,2.8,4.6,4.6c1.8,3.3,1.1,7.5-1.2,10.5c-4.7,6.3-16.1,9.2-23.6,9.1
						c-8.8,0-17.3-3.4-23.6-9.6c1.4,9.7-3.8,19.2-12.7,23.2c-0.9-1.7-2.5-1.5-4-0.3C67,158.7,66.7,161.4,66.6,164.8z"/>
				</g>
			</g>
			<g id="Group_126">
				<path class="st16" d="M123.5,169.9c-1.7,0-3.3-0.5-4.7-1.4c-3.1-1.9-4-6-2.1-9.1c0.2-0.4,0.5-0.7,0.8-1
					c2.9-3.2,7.6-3.8,11.3-1.6c3.1,1.9,4,6,2.1,9.1c-0.2,0.4-0.5,0.7-0.8,1c-1.4,1.5-3.3,2.5-5.4,2.8
					C124.4,169.8,124,169.8,123.5,169.9z M124.1,157c-2.1,0-4.1,0.9-5.5,2.4c-1,1.1-1.5,2.7-1.4,4.2l0,0c0.2,1.5,1.1,2.9,2.4,3.7
					c3,1.9,6.9,1.3,9.3-1.3c2-2,1.9-5.3-0.1-7.2c-0.3-0.3-0.6-0.5-0.9-0.7C126.8,157.3,125.5,157,124.1,157L124.1,157z"/>
				<path class="st16" d="M103.6,172.5c-1.7,0-3.3-0.5-4.7-1.4c-1.6-1.1-2.7-2.8-3-4.7c-0.5-3.9,2.7-7.6,7.1-8.1s8.4,2.1,9,6
					s-2.7,7.6-7.1,8.1C104.5,172.4,104.1,172.5,103.6,172.5z M104.2,159.6c-0.3,0-0.7,0-1,0.1c-3.6,0.5-6.2,3.4-5.8,6.5l0,0
					c0.2,1.5,1.1,2.8,2.4,3.6c1.5,0.9,3.2,1.3,4.9,1.1c3.6-0.5,6.2-3.4,5.8-6.5C110.1,161.7,107.4,159.6,104.2,159.6z"/>
				
					<rect x="82.5" y="146.7" transform="matrix(0.3305 -0.9438 0.9438 0.3305 -95.8636 186.1951)" class="st16" width="1.6" height="27.9"/>
				<path class="st16" d="M111.5,164l-0.9-1.3c1.8-1.2,4-1.5,6-0.8l-0.5,1.5C114.6,162.9,112.9,163.1,111.5,164z"/>
			</g>
			<path id="Path_161" class="st4" d="M70.2,156.1c-0.5-0.9-1.4-1.6-2.4-1.9c-1-0.3-2.1,0-2.7,0.9c-0.5,1.1-0.5,2.3,0.1,3.3
				c1.3,2.6,3,4.9,5,7L70.2,156.1z"/>
			<path class="st14" d="M113.3,180.5c-0.5,0-0.8-0.4-0.8-0.9c0-0.4,0.3-0.7,0.7-0.8c0.9-0.2,1.7-0.4,2.5-0.8
				c0.4-0.1,0.7-0.3,0.8-0.7c-0.1-0.4-0.2-0.8-0.5-1.1l-0.1-0.1c-2.4-3.8-2-8.7-1.7-12.2c0-0.5,0.5-0.8,0.9-0.8
				c0.5,0,0.8,0.5,0.8,0.9c-0.3,4.3-0.5,8.1,1.4,11.2l0.1,0.1c0.6,0.7,0.8,1.6,0.7,2.5v0.1c-0.3,0.8-1,1.4-1.8,1.7
				c-0.9,0.4-1.9,0.7-2.8,0.9L113.3,180.5z"/>
			<path class="st17" d="M110,185.3c-0.4,0-0.8,0-1.2,0c-0.5,0-0.8-0.4-0.8-0.9c0-0.5,0.4-0.8,0.9-0.8c0,0,0,0,0,0
				c2.3,0.2,4.5-0.2,6.7-0.9c0.4-0.2,0.9,0.1,1.1,0.5c0.2,0.4-0.1,0.9-0.5,1.1l0,0C114.2,185,112.1,185.3,110,185.3z"/>
		</g>
		<path id="Path_164" class="st10" d="M203.5,341.4c22.4-9.4,53.1-23.2,76.4-7.9c7.5,4.9,13.4,13.2,13.7,22.4
			c0.4,9.9-5.8,19-13.7,24.6s-17.3,8.3-26.5,10.9l-72.2,20.5c-14.1,4-28.2,8.9-42.5,12.4c-11,2.7-39.4,13.5-39.4,13.5
			s-8.2-12.5-11.1-23.4C120.8,381.2,161,359.2,203.5,341.4z"/>
		<path id="Path_165" class="st11" d="M171,357.3c-9.8,6-19.3,12.5-28.5,19.4c-4.2,3.3-8.3,6.8-12.5,10.1c-3.8,3-7.8,5.8-11.9,8.6
			c-9.9,6.8-20.4,13.4-29.2,21.6c-0.3-0.9-0.6-1.8-0.8-2.7c27-27.5,59.2-47.3,93.6-63.4C178.2,353.1,174.5,355.1,171,357.3z"/>
		<path id="Path_166" class="st11" d="M110.3,433.3c11.8-4.4,23.8-7.9,35.6-12c20.7-7.3,40.4-17.2,60.4-26.1
			c11.9-5.3,24.4-9.2,36.4-14.2c11.8-4.9,24-10.6,33.1-19.8c4.1-4,7.3-8.9,9.4-14.2c0.8-2.3,1.3-4.7,1.6-7.1
			c4,4.5,6.3,10.1,6.7,16.1c0.4,9.9-5.8,19-13.7,24.6s-17.3,8.3-26.5,10.9L181.2,412c-14.1,4-28.2,8.9-42.5,12.4
			c-11,2.7-39.4,13.5-39.4,13.5l-0.1-0.1C102.9,436.2,106.6,434.7,110.3,433.3z"/>
		<g id="Group_128">
			<path id="Path_167" class="st4" d="M68.5,295.1c1.7,0.9,3.1,2.4,3.9,4.2c5.7,10.7,16.8,18,27.2,24.3c5.8,3.5,11.9,6.6,18.1,9.3
				c3.5,1.5,13.5,7.1,17.2,6c-20,5.6-36,0.8-55-4.7c-15.3-4.4-28.7-11.7-37.9-25.4c-2.4-3.5,11.6-10,13.6-10.9
				C60.4,295.5,64.9,293.3,68.5,295.1z"/>
			<path id="Path_168" class="st12" d="M27.6,240c0.6-3.8,2.1-7.5,4.4-10.7c6.1-8.4,15.7-7,21.1,1c1.9,3,3.3,6.3,4.2,9.8
				c3.9,13,5.1,26.2,7.7,39.4c1,4.9,2.1,10,4.3,14.5c-10.4,0.2-21.2,6.2-27.3,14.8c-2.3-3.4-4.3-7-5.9-10.8
				c-4.9-11.3-7.1-23.6-8.3-35.8C27.1,255.3,26.3,247.3,27.6,240z"/>
			<path id="Path_169" class="st18" d="M56.4,253.6c-1.1-6.3-1.9-12.7-3.8-18.9c-0.9-3.2-2.2-6.2-4-8.9c1.8,1.2,3.3,2.8,4.5,4.6
				c1.9,3,3.3,6.3,4.2,9.8c3.9,13,5.1,26.2,7.7,39.4c1,4.9,2.1,10,4.3,14.5c-2.7,0.1-5.4,0.5-8.1,1.3
				C58.6,281.6,58.8,267.4,56.4,253.6z"/>
			<path id="Path_170" class="st6" d="M37.2,300.3c-0.4-0.8-0.8-1.5-1.1-2.3c-4.6-10.6-6.8-22.1-8-33.6c0.9,2.3,1.8,4.6,2.9,6.9
				c2.4,5.2,8.5,21.4,10,23.4C38.3,297,38.8,297.4,37.2,300.3z"/>
			<path id="Path_171" class="st6" d="M75.6,300.9c-11,2.7-20,10.5-24.2,21c-4.6,0.2-9-2.8-11.1-6.9c-2-4.2-2.2-9.1-0.6-13.4
				c1.7-4.3,4.3-8.2,7.8-11.2c4.6-4.3,11.4-8.2,18-7.4C71.8,283.8,73.6,295.5,75.6,300.9z"/>
		</g>
		<path id="Path_172" class="st7" d="M104.8,566.9l72.8,13.6H31.9L104.8,566.9z"/>
		<path id="Path_173" class="st4" d="M136.1,327.9c7.1,0.5,13.9,3.4,19.3,8.1c-12.5,2.1-25.5,4.2-37.8,1.1c-7.4-1.9-0.7-4.9,2.4-6.1
			C125.1,328.7,130.6,327.6,136.1,327.9z"/>
		
			<rect x="476.8" y="339.8" transform="matrix(0.9686 -0.2485 0.2485 0.9686 -104.4286 135.1071)" class="st3" width="12.3" height="282.6"/>
		
			<rect x="269.1" y="475.1" transform="matrix(0.2485 -0.9686 0.9686 0.2485 -157.6958 759.1299)" class="st3" width="282.6" height="12.3"/>
		<path id="Path_174" class="st16" d="M379.6,249.5l0.6,1.6h-1.1L379.6,249.5z"/>
		<path id="Path_175" class="st1" d="M377.8,255.2l1.4-4.1h1.1l1.4,4.1v0.1L377.8,255.2L377.8,255.2z"/>
		<path id="Path_176" class="st16" d="M381.6,255.3l-1.2,51.5l-3.9-0.1l1.2-51.5L381.6,255.3z"/>
		<path id="Path_177" class="st19" d="M363.3,267l6.6,38.8c0.3,1.6-0.8,3-2.3,3.3c0,0,0,0,0,0l0,0c-0.2,0-0.3,0-0.5,0
			c-1.4,0-2.6-1-2.8-2.4l-6.6-38.7L363.3,267z"/>
		<path id="Path_178" class="st20" d="M356.5,261.5c-0.3-1.6,0.7-3.1,2.2-3.4c1.6-0.3,3.1,0.7,3.4,2.2c0,0.1,0,0.1,0,0.2l0.5,2.6
			l-5.6,1.1L356.5,261.5z"/>
		<path id="Path_179" class="st3" d="M362.6,263.2l0.6,3.8l-5.7,1.1l-0.6-3.8L362.6,263.2z"/>
		<path id="Path_180" class="st21" d="M393.5,268.2l-4.4,36.3c-0.2,1.5-1.5,2.5-3,2.3c0,0,0,0,0,0c-0.2,0-0.3,0-0.4-0.1
			c-1.2-0.4-2-1.6-1.9-2.9l4.4-36.2L393.5,268.2z"/>
		<path id="Path_181" class="st20" d="M389,261.6c0.2-1.5,1.5-2.5,3-2.3c1.4,0.2,2.5,1.5,2.3,2.9l-0.3,2.5l-5.3-0.6L389,261.6z"/>
		<path id="Path_182" class="st3" d="M394,264.7l-0.4,3.6l-5.3-0.6l0.4-3.6L394,264.7z"/>
		
			<rect x="370.8" y="279.9" transform="matrix(0.2255 -0.9743 0.9743 0.2255 21.9878 593.366)" class="st22" width="26.7" height="6"/>
		<path id="Path_183" class="st21" d="M374.9,259.4l0.5,1.7l-1.1-0.1L374.9,259.4z"/>
		<path id="Path_184" class="st1" d="M372.7,264.9l1.6-4l1.1,0.1l1.2,4.2v0.1L372.7,264.9L372.7,264.9z"/>
		<path id="Path_185" class="st23" d="M376.5,265.3l-3.9,51.4l-3.8-0.3l3.9-51.4L376.5,265.3z"/>
		<path id="Path_186" class="st2" d="M402,259.9l0.2,1.8l-1.1-0.3L402,259.9z"/>
		<path id="Path_187" class="st1" d="M398.7,265.3l2.3-3.9l1.1,0.3l0.5,4.6v0.1L398.7,265.3L398.7,265.3z"/>
		<path id="Path_188" class="st2" d="M402.7,266.3l-12.8,53.1l-4-1l12.8-53.1L402.7,266.3z"/>
		<path id="Path_189" class="st1" d="M367.8,254.3l0.6,1.6h-1.1L367.8,254.3z"/>
		<path id="Path_190" class="st24" d="M366.2,260.1l1.1-4.1h1.1l1.6,4v0.1L366.2,260.1L366.2,260.1z"/>
		<path id="Path_191" class="st1" d="M370,260l1.6,51.5l-3.9,0.1l-1.6-51.5L370,260z"/>
		<path id="Path_192" class="st15" d="M367.9,334.7H390l7.7-42.9h-37.5L367.9,334.7z"/>
		<path id="Path_193" class="st25" d="M166.9,334.8h146.7l20.3-96.7H187.2L166.9,334.8z"/>
		<circle id="Ellipse_6" class="st26" cx="250.4" cy="286.4" r="4.9"/>
		<polygon class="st3" points="0,499.1 0,548.5 18.2,619.6 30.1,616.5 		"/>
		<rect y="329.1" class="st22" width="489.2" height="29.9"/>
	</g>
</g>
<g id="Group_119" transform="translate(422.696 1.538)">
	<g id="Group_115">
		<path id="Path_107" class="st13" d="M-14.8,54.6C-14.9,24.4-39.5-0.1-69.7,0c-30.2,0.1-54.7,24.6-54.6,54.9
			c0.1,30.2,24.6,54.7,54.8,54.6c0,0,0,0,0,0C-39.2,109.4-14.8,84.8-14.8,54.6z"/>
		<g>
			<path id="Path_108_1_" class="st26" d="M-10.4,54.7C-10.4,24.9-34.7,0.8-64.5,0.9c-29.8,0.1-53.9,24.3-53.8,54.1
				c0.1,29.8,24.3,53.9,54.1,53.8c0,0,0,0,0,0C-34.4,108.7-10.3,84.5-10.4,54.7z"/>
			<path class="st27" d="M-64.3,111.2c-31,0-56.3-25.2-56.4-56.3c-0.1-31.1,25.2-56.4,56.3-56.5c15.1,0,29.2,5.8,39.9,16.4
				C-13.9,25.5-8,39.7-8,54.7v0c0,31-25.2,56.4-56.2,56.5C-64.3,111.2-64.3,111.2-64.3,111.2z M-64.3,3.3c0,0-0.1,0-0.1,0
				c-28.4,0.1-51.5,23.2-51.4,51.7c0,13.8,5.4,26.7,15.2,36.4c9.7,9.7,22.6,15,36.4,15c0,0,0.1,0,0.1,0
				c28.4-0.1,51.5-23.3,51.4-51.7C-12.8,41-18.2,28-28,18.3C-37.7,8.6-50.6,3.3-64.3,3.3z"/>
		</g>
		<g id="Group_114" transform="translate(11.921 6.6)">
			<g id="Group_86" transform="translate(1.166 57.807)">
				<path id="Path_109" class="st16" d="M-120.7,0.2c0-0.1-0.2-0.2-0.3-0.2l-3.1,0.7c-0.1,0-0.2,0.2-0.2,0.3c0,0,0,0,0,0
					c0,0.1,0.2,0.2,0.3,0.2l3.1-0.7C-120.7,0.4-120.6,0.3-120.7,0.2C-120.7,0.2-120.7,0.2-120.7,0.2z"/>
			</g>
			<g id="Group_87" transform="translate(4.677 67.251)">
				<path id="Path_110" class="st16" d="M-120.9,0.1C-121,0-121.1,0-121.2,0l-2.9,1.4c-0.1,0.1-0.2,0.2-0.1,0.3c0,0,0,0,0,0
					c0.1,0.1,0.2,0.2,0.3,0.1l2.9-1.4C-120.9,0.4-120.9,0.3-120.9,0.1z"/>
			</g>
			<g id="Group_88" transform="translate(10.321 75.748)">
				<path id="Path_111" class="st16" d="M-121.3,0.1c-0.1-0.1-0.2-0.1-0.3,0c0,0,0,0,0,0l-2.5,2c-0.1,0.1-0.1,0.2,0,0.4
					c0.1,0.1,0.2,0.1,0.3,0.1c0,0,0,0,0,0l2.5-2C-121.3,0.3-121.3,0.2-121.3,0.1z"/>
			</g>
			<g id="Group_89" transform="translate(17.83 82.883)">
				<path id="Path_112" class="st16" d="M-121.9,0c-0.1-0.1-0.3-0.1-0.3,0l-2,2.5c-0.1,0.1-0.1,0.3,0,0.3c0,0,0,0,0,0
					c0.1,0.1,0.3,0.1,0.4,0l2-2.5C-121.7,0.3-121.8,0.1-121.9,0C-121.9,0.1-121.9,0-121.9,0z"/>
			</g>
			<g id="Group_90" transform="translate(26.89 88.226)">
				<path id="Path_113" class="st16" d="M-122.5,0c-0.1-0.1-0.3,0-0.3,0.1l-1.4,2.9c-0.1,0.1,0,0.3,0.1,0.3c0,0,0,0,0,0
					c0.1,0.1,0.3,0,0.3-0.1c0,0,0,0,0,0l1.4-2.9C-122.4,0.2-122.4,0.1-122.5,0z"/>
			</g>
			<g id="Group_91" transform="translate(36.99 91.579)">
				<path id="Path_114" class="st16" d="M-123.3,0c-0.1,0-0.3,0-0.3,0.2c0,0,0,0,0,0l-0.7,3.1c0,0.1,0.1,0.3,0.2,0.3
					c0.1,0,0.3,0,0.3-0.2c0,0,0,0,0,0l0.7-3.1C-123.1,0.2-123.1,0-123.3,0z"/>
			</g>
			<g id="Group_92" transform="translate(47.637 92.761)">
				<path id="Path_115" class="st16" d="M-124,0c-0.1,0-0.2,0.1-0.2,0.2c0,0,0,0,0,0l0,3.2c0,0.1,0.1,0.3,0.3,0.3
					c0.1,0,0.2-0.1,0.3-0.2c0,0,0,0,0,0l0-3.2C-123.8,0.1-123.9,0-124,0z"/>
			</g>
			<g id="Group_93" transform="translate(57.605 91.654)">
				<path id="Path_116" class="st16" d="M-124.1,0c-0.1,0-0.2,0.2-0.2,0.3l0.7,3.1c0,0.1,0.2,0.2,0.3,0.2c0,0,0,0,0,0
					c0.1,0,0.2-0.2,0.2-0.3l-0.7-3.1C-123.9,0.1-124,0-124.1,0C-124.1,0-124.1,0-124.1,0z"/>
			</g>
			<g id="Group_94" transform="translate(67.033 88.347)">
				<path id="Path_117" class="st16" d="M-124.2,0c-0.1,0.1-0.2,0.2-0.1,0.3l1.4,2.9c0.1,0.1,0.2,0.2,0.3,0.1
					c0.1-0.1,0.2-0.2,0.1-0.3l-1.4-2.9C-123.9,0-124,0-124.2,0z"/>
			</g>
			<g id="Group_95" transform="translate(75.499 83.045)">
				<path id="Path_118" class="st16" d="M-124.2,0c-0.1,0.1-0.1,0.2,0,0.3c0,0,0,0,0,0l2,2.5c0.1,0.1,0.2,0.1,0.4,0
					c0.1-0.1,0.1-0.2,0.1-0.3c0,0,0,0,0,0l-2-2.5C-123.9,0-124.1,0-124.2,0z"/>
			</g>
			<g id="Group_96" transform="translate(82.586 75.976)">
				<path id="Path_119" class="st16" d="M-124.3,0.1c-0.1,0.1-0.1,0.3,0.1,0.3l2.5,2c0.1,0.1,0.3,0.1,0.3,0c0,0,0,0,0,0
					c0.1-0.1,0.1-0.3,0-0.4l-2.5-2C-124,0-124.2,0-124.3,0.1C-124.2,0.1-124.2,0.1-124.3,0.1z"/>
			</g>
			<g id="Group_97" transform="translate(87.884 67.503)">
				<path id="Path_120" class="st16" d="M-124.3,0.1c-0.1,0.1,0,0.3,0.1,0.3l2.9,1.4c0.1,0.1,0.3,0,0.3-0.1c0,0,0,0,0,0
					c0.1-0.1,0-0.3-0.1-0.3L-124,0C-124.1,0-124.2,0-124.3,0.1z"/>
			</g>
			<g id="Group_98" transform="translate(91.202 58.077)">
				<path id="Path_121" class="st16" d="M-124.3,0.2c0,0.1,0,0.3,0.2,0.3c0,0,0,0,0,0l3.1,0.7c0.1,0,0.3-0.1,0.3-0.2
					c0-0.1,0-0.3-0.2-0.3c0,0,0,0,0,0L-124,0C-124.1,0-124.3,0.1-124.3,0.2z"/>
			</g>
			<g id="Group_99" transform="translate(92.369 48.132)">
				<path id="Path_122" class="st16" d="M-124.3,0.2c0,0.1,0.1,0.2,0.2,0.2c0,0,0,0,0,0l3.2,0c0.1,0,0.3-0.1,0.3-0.3
					c0-0.1-0.1-0.2-0.2-0.3c0,0,0,0,0,0l-3.2,0C-124.2,0-124.3,0.1-124.3,0.2z"/>
			</g>
			<g id="Group_100" transform="translate(91.276 37.477)">
				<path id="Path_123" class="st16" d="M-124.3,1c0,0.1,0.2,0.2,0.3,0.2l3.1-0.7c0.1,0,0.2-0.2,0.2-0.3c0,0,0,0,0,0
					c0-0.1-0.2-0.2-0.3-0.2l-3.1,0.7C-124.2,0.7-124.3,0.9-124.3,1C-124.3,1-124.3,1-124.3,1z"/>
			</g>
			<g id="Group_101" transform="translate(88.004 27.348)">
				<path id="Path_124" class="st16" d="M-124.3,1.7c0.1,0.1,0.2,0.2,0.3,0.1l2.9-1.4c0.1-0.1,0.2-0.2,0.1-0.3c0,0,0,0,0,0
					C-121,0-121.1,0-121.3,0l-2.9,1.4C-124.3,1.5-124.3,1.6-124.3,1.7z"/>
			</g>
			<g id="Group_102" transform="translate(82.746 18.234)">
				<path id="Path_125" class="st16" d="M-124.3,2.4c0.1,0.1,0.2,0.1,0.3,0c0,0,0,0,0,0l2.5-2c0.1-0.1,0.1-0.2,0-0.4
					c-0.1-0.1-0.2-0.1-0.3-0.1c0,0,0,0,0,0l-2.5,2C-124.3,2.1-124.3,2.3-124.3,2.4z"/>
			</g>
			<g id="Group_103" transform="translate(75.725 10.604)">
				<path id="Path_126" class="st16" d="M-124.2,2.9c0.1,0.1,0.3,0.1,0.3,0l2-2.5c0.1-0.1,0.1-0.3,0-0.3c0,0,0,0,0,0
					c-0.1-0.1-0.3-0.1-0.4,0l-2,2.5C-124.3,2.7-124.3,2.8-124.2,2.9C-124.2,2.9-124.2,2.9-124.2,2.9z"/>
			</g>
			<g id="Group_104" transform="translate(67.283 4.864)">
				<path id="Path_127" class="st16" d="M-124.2,3.4c0.1,0.1,0.3,0,0.3-0.1l1.4-2.9c0.1-0.1,0-0.3-0.1-0.3c0,0,0,0,0,0
					c-0.1-0.1-0.3,0-0.3,0.1c0,0,0,0,0,0l-1.4,2.9C-124.3,3.2-124.3,3.3-124.2,3.4z"/>
			</g>
			<g id="Group_105" transform="translate(57.874 1.263)">
				<path id="Path_128" class="st16" d="M-124.1,3.6c0.1,0,0.3,0,0.3-0.2c0,0,0,0,0,0l0.7-3.1c0-0.1-0.1-0.3-0.2-0.3
					c-0.1,0-0.3,0-0.3,0.2c0,0,0,0,0,0l-0.7,3.1C-124.3,3.5-124.2,3.6-124.1,3.6z"/>
			</g>
			<g id="Group_106" transform="translate(47.936)">
				<path id="Path_129" class="st16" d="M-124.1,3.7c0.1,0,0.2-0.1,0.2-0.2c0,0,0,0,0,0l0-3.2c0-0.1-0.1-0.3-0.3-0.3
					c-0.1,0-0.2,0.1-0.3,0.2c0,0,0,0,0,0l0,3.2C-124.3,3.6-124.2,3.7-124.1,3.7z"/>
			</g>
			<g id="Group_107" transform="translate(37.279 1.182)">
				<path id="Path_130" class="st16" d="M-123.3,3.6c0.1,0,0.2-0.2,0.2-0.3l-0.7-3.1c0-0.1-0.2-0.2-0.3-0.2c0,0,0,0,0,0
					c-0.1,0-0.2,0.2-0.2,0.3l0.7,3.1C-123.5,3.6-123.4,3.7-123.3,3.6C-123.3,3.6-123.3,3.6-123.3,3.6z"/>
			</g>
			<g id="Group_108" transform="translate(27.16 4.732)">
				<path id="Path_131" class="st16" d="M-122.5,3.4c0.1-0.1,0.2-0.2,0.1-0.3l-1.4-2.9C-123.9,0-124,0-124.2,0s-0.2,0.2-0.1,0.3
					l1.4,2.9C-122.8,3.4-122.7,3.4-122.5,3.4z"/>
			</g>
			<g id="Group_109" transform="translate(18.075 10.427)">
				<path id="Path_132" class="st16" d="M-121.9,3c0.1-0.1,0.1-0.2,0-0.3c0,0,0,0,0,0l-2-2.5c-0.1-0.1-0.2-0.1-0.4,0
					c-0.1,0.1-0.1,0.2-0.1,0.3c0,0,0,0,0,0l2,2.5C-122.1,3-122,3-121.9,3z"/>
			</g>
			<g id="Group_110" transform="translate(10.496 17.988)">
				<path id="Path_133" class="st16" d="M-121.3,2.4c0.1-0.1,0.1-0.3-0.1-0.3l-2.5-2c-0.1-0.1-0.3-0.1-0.3,0c0,0,0,0,0,0
					c-0.1,0.1-0.1,0.3,0,0.4l2.5,2C-121.6,2.5-121.4,2.5-121.3,2.4C-121.3,2.4-121.3,2.4-121.3,2.4z"/>
			</g>
			<g id="Group_111" transform="translate(4.807 27.076)">
				<path id="Path_134" class="st16" d="M-120.9,1.8c0.1-0.1,0-0.3-0.1-0.3l-2.9-1.4c-0.1-0.1-0.3,0-0.3,0.1c0,0,0,0,0,0
					c-0.1,0.1,0,0.3,0.1,0.3c0,0,0,0,0,0l2.9,1.4C-121.1,1.9-121,1.9-120.9,1.8z"/>
			</g>
			<g id="Group_112" transform="translate(1.246 37.187)">
				<path id="Path_135" class="st16" d="M-120.7,1c0-0.1,0-0.3-0.2-0.3c0,0,0,0,0,0L-124,0c-0.1,0-0.3,0.1-0.3,0.2
					c0,0.1,0,0.3,0.2,0.3c0,0,0,0,0,0l3.1,0.7C-120.8,1.2-120.7,1.2-120.7,1z"/>
			</g>
			<g id="Group_113" transform="translate(0 47.832)">
				<path id="Path_136" class="st16" d="M-120.6,0.3c0-0.1-0.1-0.2-0.2-0.2c0,0,0,0,0,0l-3.2,0c-0.1,0-0.3,0.1-0.3,0.3
					c0,0.1,0.1,0.2,0.2,0.3c0,0,0,0,0,0l3.2,0C-120.7,0.5-120.6,0.4-120.6,0.3z"/>
			</g>
		</g>
	</g>
	<ellipse id="Ellipse_4" class="st28" cx="-64.3" cy="56.5" rx="5.2" ry="5.2"/>
	<g id="Group_118" transform="translate(27.661 21.685)">
		<g id="Group_116" transform="translate(0 20.154)">
			<path id="Path_137" class="st28" d="M-91.1,17.6c1.4,0,2.5-1.1,2.5-2.5c0-1-0.6-1.9-1.5-2.3l-30.7-12.7c-1.3-0.5-2.7,0.1-3.2,1.3
				c-0.5,1.3,0.1,2.7,1.3,3.2l30.7,12.7C-91.8,17.5-91.5,17.6-91.1,17.6z"/>
		</g>
		<g id="Group_117" transform="translate(31.424)">
			<path id="Path_138" class="st28" d="M-122.6,37c0.6,0,1.1-0.3,1.5-0.8l22-33.5c0.5-0.8,0.3-1.9-0.5-2.4c-0.8-0.5-1.9-0.3-2.4,0.5
				l-22,33.5c-0.5,0.8-0.3,1.9,0.5,2.4C-123.2,36.9-122.9,37-122.6,37L-122.6,37z"/>
		</g>
	</g>
</g>
</svg>
