<?xml version="1.0" encoding="utf-8"?>
<!-- Generator: Adobe Illustrator 24.1.2, SVG Export Plug-In . SVG Version: 6.00 Build 0)  -->
<svg version="1.1" id="Layer_1" xmlns="http://www.w3.org/2000/svg" xmlns:xlink="http://www.w3.org/1999/xlink" x="0px" y="0px"
	 viewBox="0 0 504.6 413.2" style="enable-background:new 0 0 504.6 413.2;" xml:space="preserve">
<style type="text/css">
	.st0{fill:#3A3942;}
	.st1{fill:#00B580;}
	.st2{fill:#0A8E6D;}
	.st3{fill:#0B7C5C;}
	.st4{fill:#BBBDBF;}
	.st5{fill:#929497;}
	.st6{fill:#D0D2D3;}
	.st7{opacity:0.64;fill:#FFFFFF;enable-background:new    ;}
	.st8{opacity:0.47;fill:#FFFFFF;enable-background:new    ;}
	.st9{fill:#F6BD96;}
	.st10{fill:#091A4C;}
	.st11{fill:#FFA82F;}
	.st12{fill:#EE8D1B;}
	.st13{fill:#E7A579;}
	.st14{fill:#ED5830;}
	.st15{fill:#D73B1D;}
	.st16{fill:#FFCB71;}
	.st17{fill:#39395C;}
</style>
<g id="Layer_2_1_">
	<g id="Layer_1-2">
		<g id="Group_257">
			<g id="Group_249">
				<g id="Group_238">
					<g id="Group_235">
						<path id="Path_397" class="st0" d="M366.5,340h-0.2c-1.1,0-2.1-0.9-2-2.1c0,0,0,0,0,0l0,0l1.4-117c0-1.1,0.9-2.1,2.1-2.1
							s2.1,0.9,2.1,2.1l-1.4,117C368.4,339,367.6,340,366.5,340z"/>
					</g>
					<g id="Group_236">
						<path id="Path_398" class="st0" d="M317,359.7c-0.1,0-0.3,0-0.4,0c-1.1-0.2-1.8-1.3-1.6-2.4c0,0,0,0,0,0l29-142.1
							c0.4-1.1,1.5-1.7,2.6-1.3c0.9,0.3,1.5,1.2,1.4,2.1l-29,142.1C318.8,359,318,359.7,317,359.7z"/>
					</g>
					<g id="Group_237">
						<path id="Path_399" class="st0" d="M432.8,359.7c-1,0-1.8-0.7-2-1.7l-29-142.1c-0.2-1.1,0.5-2.2,1.6-2.4
							c1.1-0.2,2.2,0.5,2.4,1.6l29,142.1c0.2,1.1-0.5,2.2-1.6,2.5C433.1,359.7,432.9,359.7,432.8,359.7z"/>
					</g>
					<ellipse id="Ellipse_28" class="st0" cx="372.3" cy="208.7" rx="45.4" ry="16.5"/>
					<path class="st0" d="M374.9,289.6c-11.3,0-21.9-1.1-29.9-3.2c-9.5-2.5-14.3-6-14.3-10.5c0-4.5,4.8-8,14.3-10.5
						c8-2.1,18.6-3.2,29.9-3.2s21.9,1.1,29.9,3.2c9.5,2.5,14.3,6,14.3,10.5c0,4.5-4.8,8-14.3,10.5
						C396.8,288.5,386.2,289.6,374.9,289.6z M374.9,268.2c-25.3,0-37.8,5.6-38.2,7.7c0.4,2.1,12.9,7.7,38.2,7.7s37.8-5.6,38.2-7.7
						C412.7,273.8,400.3,268.2,374.9,268.2z"/>
				</g>
				<g id="Group_246">
					<g id="Group_245">
						<g id="Group_239">
							<path id="Path_400" class="st1" d="M389.3,98.8c0-0.3-0.2-0.5-0.4-0.7c-0.1-0.1-0.3-0.2-0.5-0.3c-0.4-0.1-0.8-0.2-1.2-0.2
								c0,0-0.1,0-0.1,0c-2.3-0.1-4.5,0.5-6.4,1.7c-3.8,2.3-7,5.6-9.2,9.4c-0.3-2.4-0.6-4.7-1-7.1c-0.4-2.6-0.8-5.2-1.3-7.8
								c-0.1-0.4-0.1-0.8-0.2-1.2c-0.3-1.6-0.6-3.2-1-4.8c0.5-0.4,1.1-0.8,1.6-1.2c3.5-2.9,6.5-5.8,8.3-10.5
								c0.3-0.8,0.6-1.7,0.8-2.6c0.6-2.6,0.6-5.4-2.7-5.2c-3.7,0.2-6.4,4.2-8.2,7l-0.1,0.2c-0.6,1-1.2,2.1-1.8,3.2
								c-0.8-3.2-1.7-6.3-2.6-9.5c-0.8-2.5-1.6-4.9-2.4-7.4c-0.1-0.3-0.2-0.6-0.3-0.8c0.1-0.1,0.1-0.1,0.2-0.2c1-0.8,2.1-1.4,3-2.3
								c0.8-0.7,1.5-1.6,2-2.5c0.3-0.5,0.6-0.9,0.8-1.5c1.2-2.7,1.9-5.5,2.2-8.3c0.3-1.8,0.3-3.7,0.1-5.5c-0.3-2-1.4-3.5-3.4-3.3
								c-4,0.5-5.5,6.5-6.6,9.7c-0.6,2-1.1,4-1.5,6.1c-3.1-7.2-7-14.1-11.5-20.6c3.5-2.1,5.1-7.8,4.5-11.9c-0.2-1.7-0.7-3.3-1.5-4.9
								c-0.8-1.6-1.8-3-3-4.4c-1.3-1.3-2.6-2.6-4.1-3.7c-1.4-1.1-3-2-4.6-2.8c-0.5-0.3-1.1-0.1-1.4,0.4c-0.1,0.2-0.2,0.4-0.1,0.6
								c1.2,6.3,1.9,12.6,3.7,18.2c-2.7-3-5.5-5.8-8.6-8.4c-1.8-4.9-5-9.1-9.1-12.2c-4.5-3.3-10.2-4.4-15.6-3.2
								c-0.5,0.2-0.8,0.7-0.6,1.2c0,0,0,0.1,0,0.1c0.6,1.4,1.5,2.7,2.5,3.8c0.5,0.5,1,1,1.5,1.5c0.5,0.5,1,1,1.6,1.4
								c2.3,1.7,4.7,3.2,7,4.6c1.3,0.8,2.6,1.5,4,2.1c1.3,0.7,2.8,1.3,4.2,1.9s2.7,1.2,4,1.9c1.3,0.7,2.5,1.5,3.6,2.6
								c2.2,2.1,4.2,4.4,6.1,6.8c-1.6-1-3.3-1.7-5.2-2.2c-1.7-0.5-3.6-0.8-5.4-0.7c-3.6,0.1-7,1.8-9.3,4.6c-0.4,0.3-0.4,0.9-0.1,1.2
								c0.1,0.1,0.1,0.1,0.2,0.2c3.5,1.6,7.1,2.8,10.9,3.5c4.4,0.8,8.9,1,12.6-1.6l0.2,0.3c0,0.1,0.1,0.1,0.2,0.2
								c4.8,6.9,8.9,14.3,12.1,22.1c-1.4-1.3-2.8-2.4-4.4-3.3c-2.2-1.6-4.7-2.8-7.3-3.6c-2.6-0.8-5.3-1.2-8-1c-0.6,0.1-1,0.6-1,1.2
								c0,0,0,0,0,0.1c0.3,2.3,1.6,4.4,3.4,5.8c0.3,0.2,0.5,0.5,0.8,0.7c1.7,1.2,3.5,2.2,5.4,3c0.8,0.3,1.7,0.6,2.6,0.8
								c3.5,0.8,7.5,1,10.2,3.4c4.4,3.9,3.5,11.9,5.9,16.9c0,0.1,0.1,0.2,0.1,0.3c-0.1-0.1-0.1-0.2-0.2-0.3c-3-5.6-8.5-10.8-14-13.1
								c-1.5-0.6-3.1-1.1-4.7-1.2c-0.5-0.1-1.1,0.3-1.2,0.8c-0.7,5.2,2.2,9.4,6.3,13c0.5,0.4,0.9,0.8,1.4,1.1
								c1.6,1.2,3.2,2.4,4.9,3.4l1.9,1.2c2,1.2,3.9,2.2,5.6,3.1c0.1,0.1,0.2,0.1,0.3,0.2c0.3,0.2,0.7,0.3,1,0.5
								c0.1,0,0.2,0.1,0.3,0.1c0.1,0,0.2,0,0.3,0c0,0,0.1,0.1,0.2,0.1c0.4,1.8,0.7,3.5,1.1,5.3c0,0.1,0,0.2,0.1,0.3
								c0.5,2.8,1,5.6,1.4,8.4c0.3,1.7,0.5,3.4,0.7,5.1c0,0.2,0.1,0.4,0.1,0.6c-0.1-0.2-0.2-0.3-0.4-0.5c-0.3-0.4-0.6-0.8-0.9-1.2
								c-0.5-0.6-1-1.3-1.5-1.8c-1.4-1.6-3-3-4.8-4.2c-1.6-1.1-3.4-2-5.3-2.4l0,0c-1.3-0.4-2.7-0.5-4-0.4c-0.4,0.1-0.8,0.4-0.8,0.9
								c-0.1,0.2,0,0.4,0.1,0.5c0.7,1,1.4,2.1,2.1,3.2c2.8,4,6.3,8.2,10.7,10.7c0.6,0.3,1.2,0.6,1.8,0.9c0.1,0,0.1,0.1,0.2,0.1
								c0.4,0.2,0.9,0.4,1.3,0.5h0.1c0.3,0.1,0.6,0.2,0.9,0.3c0.4,0.1,0.8,0.2,1.2,0.3c0.2,0,0.4,1.7,0.5,3.8l0,0
								c0.1,1.2,0.1,2.5,0.1,3.7c0.1,1.8,0.1,3.4,0.1,3.8v0.3c0,0.2,0,0.4,0,0.6c0,0.3,0,0.6,0,1c0,0.2,0,0.4,0,0.6
								c0,1.5,0.1,2.9,0.1,4.4c0,0.8,0,1.7,0,2.5s0,1.9,0,2.8s0,1.7-0.1,2.5c0,0.2,0,0.4,0,0.6c0,1.6-0.1,3.1-0.2,4.7
								c-0.2,3.7-0.7,7.4-1.4,11l0,0c-0.1,0.7-0.3,1.4-0.5,2.1c0,0.2-0.1,0.4-0.1,0.6c-0.1,0.5-0.3,1-0.4,1.6h0.8h0.5
								c0.7,0,1.4,0,2.1,0l0,0c0.2-5.1,0.6-10.2,0.9-15.3c0-0.6,0.1-1.2,0.1-1.8c0.1-1,0.1-1.9,0.1-2.9s0.1-2,0.1-3
								c0-0.2,0-0.5,0-0.7v-0.2c0-0.5,0-2.5-0.1-5.1c0-0.7,0-1.4-0.1-2.1v-0.4c0-1.1-0.1-2.2-0.1-3.4c0-0.2,0-0.5,0-0.8
								c0-1.5-0.1-3.1-0.2-4.5s-0.1-2.9-0.1-4.1c-0.1-2-0.2-3.2-0.2-3.2c0.5-0.1,1-0.2,1.5-0.3c1.7-0.5,3.3-1.1,4.9-2
								c0.9-0.5,1.8-1,2.6-1.6c0.3-0.2,0.7-0.5,1-0.8c0.7-0.5,1.3-1.1,1.9-1.7c0.3-0.3,0.5-0.5,0.7-0.8c1.8-2.3,3.4-4.8,4.8-7.4
								C389.3,99.4,389.3,99.1,389.3,98.8z"/>
						</g>
						<g id="Group_240">
							<path id="Path_401" class="st2" d="M469.4,61.8c-3-4-9.6-5-15.2-5.1c-3.2,0-6.4,0.5-9.5,1.4c-2.9,0.7-5.4,1.9-8.4,2.4
								c-3,0.5-5.9,1.2-8.8,2c6-3.9,12.7-8.5,12.1-14.3c-0.1-0.5-0.8-0.8-1.5-0.6c-4.5,1.4-8.7,3.7-12.3,6.8
								c-3.6,3.2-5.4,7-4.1,10.1l-0.3,0.1c-0.1,0-0.1,0.1-0.2,0.1c-3.9,1.6-7.6,3.6-11,6c-3.4,2.4-6.5,5.2-9.4,8.2
								c0.9-1.8,1.5-3.7,2.1-4.9c2.1-5,4.5-9.9,5.5-14.8c0.1-0.6-0.5-0.8-1.2-0.6c-3,1-5.6,2.9-7.5,5.5c-1.7,2.2-2.9,4.8-3.6,7.5
								c-1,4.2,0.8,8.1-0.3,12.2c-0.7,2.7-2.6,5.1-4.5,7.6c-1.6,1.9-3,4-4.2,6.3c-0.2,0.4-0.4,0.9-0.6,1.4c0.2-0.5,0.3-0.9,0.5-1.4
								c1.1-3.5,1.9-7,2.5-10.6c0.7-3.6,0.7-7.3,0.2-10.9c-0.1-0.4-0.4-0.6-0.8-0.5c0,0,0,0,0,0c-0.1,0-0.2,0.1-0.3,0.2
								c-5,3.3-7.5,8.8-8.1,14.3c-0.4,3.1-0.4,6.2,0.1,9.3c0.3,1.9,0.7,3.8,1.2,5.6c0,0.1,0,0.2,0.1,0.3c0.1,0.3,0.2,0.6,0.2,0.9
								c0.1,0.2,0.2,0.3,0.3,0.4c0,0,0,0.1,0,0.1c-0.6,1.2-1.1,2.4-1.7,3.6c-0.6,1.4-1.3,2.8-1.8,4.2c-1.4,3.2-2.6,6.5-3.7,9.8
								c0,0.1-0.1,0.3-0.1,0.4c0-0.1,0-0.2,0-0.3c-0.1-1.8-0.2-3.5-0.5-5.2c-0.1-1-0.3-2.1-0.6-3.1c-0.1-0.4-0.2-0.8-0.3-1.2
								s-0.2-0.7-0.3-1.1c-0.4-1.4-1.1-2.8-1.9-4c-0.5-0.8-1.2-1.5-2-2c-0.1-0.1-0.2-0.1-0.3-0.1c-0.1,0-0.2,0.1-0.3,0.1
								c-0.3,0.2-0.6,0.5-0.6,0.9c-0.2,1.2-0.3,2.5-0.4,3.7c-0.1,0.7-0.1,1.3-0.1,2c0,1.1,0,2.1,0,3.2c0,0,0,0.1,0,0.1
								c0.1,1.3,0.2,2.6,0.5,3.8c0.3,1.9,0.9,3.7,1.7,5.4c0.1,0.2,0.2,0.4,0.3,0.5c0,0.1,0.1,0.2,0.2,0.4l0.2,0.4
								c0.5,0.8,1.1,1.5,1.8,2.1c0,0,0.1,0.1,0.1,0.1c0.2,0.2,0.3,0.3,0.5,0.4c-0.2,0.6-0.3,1.1-0.5,1.7s-0.4,1.4-0.6,2.1
								c-0.3,1.1-0.6,2.3-0.9,3.4c-0.2,0.9-0.4,1.9-0.6,2.8c0,0.2-0.1,0.4-0.1,0.7c-0.3,1.6-0.6,3.1-0.9,4.7
								c-0.3,1.9-0.6,3.7-0.9,5.6c-0.2,1.7-0.4,3.3-0.6,5s-0.3,3.1-0.4,4.6h0.3h0.8h0.5c0.3-5.1,0.9-10.2,1.8-15.3
								c0.3-1.4,0.5-2.9,0.8-4.3c0-0.1,0.1-0.2,0.1-0.4c0.2-1,0.4-2,0.7-3c0-0.1,0.1-0.3,0.1-0.4c0.6-2.6,1.3-5.1,2-7.6
								c1.6,0.2,3.1,0.2,4.7-0.1c1.2-0.2,2.5-0.5,3.7-0.9c0.7-0.2,1.4-0.5,2.1-0.8c2.2-1.1,4.1-2.7,6.4-4c0.4-0.3,0.6-0.9,0.3-1.3
								c0-0.1-0.1-0.1-0.2-0.2c-1.6-1.8-4.4-2.3-7.2-1.7c-0.8,0.1-1.6,0.4-2.4,0.6c-2.1,0.8-4.1,1.9-5.8,3.4
								c0.4-1.2,0.8-2.3,1.2-3.4c0.9-2.5,1.9-5,2.9-7.5s2-4.6,3.1-6.9c0.1-0.2,0.2-0.5,0.4-0.8c0.1,0,0.2,0,0.4-0.1
								c2.9-0.1,5.7-0.6,8.5-1.5c1.1-0.4,2.1-0.8,3.1-1.4c1.2-0.7,3.1-1.7,3.9-3c0.6-0.8,0.5-2-0.3-2.7c-1.9-2.1-5.6-1.4-8.3-0.5
								c-0.7,0.2-1.4,0.4-2.1,0.7c-0.3,0.1-0.7,0.3-1,0.4c0.2-0.4,0.4-0.7,0.6-1.1c2.8-4.7,5.8-9.1,9.2-13.4c1,0.2,2,0.8,3,1
								c1.3,0.2,2.5,0.3,3.8,0.1c2.2-0.2,4.4-0.6,6.5-1.1c1.3-0.2,2.6-0.6,3.8-1c1.2-0.5,2.1-1.3,1.7-2.8c-0.6-1.5-1.8-2.5-3.3-2.8
								c-1.6-0.4-3.2-0.6-4.9-0.4c-1.8,0.1-3.5,0.4-5.2,0.9c2.6-2.7,5.5-5.1,8.5-7.2c3.1-2.1,6.4-3.8,9.8-5.2
								c0.7,1.5,1.8,2.8,3.3,3.6c1.5,0.9,3.1,1.6,4.7,2.1c4.8,1.3,10.1,0,15.1-1.6c0.4-0.1,0.7-0.5,0.6-0.9c0-0.2-0.1-0.3-0.3-0.4
								c-4.1-3.1-8.9-5.1-14-5.8c3.7-0.9,7.4-1.6,11.2-2c8.6,2.5,17.4,4.9,26.6,1.7c0.4-0.1,0.6-0.5,0.5-0.9c0,0,0,0,0,0
								C469.4,61.9,469.4,61.9,469.4,61.8z"/>
						</g>
						<g id="Group_241">
							<path id="Path_402" class="st2" d="M378.3,106.3c-2.6-0.5-5,1.1-6.9,3.7c-1.1,1.5-2.1,3.2-2.7,5c-0.4,1-0.7,2-1,3l0,0
								l-0.1,0.3c-0.4-1.4-0.8-2.7-1.3-4.1c-0.1-0.2-0.1-0.3-0.2-0.5c-1.4-4.4-2.9-8.7-4.6-12.9c-0.2-0.7-0.5-1.4-0.8-2.1
								c0.3-0.4,0.6-0.8,0.9-1.3l0,0c1.9-2.5,3.2-5.5,3.7-8.7c0.1-0.5,0.1-1,0.1-1.5c0-0.2,0-0.4,0-0.5c0.1-2-0.1-5.9-1.9-7l0,0
								c-0.3-0.2-0.6-0.3-1-0.3c-0.2,0-0.4,0-0.6,0.1c-2.1,0.5-3.1,3-3.8,5.4c-0.2,0.7-0.4,1.4-0.5,2.1s-0.2,1.1-0.4,1.7
								s-0.2,1.1-0.3,1.7c-1.7-3.4-3.6-6.8-5.6-10c-1.2-1.9-2.5-3.7-3.9-5.4c0.4-1,1.2-1.8,1.5-2.8c0.5-1.3,0.7-2.6,0.6-4
								c0-0.5-0.1-1-0.1-1.5c-0.3-2.1-0.9-4.2-1.7-6.2c-0.1-0.3-0.2-0.6-0.4-0.9c-0.6-1.4-1.3-2.7-2.2-3.9c-1.2-1.6-2.8-2.7-4.4-2
								c-0.8,0.4-1.4,1.2-1.4,2.2c-0.1,0.7-0.1,1.4,0,2c0.3,1.8,0.6,3.6,1.1,5.3c0.4,1.7,0.9,3.6,1.5,5.4c-5.4-5.5-11.8-9.9-19-12.8
								c0.6-1.6,0.5-3.5-0.3-5c-0.9-1.9-2.3-3.5-3.9-4.7c-2.8-2-6.1-3.2-9.5-3.5c-3.4-0.3-6.9-0.1-10.3,0.8c-0.9,0.2-1,1-0.4,1.3
								c4.6,2.9,9.5,5.9,14.4,8.5c-3.9-0.6-7.9-0.8-11.8-0.6c-4.5-1.7-9.3-2.4-14.1-2.2c-4.9,0.2-9.6,1.7-13.8,4.3
								c-0.3,0.2-0.5,0.6-0.3,0.9c0,0,0,0,0,0c0,0.1,0.1,0.1,0.1,0.2c4.1,3.1,10.8,2.4,16.3,1.8c3.1-0.5,6.2-1.1,9.2-2
								c2.8-0.7,5.5-1.6,8.5-1.4c3,0.2,5.9,0.5,8.8,1.2c-3.4,0.1-6.7,1.3-9.5,3.2c-2.4,1.6-3.8,4.3-3.8,7.2c0,0.5,0.5,0.8,0.9,0.8
								h0.1c3.4-0.8,6.8-1.9,10-3.2c3.4-1.4,6.8-3.1,8-6.2l0.3,0.1h0.2c7.6,3.1,14.4,7.8,19.9,13.9c-1.5-0.8-3.1-1.4-4.8-1.9
								c-4.8-1.6-9.6-1.5-13.4,0.6c-0.4,0.2-0.5,0.8-0.3,1.1c0,0,0,0.1,0.1,0.1c1.3,1.5,3,2.7,4.9,3.3c2,0.7,4.1,1.1,6.2,1.3
								c3.5,0.5,7.5-0.9,11.2,1.1c2.4,1.3,4.1,4,5.5,6.8s2.5,5.8,4.2,8.1c-2.4-3.3-5.4-6-8.9-8c-3.3-1.9-6.8-2.8-9.5-2.4
								c-0.4,0-0.7,0.4-0.7,0.8c0,0,0,0.1,0,0.1c1.1,4.3,4.4,7.3,8.4,10.1c3.5,2.3,7.2,4.4,11,6.2l0,0l1.5,0.7
								c0.1,0.1,0.2,0.1,0.3,0.1l0.9,0.4c0.2,0.1,0.3,0.1,0.5,0l0.1,0.1c1.8,4.5,3.4,9,4.9,13.6c0.6,1.7,1.1,3.4,1.6,5.1
								c-0.8-1.1-1.7-2.2-2.7-3.2c-0.5-0.6-1.1-1.1-1.7-1.6c-0.3-0.3-0.6-0.5-0.9-0.8c-1.8-1.6-4-2.7-6.4-3.3
								c-0.5-0.1-1-0.2-1.5-0.2c-0.6,0-1.1,0-1.7,0.1c-0.5,0.1-0.6,1-0.3,1.4c0.2,0.3,0.4,0.6,0.7,0.9c1.6,2.2,3.4,4.4,5.3,6.4l0,0
								c1.3,1.4,2.7,2.6,4.2,3.7c2,1.5,4.3,2.5,6.7,2.8c0.2,0.9,0.5,1.9,0.8,2.8c0.1,0.3,0.2,0.7,0.3,1c0.5,1.8,0.9,3.6,1.3,5.5
								c0.2,0.7,0.3,1.3,0.5,2c0.2,0.8,0.4,1.6,0.5,2.4c0.2,1.1,0.5,2.3,0.7,3.4c0,0.1,0.1,0.2,0.1,0.4c0.2,0.8,0.4,1.7,0.5,2.5
								c0.1,0.6,0.2,1.2,0.3,1.8c0.8,4.4,1.5,8.8,2.1,13.3c0.1,0.7,0.2,1.4,0.3,2.1h0.5c0.4,0,0.7,0,1,0c-0.1-0.6-0.1-1.3-0.2-1.9
								c-0.1-1-0.2-2.1-0.4-3.1c-0.5-3.5-1-7-1.7-10.4c-0.3-1.6-0.6-3.1-0.9-4.7c-0.2-1.1-0.4-2.2-0.7-3.4c0-0.1,0-0.2-0.1-0.3
								L372,135c-0.2-0.9-0.4-1.7-0.6-2.6l-0.8-3.3c-0.1-0.3-0.2-0.6-0.3-1c0-0.1,0-0.3-0.1-0.4c0-0.2-0.1-0.4-0.1-0.6
								c-0.3-1.2-0.6-2.4-1-3.6c0.5-0.2,0.9-0.4,1.3-0.7c0.6-0.4,1.2-0.8,1.7-1.2c0.9-0.7,1.6-1.5,2.3-2.3c0.4-0.4,0.8-0.9,1.1-1.4
								c0.7-1,1.2-2,1.7-3.1c0.4-0.9,0.6-1.8,0.9-2.8c0.4-1.3,0.7-2.7,1-4.1c0.2-0.7-0.2-1.4-0.9-1.6H378.3z"/>
						</g>
						<g id="Group_242">
							<path id="Path_403" class="st2" d="M373,126.8c-0.2,0-0.4,0-0.5,0.1c-0.6,0.1-1.3,0.3-1.8,0.6c-0.1,0-0.2,0.1-0.3,0.1h-0.1
								c-0.4,0.2-0.9,0.5-1.3,0.8c-0.4,0.2-0.7,0.5-1.1,0.8c-0.5,0.4-1.1,0.9-1.5,1.4c-1.7,1.7-3.1,3.6-4.1,5.8
								c-1.4-3.4-3-6.8-4.7-10c0.9-1,1.8-2,2.5-3c0.4-0.5,0.8-1.1,1.2-1.6c0.9-1.3,1.5-2.7,1.9-4.2c0.1-0.4,0.2-0.9,0.2-1.3
								c0-0.4,0-0.8,0-1.2c0-1-0.4-1.8-1.7-1.6l-0.2,0.1c-0.2,0.1-0.4,0.1-0.5,0.2c-1.7,1-3.1,2.4-4,4.2l0,0
								c-0.4,0.6-0.6,1.2-0.9,1.8c-0.3,0.7-0.7,1.5-1,2.3c-1.7-2.8-3.5-5.5-5.4-8.1c0.6-0.8,1.4-1.5,2-2.3l0.1-0.1
								c0.5-0.7,1-1.5,1.3-2.4c0.1-0.2,0.1-0.3,0.2-0.5c0.5-1.7,0.8-3.6,0.7-5.4c0-0.2,0-0.6,0-1c-0.1-1.6-0.7-3.8-2.2-3.7
								c-0.4,0-0.7,0.1-1,0.3c-2.5,1.4-2.9,5.6-3.3,7.6c-0.2,1.3-0.4,2.6-0.5,3.9c-2.6-3.2-5.7-6-9.1-8.2c1.6-2.7,1.8-6.1,0.3-8.9
								c-2-3.9-6.9-5.1-10.6-4.5c-0.4,0.1-0.7,0.6-0.6,1c0,0.1,0,0.1,0.1,0.2c1.7,3.4,3.6,6.7,5.8,9.8c-2-0.7-4-1.3-6.1-1.7
								c-3.9-4.4-9.5-7.2-14.6-4c-0.3,0.3-0.4,0.7-0.2,1c1.6,4.1,5.1,5.1,8,5.7c1.7,0.2,3.4,0.2,5-0.2c1.5-0.2,3.1-0.7,4.7-0.3
								c1.5,0.4,3,1,4.4,1.6c-2.2,0.2-4.2,1.1-5.8,2.6c-1.8,1.8-3.1,4.1-3.5,6.6c-0.1,0.5,0.1,0.9,0.3,0.8c1.9-0.5,3.8-1.4,5.5-2.6
								c2.5-1.5,4.7-3.5,6.3-6l0.2,0.1c0,0,0.1,0,0.1,0c3.6,2.4,6.8,5.3,9.5,8.8c-1-0.3-2.1-0.5-3.1-0.6c-3.4-0.5-6.9,0.4-9.6,2.5
								c-0.3,0.2-0.5,0.6-0.6,1c0.4,2.2,3.1,2,6.3,1.8c2.6-0.3,6.3-2,8.8-1.3c3.4,0.9,3.5,5.6,5.8,7.6c-4-3.1-9.2-4.1-14-2.6
								c-0.4,0.1-0.8,0.5-0.8,0.8c0,3,2.2,4.3,5.3,5c3.4,0.7,6.8,1,10.3,0.9c0.1,0,0.2,0,0.2,0h0.7c0.2,0,0.3,0,0.4-0.1h0.1
								c1.7,3.1,3.2,6.2,4.5,9.5c-3.9-2.5-8.7-3-13-1.4c-0.4,0.2-0.6,0.7-0.4,0.9c3.4,2.1,8.4,4.8,14.7,3.8c0.3,0.8,0.6,1.6,0.8,2.3
								c0.5,1.5,1,2.9,1.4,4.4c1.4,4.9,2.5,9.8,3.2,14.8h0.4h0.3h0.8c-0.1-0.7-0.2-1.4-0.3-2.2s-0.3-1.7-0.4-2.5
								c-0.3-1.6-0.6-3.2-1-4.8c-0.4-1.9-0.9-3.8-1.5-5.6c-0.4-1.5-0.9-3-1.4-4.4c-0.4-1-0.7-2.1-1.1-3.1c1.1-0.5,2.2-1.2,3.2-1.9
								c0.5-0.4,1-0.7,1.5-1.2c0.6-0.5,1.2-1,1.7-1.6c0.2-0.2,0.3-0.4,0.5-0.6c0.2-0.2,0.3-0.4,0.5-0.6c0.3-0.3,0.5-0.7,0.7-1.1
								c0.4-0.6,0.7-1.2,1-1.8c0-0.1,0.1-0.2,0.1-0.3c0.4-0.9,0.8-1.8,1.2-2.7C374,127.1,373.5,126.8,373,126.8z"/>
						</g>
						<g id="Group_243">
							<path id="Path_404" class="st3" d="M458.6,91.1c-2.7-3.7-7.5-3.8-11.5-3.3c-2.3,0.4-4.5,1.1-6.5,2.3c-1.9,1-3.5,2.2-5.6,2.9
								s-4.1,1.3-6,2.1c3.8-3.6,7.8-8.6,6.3-14.3c-0.1-0.4-0.6-0.7-1-0.5l-0.2,0.1c-3.1,1.6-5.7,4-7.7,6.8c-2,3.1-2.9,6.5-1.5,9.5
								l-0.2,0.1c0,0-0.1,0-0.1,0.1c-5.4,2.4-10.5,5.5-15.1,9.3c0.6-1.2,1.1-2.5,1.5-3.7c1.8-3.8,2.9-8,3.2-12.2
								c0-0.4-0.3-0.8-0.7-0.8c-0.1,0-0.2,0-0.3,0c-2.2,0.5-4.1,1.7-5.4,3.5c-1.3,1.7-2.1,3.7-2.5,5.7c-0.7,3.3,0.9,7.2-0.1,10.3
								c-0.8,2-2.2,3.7-3.9,4.9c-1.6,1.6-3.5,3-4.3,4.9c2.2-5,3.7-12,2.9-17.4c0-0.2,0-0.4-0.1-0.6c-0.1-0.4-0.5-0.7-0.9-0.6
								c0,0,0,0,0,0h-0.1c-1,0.3-2,0.9-2.9,1.5c-1.3,1.1-2.4,2.5-3.1,4c-0.6,1.3-1.1,2.8-1.3,4.2c-0.4,2.2-0.4,4.3-0.1,6.5
								c0.2,2,0.6,3.9,1.2,5.8c0,0.1,0,0.2,0.1,0.2c0.1,0.2,0.1,0.5,0.2,0.8c0.1,0.2,0.2,0.3,0.3,0.4c0,0,0,0.1,0,0.2
								c-2.6,3.8-5.1,7.8-7.2,12c0-2.2-0.2-4.4-0.7-6.6c-0.1-0.4-0.2-0.8-0.3-1.2c-0.5-2-1.5-3.9-2.8-5.5c-0.3-0.4-0.6-0.7-1-1
								c-0.4-0.2-0.8-0.1-1.1,0.2c0,0,0,0,0,0c0,0.1-0.1,0.1-0.1,0.2c-0.1,0.5-0.2,1.1-0.3,1.6c-0.4,2.4-0.5,4.8-0.2,7.2
								c0,0.3,0,0.5,0.1,0.8c0.4,3.2,1.9,6.1,4.2,8.3c-0.4,0.7-0.8,1.5-1.1,2.3c-0.8,1.5-1.5,3-2.2,4.6c-1.5,3.4-3,6.8-4.4,10.2
								l-1.2,2.9c-0.3,0.7-0.6,1.4-0.9,2.1h1.1c0.2,0,0.4,0,0.5,0c0.2-0.6,0.5-1.3,0.8-1.9c1.8-4.4,3.7-8.9,5.7-13.2
								c0.7-1.5,1.4-3,2.2-4.6c0.4-0.8,0.7-1.5,1.1-2.2c2.6,1,5.3,1.5,8,1.4c3,0,5.4-0.9,8.1-1.5c0.6-0.1,0.6-0.7,0.2-1.1
								c-3-3.5-10.1-4-14.6-2.1c2.3-4.2,4.8-8.3,7.5-12.2c3.8,0.7,7.2,1.5,10.9,0.8c1.7-0.3,5.2-0.7,3.1-3.4c-1.7-2.2-5-2.7-7.4-2.7
								c-0.9,0-1.9,0-2.8,0.1c1.3-1.6,2.7-3.2,4.1-4.8s2.9-3.1,4.5-4.4c0.9,0.5,1.7,1.2,2.6,1.6c1,0.5,2.1,0.9,3.2,1.1
								c1.8,0.4,3.6,0.6,5.4,0.8c1.6,0,5.3,0.7,4.4-2.2s-4.6-4.1-6.9-4.6c-1.4-0.3-2.8-0.5-4.3-0.4c2.1-1.6,4.3-3.2,6.5-4.6
								c2.3-1.4,4.7-2.6,7.1-3.7c1.1,2.9,4.6,5,6.9,5.8c3.9,1.3,7.6-0.1,10.8-2c0.4-0.3,0.4-0.8,0.1-1.2c0,0,0,0,0,0
								c0,0-0.1-0.1-0.1-0.1c-3.3-2.4-7.1-4.6-11.1-5.1c2.6-0.9,5.2-1.7,7.8-2.4c6.6,1.9,13.1,3.2,19.1-1
								C458.8,91.9,458.9,91.4,458.6,91.1z"/>
						</g>
						<g id="Group_244">
							<path id="Path_405" class="st3" d="M384.7,29.1c6.6-5.9,12.8-11.9,15.3-20.8c0.1-0.4-0.1-0.8-0.5-0.9h-0.1
								c-4.9,0-9.5,4.9-12.4,9.6c-1.6,2.7-2.9,5.6-3.6,8.6c-0.9,2.8-1.1,5.5-2.3,8.2s-2.2,5.4-3.1,8.1c0.3-3.4,0-6.9-0.7-10.2
								c-0.7-3.1-2.2-5.8-4.8-7c-0.5-0.2-1.1,0.2-1.2,0.9c-1.1,4.2-1.4,8.7-0.8,13c0.6,4.3,2.5,7.9,5.6,8.9l-0.1,0.3
								c0,0.1,0,0.1,0,0.2c-2.4,7.6-4.3,15.4-5.7,23.2c-0.3-1.9-0.8-3.8-1.1-5c-0.7-3.5-2-7-3.6-10.2c-0.6-1.2-1.3-2.2-2-3.3
								c-0.4-0.5-1-0.2-1.3,0.3c-1.3,2.4-1.9,5.1-1.7,7.8c0,0.3,0,0.7,0.1,1c0.3,2,0.8,4,1.6,5.9c0.2,0.5,0.5,1,0.8,1.5
								c1.4,2.2,3.3,4,4.6,6.2c0.4,0.7,0.7,1.4,0.9,2.1c1.4,5-1.8,11.4-1.4,16.7c0,0.1,0,0.3,0,0.4c0-0.3-0.1-0.5-0.1-0.8
								c-0.3-2.3-0.8-4.6-1.4-6.8c-0.7-2.7-1.7-5.3-2.9-7.8c-0.9-1.9-2.1-3.6-3.5-5.1c-0.3-0.3-0.7-0.3-1,0c0,0,0,0,0,0
								c-0.1,0.1-0.1,0.1-0.1,0.2c-1.5,2.8-2.1,6-1.7,9.2c0.2,1.7,0.5,3.4,1.1,5c0.1,0.3,0.2,0.7,0.3,1c1,2.7,2.3,5.4,4,7.8l0,0
								c1.1,1.6,2.2,3.2,3.5,4.6c0.1,0.1,0.1,0.2,0.2,0.2c0.2,0.2,0.4,0.5,0.6,0.7c0.1,0.1,0.2,0.2,0.4,0.2c0,0,0.1,0.1,0.1,0.1
								c0,0.6-0.1,1.1-0.1,1.7c-0.1,2.9-0.2,5.8-0.2,8.7c0,0.1,0,0.3,0,0.4c0,2.7,0,5.3,0,8c-0.8-2-1.8-4-2.9-5.8
								c-0.5-0.9-1.1-1.8-1.8-2.7c-0.2-0.3-0.5-0.6-0.7-0.8c-1.4-1.8-3.5-3.1-5.7-3.7c-0.3,0-0.5,0.2-0.6,0.4
								c-0.1,0.3-0.2,0.6-0.1,0.8c0.7,2.7,1.6,5.2,2.7,7.8c0,0,0,0,0,0.1c0.8,1.9,1.9,3.7,3.1,5.3c1.5,2.3,3.7,4,6.2,5
								c0,0.8,0,1.5,0.1,2.3c0,2.2,0.1,4.4,0.2,6.6c0,1.6,0.1,3.2,0.2,4.8c0.1,1.5,0.1,3.1,0.2,4.6c0.1,1.9,0.2,3.8,0.3,5.7
								c0.2,3.1,0.4,6.2,0.6,9.4h0.3h0.8h0.4c-0.1-1.4-0.2-2.8-0.2-4.2l0,0c-0.1-1.8-0.2-3.6-0.3-5.4s-0.2-3.7-0.3-5.6
								c-0.1-1.6-0.1-3.1-0.2-4.6c-0.1-1.9-0.2-3.9-0.2-5.8c-0.1-2.3-0.1-4.6-0.2-6.8c0-0.6,0-1.1,0-1.7c0.3,0,0.6-0.1,0.9-0.2
								c0.4-0.1,0.8-0.2,1.3-0.3l0.2-0.1c0.2-0.1,0.3-0.1,0.5-0.2c0.6-0.2,1.2-0.5,1.8-0.8c0.9-0.5,1.8-1,2.6-1.6
								c0.1,0,0.1-0.1,0.2-0.1c0.1-0.1,0.2-0.1,0.3-0.2c0.8-0.6,1.5-1.2,2.1-1.9c1.5-1.8,2.9-3.6,4.2-5.6c0.4-0.4,0.3-1.1-0.1-1.4
								c0,0,0,0-0.1-0.1l-0.1-0.1c-0.3-0.2-0.7-0.3-1-0.4c-0.5-0.2-1.1-0.2-1.6-0.2c-0.6,0-1.1,0.1-1.7,0.2
								c-1.2,0.3-2.3,0.8-3.3,1.4c-0.7,0.4-1.3,0.9-1.9,1.3c-0.6,0.5-1.2,1-1.7,1.6l0,0c-0.8,0.8-1.6,1.7-2.2,2.7
								c-0.2,0.2-0.3,0.5-0.5,0.7V118l0,0c0,0,0-0.1,0-0.1c0-1,0-2.1,0-3.2c0-0.7,0-1.3,0-2c0-2,0.1-3.9,0.2-5.9
								c0-1.3,0.1-2.6,0.2-3.8c0.1-0.1,0.2-0.1,0.3-0.2c0.7-0.4,1.3-0.7,2-1.1c2.9-1.5,5.5-3.6,7.5-6.2c1.3-1.8,4-5.5,0.8-6.7
								c-2.6-1-5.7,1.3-7.7,3.2c-0.7,0.6-1.3,1.3-1.9,2c-0.1,0.1-0.2,0.3-0.4,0.4c0-0.5,0.1-1.1,0.1-1.6c0.1-2,0.4-4,0.6-6
								c0.3-3.1,0.8-6.2,1.2-9.3c1-0.3,2.1-0.3,3.1-0.7c1.2-0.4,2.3-1.1,3.4-1.8c0.5-0.4,1-0.8,1.5-1.2c1.2-1.1,2.3-2.3,3.4-3.6
								c1-1,1.9-2.2,2.6-3.4c0.7-1.3,1-2.7-0.3-3.6c-2.4-1.8-6.5,1.1-8.5,2.8c-1.3,1.1-2.5,2.3-3.6,3.7c1.4-7.1,3.1-14.2,5.3-21.1
								c2.9,1.1,7-0.9,9.5-2.9c4-3.4,6-8.8,7.1-13.8c0.1-0.4-0.1-0.8-0.5-0.9c-0.2-0.1-0.4-0.1-0.5,0c-4.7,1.8-9,4.7-12.4,8.5
								c0.7-1.7,1.4-3.4,2.1-5.2L384.7,29.1z"/>
						</g>
					</g>
				</g>
				<g id="Group_248">
					<g id="Group_247">
						<path id="Path_406" class="st4" d="M394.8,210.5c-13.7,4-31.6,4-45.4,0c-2.7-19.8-5.5-39.6-8.5-59.3h62.4
							C400.3,170.9,397.5,190.7,394.8,210.5z"/>
					</g>
					<path id="Path_407" class="st5" d="M403.3,151.1h-62.4l2.8,18.3h56.8L403.3,151.1z"/>
					<path id="Path_408" class="st6" d="M406.3,151.1h-68.4l2.2,14.2h64.1L406.3,151.1z"/>
					<path class="st7" d="M401.7,162.9c0,0-0.1,0-0.1,0c-0.5-0.1-0.9-0.5-0.8-1.1l1.2-8.7c0.1-0.5,0.5-0.9,1.1-0.8
						c0.5,0.1,0.9,0.5,0.8,1.1l-1.2,8.7C402.5,162.6,402.1,162.9,401.7,162.9z"/>
					<path class="st8" d="M392.8,203.8c0,0-0.1,0-0.1,0c-0.5-0.1-0.9-0.5-0.8-1l3.6-31c0.1-0.5,0.5-0.9,1-0.8c0.5,0.1,0.9,0.5,0.8,1
						l-3.6,31C393.7,203.5,393.3,203.8,392.8,203.8z"/>
				</g>
			</g>
			<g id="Group_256">
				<g id="Group_252">
					<path id="Path_415" class="st9" d="M209.6,176.1c-3.6,10.7-28.5,66.9-36.1,74.2l16.3,19.1c8.1-5.3,24.8-65.5,27.4-86.1
						L209.6,176.1z"/>
					<path id="Path_416" class="st9" d="M223.6,162.6c3.2-1.5,6.6-2.3,10.1-2.5c1.4,0,2.8,0,4.2,0.2c0.7,0.1,3.4,0.6,3,1.3
						c-0.2,0.3-0.6,0.6-1,0.6c-1.9,0.7-3.8,1.3-5.6,2c-1.5,0.5-3,1.1-4.5,1.6c-0.5,0.2,1.1,1.2,1.2,1.3c0.7,0.6,1.2,1.4,1.5,2.2
						c0.6,1.7,0.7,3.5,0.1,5.2c-1.1,2.6-3.1,4.8-5.6,6.2c-3.8,2.3-8.2,3.5-12.6,3.3c-2.2-0.1-4.5-2.6-5-4.6s0.3-4.2,1.4-5.9
						c2.5-4.1,6.7-7.4,10.8-9.9C222.2,163.3,222.9,162.9,223.6,162.6z"/>
				</g>
				<path id="Path_417" class="st10" d="M265.2,194.7l-24.7,0.4c-1.1,0-2-0.8-2-1.9c0,0,0,0,0-0.1c0-0.2,0-0.4,0.1-0.6l12.9-46.3
					c0.2-0.9,1-1.5,1.9-1.5l24.7-0.4c1.1,0,2,0.8,2,1.9c0,0,0,0,0,0.1c0,0.2,0,0.4-0.1,0.6l-12.9,46.3
					C266.9,194.1,266.1,194.7,265.2,194.7z"/>
				<g id="Group_255">
					<g id="Group_253">
						<path id="Path_418" class="st11" d="M378.9,370.6c-4,9.6-10.4,17.9-18.7,24.1c-27.6,21-72.5,19-104.6,17.8
							c-63.3-2.4-127.5-9-187.3-31C37.1,370,12.2,346.3,3.8,313.6c-6.7-26.2-3.7-54,2.3-80.4c5.4-23.9,13.4-47.4,26.2-68.2
							c16.5-26.8,50.1-62.5,84.9-53.8c14.5,3.6,26.2,14.4,35.5,26.1c11.1,14,19.6,29.7,25.4,46.6c5.6,16.5,8.5,34.2,18.1,48.7
							c11.3,17.2,30.6,27.2,50.4,31.2c21.7,4.4,43.3-1.4,65.2,2.7c23.3,4.3,45.4,17.1,58.9,36.6S388.2,348.8,378.9,370.6z"/>
						<path id="Path_419" class="st12" d="M159,205.1c0.6,19,5.1,38.6,19.1,52.2c10.6,10.4,24.9,16.2,39.4,18.5
							c22.4,3.7,48,0.1,68.6-10.9c-13.2,0.4-26.3,1.4-39.5-1.2c-19.8-4-39.1-14-50.4-31.2c-9.6-14.5-12.5-32.2-18.1-48.7
							c-3.9-11.3-9-22-15.4-32.1C161.1,169.4,158.4,187.1,159,205.1z"/>
						<path id="Path_420" class="st12" d="M275.6,408.1c-17.1-2.3-34.1-5.6-51-8.7c-17.5-3.2-35-6.6-52.3-10.8
							c-28.3-6.7-56.4-15.3-82.6-28.3c-22.4-11-43.4-25.4-60.1-44C16.8,302,7,285.3,0.7,267.1c-1.3,15.6-0.8,31.3,3.1,46.5
							c8.4,32.7,33.3,56.4,64.4,67.9c59.8,22.1,124,28.7,187.3,31c16.7,0.6,36.8,1.4,56.2-0.9C299.7,410.9,287.6,409.7,275.6,408.1z
							"/>
						<path id="Path_421" class="st12" d="M135.3,263.9c-17.1-23.5-28.3-50.9-32.5-79.6c-1.1-7.5-1.8-15.4-5.6-22
							c-6.8-11.7-22.6-12.2-20.8,3.4c1.4,12.7,6.4,25.9,11.7,37.4c5.5,12,12.4,23.3,20.5,33.6C116.3,246.6,128.2,254.1,135.3,263.9z
							"/>
					</g>
					<path id="Path_422" class="st13" d="M491.1,366c-1.3,3.1-5.1,4.5-8.4,4.3s-6.5-1.7-9.7-2.8c-5.9-1.9-12.1-2.4-18.2-1.4
						c-4.6,0.8-10.2,2.1-13.4-1.3c-2.8-3-2-7.6-2.1-11.7c-0.3-6.8-3.6-13.1-9.1-17.1c1,0.7,4.5-6.1,5.9-6.5c3-0.7,5.9-2.4,8-0.3
						c4.3,4.4,9.4,14.1,14.2,18.1C468,355.6,479.1,361.9,491.1,366z"/>
					<path id="Path_423" class="st9" d="M504.6,400.2c-0.6,2.2-3.9,1.9-5.7,1.8c-2.5-0.2-5.1,0-7.6-0.3c-4.2-0.5-8.2,0.5-12.4,0.7
						c-4.1,0.2-8.3-0.2-12.3-1.1c-5.7-1.4-10.1-1.1-15.8,0.2c-4.3,1-11.6,1.4-14.3-3.1c-1.8-3-0.3-6.9-0.4-10.4c0-5.6-4-10.3-8.2-14
						c-6.6-5.8-13.6-10.9-14-20.6c-0.3-7,9.4-13.5,15.9-11.5c5.1,1.5,7.5,7.1,9.8,11.9c3,6.4,7,12.2,11.8,17.4
						c4.9,5.3,12.7,8.5,19,11.8c0,0.6,6.1,3.2,6.8,3.5l7.5,3.9l7.2,3.7c2.3,1.1,4.8,1.8,7.3,2c1.3,0.1,2.5,0.4,3.6,1
						C504.1,397.7,504.7,398.9,504.6,400.2z"/>
					<path id="Path_424" class="st3" d="M372.1,292.3c17.6,10.3,21.1,5.3,37.5,17.4c3.1,2.3,14.9,10.1,18.6,11.2
						c2.2,0.7,7.8,7.6,9.5,8.6c3.4,2,12.7,11,12.9,11.8c0.4,2-11.2,14.2-16.6,17.3c-10.2,5.8-17.6,12.9-28.9,16.3
						c-1.5,0.5-19.7-25.5-37.4-38.7c-12.5-9.3-25.2-19-40-24.2c-12.2-4.3-22.8-11.1-36.1-12.1c-8.9-0.7-18-1.6-27-2.1
						c-3.6-0.2-26.2-2.9-28,0l19.8-31.5c5.6-9,7.2-13.9,18.1-11.9c21.9,4.1,43.2,10.9,63.4,20.3
						C349.7,279.8,361.1,285.7,372.1,292.3z"/>
					<path id="Path_425" class="st10" d="M95.4,63.8c-1.5,5.8-2.8,11.3-6.1,16.5c-4.4,6.9-9,14.1-16,18.3c-4.5,2.7-9.6,4-14.3,6.2
						c-6.8,3.2-12.8,8.7-15,15.9s0.5,16,7.1,19.5c2.6,1.3,5.5,1.8,8.1,3.1s5,3.7,4.8,6.6c-0.3,4.3-4.8,6.6-4.1,11.2
						c0.9,6.6,8.1,8,12.8,10.7c6.8,3.8,12.9,11.9,20.4,13.9c28.2,7.4,21.3-28.2,34.7-38.7c5.1-4,12.2-3.8,18.3-5.8
						c13.4-4.4,20.6-18.7,25.9-31.8c5.9-14.6,11.3-30.5,7.9-45.9c-2.4-10.4-8.6-19.5-17.3-25.5C137.2,20.8,103,34.7,95.4,63.8z"/>
					<path id="Path_426" class="st14" d="M222.5,263.6c-6.1,5.1-8.9,13-12.3,20.2s-8.1,14.6-15.6,17.1c-5.5,1.8-11.6,0.5-17.1-1.2
						c-23-7.5-42.4-24.1-55.9-44.1s-21.5-43.4-26.1-67.2c-3.2-16.7-4.2-38.3,12.3-48.8c8.7-5.5,20.1-3.9,29.9-0.5
						c12.6,4.4,25.2,11.4,34.7,20.9c9,9.1,21.8,19.8,22.3,33.7c0,0.5,0,0.9,0,1.4c-0.2,7.7-4.4,14.5-4.7,22.1
						c-0.2,6.1,1.3,13.8,3.4,19.5c1.2,3.4,2.9,6.6,4.9,9.6c1.9,2.9,4.2,5.5,6.8,7.8C207,255.8,219.7,265.9,222.5,263.6z"/>
					<path id="Path_427" class="st15" d="M198.3,246.2c-1.8,3.1-3,6.5-3.5,10.1c-9.6-7.5-16.2-18.2-18.3-30.2
						c-1-5.7-0.8-12.1,3.1-16.4c2.1-2.4,5.2-3.9,7.8-5.8c3.2-2.1,5.8-5.2,7.4-8.7c-0.2,7.7-4.4,14.5-4.7,22.1
						c-0.2,6.1,1.3,13.8,3.4,19.5C194.6,240,196.2,243.2,198.3,246.2z"/>
					<path id="Path_428" class="st9" d="M117.2,135.9c11.4,6.7,18.3,31.2,60.8,29.7c-11.7-11.1-24.9-29.2-28.9-38.6
						c-2.8-6.5-5.7-13.4-5-20.5s4.5-11.7,12.9-13.1c-6.1-3.6-14.6-4.2-21.3-6.7c-2-0.6-4.2-0.7-6.3-0.4
						C129.4,86.3,129.7,117.9,117.2,135.9z"/>
					<path id="Path_429" class="st13" d="M148.5,125.5c-2.6-6.1-5-12.5-4.4-19.1c0.7-7.1,4.5-11.7,12.9-13.1
						c-6.1-3.6-14.6-4.2-21.4-6.7c-2-0.6-4.2-0.7-6.3-0.4c-0.1,6.4-0.6,12.8-1.6,19.2C130.3,116.6,139.4,121,148.5,125.5z"/>
					<path id="Path_430" class="st1" d="M219.2,311.4c8.8-0.3,17.6-1.3,26.6-2.4l60.9-7.2c17.4-2,34-4.9,51.4-2.9
						c27.8,3.2,45.8,10.7,69.5,24.1c3.7,2.1,15.3,10.6,15.3,10.6c2.2-1.6,6.9-5.8,8.6-9.3c1.2-2.5-27.6-24.6-40.4-35.3
						c-31.6-26.3-70.8-43-111.4-48.9c-20.4-2.9-41-3.1-61.4-0.4c-18.2,2.4-41.1,6.8-55.9,18.5c-7.3,5.8-30.1,22.4-22,34.1
						c6.8,9.8,18.4,13.8,29.5,16.5C199.4,311,209.3,311.9,219.2,311.4z"/>
					<g id="Group_254">
						<path id="Path_431" class="st11" d="M295.1,337.5c-35,2.2-70.4,4.4-104.9-1.9c-17.3-3-34-8.6-49.6-16.6
							c-10.2-5.3-38-20.2-39.2-32.9c23.8-7,55.4-2.6,79.4,1.6c26.4,4.7,52,13.3,75.9,25.5C270.2,320.2,283,328.3,295.1,337.5z"/>
						<path class="st16" d="M237,325.6c-0.7,0-1.4-0.1-2.1-0.5c-42.6-19.5-89.8-27.7-136.4-23.7c-2.7,0.2-5.1-1.8-5.3-4.5
							s1.8-5.1,4.5-5.3c48.4-4.1,97.2,4.3,141.4,24.6c2.5,1.1,3.6,4.1,2.4,6.5C240.7,324.6,238.9,325.6,237,325.6z"/>
						<path class="st16" d="M321.3,333.9c-0.9,0-1.8-0.2-2.6-0.8c-18.1-11.5-40.9-13.9-61-6.5c-2.6,0.9-5.4-0.4-6.3-2.9
							c-0.9-2.6,0.4-5.4,2.9-6.3c23-8.4,49-5.7,69.7,7.4c2.3,1.5,3,4.5,1.5,6.8C324.6,333.1,323,333.9,321.3,333.9z"/>
					</g>
					<path id="Path_434" class="st9" d="M169.6,99.4c-2.7,6.4-6.4,11.9-11.2,14.5c-12.2,6.6-24.3-3.7-31.6-13s-11.1-20.6-10.3-31.6
						c0.5-6.5,2.3-15.4,7.6-19.6s13-6.4,19.9-6.5c7.9-0.2,18.3,2.2,23.7,8.2c5.2,5.8,7.3,14.2,7.3,21.4C174.8,82,173,91,169.6,99.4z
						"/>
					<path id="Path_435" class="st10" d="M153.7,59.1c-4,5.2-10.4,7.8-15.4,12c-9.4,7.8-9,18.2-10.1,31.7
						c-11.7-6.7-19.9-16.6-22.4-29.8s2.4-28,13.2-36c11.6-8.7,28.8-8.4,40.8-0.2s18.5,23.2,17.5,37.6c0.9-3-0.8-6.1-3.1-8.2
						s-5.1-3.4-7.6-5.2c-5.9-4.4-8.8-11.2-10.1-18.2C158.2,48.4,157.2,54.4,153.7,59.1z"/>
				</g>
				<path id="Path_436" class="st9" d="M110.6,168.9c-2.4,6.8-0.8,14.3,1.3,21.2c11.8,36.9,38.1,67.4,72.9,84.4
					c6.1,3,13,5.5,19.7,4.1s12-6.8,16.4-12.1c8-9.7,19.4-56,27.5-66.3c3.7-4.7,8-9.1,10.7-14.5c3.3-6.4,4.3-13.5,4.9-20.7
					c0-0.3-0.2-0.7-0.6-0.7c0,0,0,0,0,0c-0.2,0-0.4,0.1-0.5,0.2c-4.8,5.8-16.5,14.2-21.4,17.2l3.9-13.2c-5.6,3.3-9.7,8.7-11.6,14.9
					c-1.7,5.8-1.2,12-2.3,17.9c-1.8,9.9-21.2,44.4-26.3,44.4c-3.1,0-5.9-1.8-8.4-3.6c-21.2-15.5-37.8-36.4-48.4-60.4
					c-2.3-5.2-4.3-10.6-7.7-15.1C133.2,156.4,115.6,155.1,110.6,168.9z"/>
				<path id="Path_437" class="st10" d="M105,183.5c5.5-3.2,8.9-9.2,10.6-15.4s1.9-12.6,2.6-18.9c1.3-11.4,4.4-22.6,7.3-33.7
					c1.8-7.1,3.1-15.9-2.3-20.8c-18.4,13.6-30.9,34.2-38.1,56c-3.2,9.5-3.9,18.5,0.6,27.7C89.2,185.4,97.8,187.6,105,183.5z"/>
				<path class="st13" d="M159.8,100.4c-0.3,0-0.6-0.1-0.7-0.4c-0.2-0.4-0.1-0.9,0.3-1.1c0.5-0.3,1-0.5,1.4-0.7
					c0.8-0.3,1.6-0.7,2-1.2c0-0.3-0.1-0.9-0.2-1.4c-0.3-2-0.9-5.3,0.3-9.4c0.5-1.8,1.1-3.5,3-4.5c1.8-0.9,3.9-1.2,5.9-0.8
					c0.4,0.1,0.7,0.5,0.7,1s-0.5,0.7-1,0.7c-1.6-0.3-3.4-0.1-4.9,0.7c-1.3,0.7-1.7,1.9-2.2,3.5c-1.1,3.8-0.6,6.7-0.3,8.7
					c0.2,1.1,0.3,1.8,0.1,2.4c0,0.1-0.1,0.1-0.1,0.2c-0.7,1-1.8,1.5-2.8,1.9c-0.4,0.2-0.9,0.4-1.2,0.6
					C160.1,100.4,160,100.4,159.8,100.4z"/>
				<path class="st17" d="M152.3,86c-1.3,0-2.7-0.5-3.7-1.4c-0.3-0.3-0.4-0.8-0.1-1.2c0.3-0.3,0.8-0.4,1.2-0.1c1.1,1,2.6,1.3,4,0.7
					c0.4-0.2,0.9,0.1,1.1,0.5c0.2,0.4-0.1,0.9-0.5,1.1C153.7,85.9,153,86,152.3,86z"/>
				<path class="st17" d="M169.9,87.9c-0.9,0-1.8-0.3-2.5-0.9c-0.3-0.3-0.4-0.8-0.1-1.2c0.3-0.3,0.8-0.4,1.2-0.1
					c0.8,0.7,1.9,0.7,2.7,0.2c0.4-0.3,0.9-0.2,1.1,0.2c0.3,0.4,0.2,0.9-0.2,1.1C171.4,87.6,170.7,87.9,169.9,87.9z"/>
				<path class="st13" d="M154.8,81c-0.2,0-0.3-0.1-0.5-0.2c-1.6-1.2-3.8-1.5-5.7-0.8c-0.4,0.2-0.9-0.1-1.1-0.5
					c-0.2-0.4,0.1-0.9,0.5-1.1c2.4-0.9,5.1-0.5,7.2,1c0.4,0.3,0.4,0.8,0.2,1.2C155.3,80.9,155,81,154.8,81z"/>
			</g>
		</g>
	</g>
</g>
</svg>
