<svg version="1.1" id="Layer_1" xmlns="http://www.w3.org/2000/svg" x="0" y="0" viewBox="0 0 504.6 413.2" xml:space="preserve"><style>.st0{fill:#3a3942}.st1{fill:#00b580}.st2{fill:#0a8e6d}.st3{fill:#0b7c5c}.st9{fill:#f6bd96}.st10{fill:#091a4c}.st11{fill:#ffa82f}.st12{fill:#ee8d1b}.st13{fill:#e7a579}.st16{fill:#ffcb71}.st17{fill:#39395c}</style><g id="Layer_2_1_"><g id="Layer_1-2"><g id="Group_257"><g id="Group_249"><g id="Group_238"><g id="Group_235"><path id="Path_397" class="st0" d="M366.5 340h-.2c-1.1 0-2.1-.9-2-2.1l1.4-117c0-1.1.9-2.1 2.1-2.1s2.1.9 2.1 2.1l-1.4 117c-.1 1.1-.9 2.1-2 2.1z"/></g><g id="Group_236"><path id="Path_398" class="st0" d="M317 359.7h-.4c-1.1-.2-1.8-1.3-1.6-2.4l29-142.1c.4-1.1 1.5-1.7 2.6-1.3.9.3 1.5 1.2 1.4 2.1l-29 142.1c-.2.9-1 1.6-2 1.6z"/></g><g id="Group_237"><path id="Path_399" class="st0" d="M432.8 359.7c-1 0-1.8-.7-2-1.7l-29-142.1c-.2-1.1.5-2.2 1.6-2.4 1.1-.2 2.2.5 2.4 1.6l29 142.1c.2 1.1-.5 2.2-1.6 2.5h-.4z"/></g><ellipse id="Ellipse_28" class="st0" cx="372.3" cy="208.7" rx="45.4" ry="16.5"/><path class="st0" d="M374.9 289.6c-11.3 0-21.9-1.1-29.9-3.2-9.5-2.5-14.3-6-14.3-10.5s4.8-8 14.3-10.5c8-2.1 18.6-3.2 29.9-3.2s21.9 1.1 29.9 3.2c9.5 2.5 14.3 6 14.3 10.5s-4.8 8-14.3 10.5c-8 2.1-18.6 3.2-29.9 3.2zm0-21.4c-25.3 0-37.8 5.6-38.2 7.7.4 2.1 12.9 7.7 38.2 7.7s37.8-5.6 38.2-7.7c-.4-2.1-12.8-7.7-38.2-7.7z"/></g><g id="Group_246"><g id="Group_245"><g id="Group_239"><path id="Path_400" class="st1" d="M389.3 98.8c0-.3-.2-.5-.4-.7-.1-.1-.3-.2-.5-.3-.4-.1-.8-.2-1.2-.2h-.1c-2.3-.1-4.5.5-6.4 1.7-3.8 2.3-7 5.6-9.2 9.4-.3-2.4-.6-4.7-1-7.1-.4-2.6-.8-5.2-1.3-7.8-.1-.4-.1-.8-.2-1.2-.3-1.6-.6-3.2-1-4.8.5-.4 1.1-.8 1.6-1.2 3.5-2.9 6.5-5.8 8.3-10.5.3-.8.6-1.7.8-2.6.6-2.6.6-5.4-2.7-5.2-3.7.2-6.4 4.2-8.2 7l-.1.2c-.6 1-1.2 2.1-1.8 3.2-.8-3.2-1.7-6.3-2.6-9.5-.8-2.5-1.6-4.9-2.4-7.4-.1-.3-.2-.6-.3-.8l.2-.2c1-.8 2.1-1.4 3-2.3.8-.7 1.5-1.6 2-2.5.3-.5.6-.9.8-1.5 1.2-2.7 1.9-5.5 2.2-8.3.3-1.8.3-3.7.1-5.5-.3-2-1.4-3.5-3.4-3.3-4 .5-5.5 6.5-6.6 9.7-.6 2-1.1 4-1.5 6.1-3.1-7.2-7-14.1-11.5-20.6 3.5-2.1 5.1-7.8 4.5-11.9-.2-1.7-.7-3.3-1.5-4.9-.8-1.6-1.8-3-3-4.4-1.3-1.3-2.6-2.6-4.1-3.7-1.4-1.1-3-2-4.6-2.8-.5-.3-1.1-.1-1.4.4-.1.2-.2.4-.1.6 1.2 6.3 1.9 12.6 3.7 18.2-2.7-3-5.5-5.8-8.6-8.4-1.8-4.9-5-9.1-9.1-12.2C317.2.2 311.5-.9 306.1.3c-.5.2-.8.7-.6 1.2v.1c.6 1.4 1.5 2.7 2.5 3.8l1.5 1.5c.5.5 1 1 1.6 1.4 2.3 1.7 4.7 3.2 7 4.6 1.3.8 2.6 1.5 4 2.1 1.3.7 2.8 1.3 4.2 1.9s2.7 1.2 4 1.9c1.3.7 2.5 1.5 3.6 2.6 2.2 2.1 4.2 4.4 6.1 6.8-1.6-1-3.3-1.7-5.2-2.2-1.7-.5-3.6-.8-5.4-.7-3.6.1-7 1.8-9.3 4.6-.4.3-.4.9-.1 1.2l.2.2c3.5 1.6 7.1 2.8 10.9 3.5 4.4.8 8.9 1 12.6-1.6l.2.3c0 .1.1.1.2.2 4.8 6.9 8.9 14.3 12.1 22.1-1.4-1.3-2.8-2.4-4.4-3.3-2.2-1.6-4.7-2.8-7.3-3.6-2.6-.8-5.3-1.2-8-1-.6.1-1 .6-1 1.2v.1c.3 2.3 1.6 4.4 3.4 5.8.3.2.5.5.8.7 1.7 1.2 3.5 2.2 5.4 3 .8.3 1.7.6 2.6.8 3.5.8 7.5 1 10.2 3.4 4.4 3.9 3.5 11.9 5.9 16.9 0 .1.1.2.1.3-.1-.1-.1-.2-.2-.3-3-5.6-8.5-10.8-14-13.1-1.5-.6-3.1-1.1-4.7-1.2-.5-.1-1.1.3-1.2.8-.7 5.2 2.2 9.4 6.3 13 .5.4.9.8 1.4 1.1 1.6 1.2 3.2 2.4 4.9 3.4l1.9 1.2c2 1.2 3.9 2.2 5.6 3.1.1.1.2.1.3.2.3.2.7.3 1 .5.1 0 .2.1.3.1h.3s.1.1.2.1c.4 1.8.7 3.5 1.1 5.3 0 .1 0 .2.1.3.5 2.8 1 5.6 1.4 8.4.3 1.7.5 3.4.7 5.1 0 .2.1.4.1.6-.1-.2-.2-.3-.4-.5l-.9-1.2c-.5-.6-1-1.3-1.5-1.8-1.4-1.6-3-3-4.8-4.2-1.6-1.1-3.4-2-5.3-2.4-1.3-.4-2.7-.5-4-.4-.4.1-.8.4-.8.9-.1.2 0 .4.1.5.7 1 1.4 2.1 2.1 3.2 2.8 4 6.3 8.2 10.7 10.7l1.8.9c.1 0 .1.1.2.1.4.2.9.4 1.3.5h.1l.9.3 1.2.3c.2 0 .4 1.7.5 3.8.1 1.2.1 2.5.1 3.7.1 1.8.1 3.4.1 3.8v2.5c0 1.5.1 2.9.1 4.4v5.3c0 .9 0 1.7-.1 2.5v.6c0 1.6-.1 3.1-.2 4.7-.2 3.7-.7 7.4-1.4 11-.1.7-.3 1.4-.5 2.1 0 .2-.1.4-.1.6-.1.5-.3 1-.4 1.6H371.6c.2-5.1.6-10.2.9-15.3 0-.6.1-1.2.1-1.8.1-1 .1-1.9.1-2.9s.1-2 .1-3V138.3c0-.5 0-2.5-.1-5.1 0-.7 0-1.4-.1-2.1v-.4c0-1.1-.1-2.2-.1-3.4v-.8c0-1.5-.1-3.1-.2-4.5s-.1-2.9-.1-4.1c-.1-2-.2-3.2-.2-3.2l1.5-.3c1.7-.5 3.3-1.1 4.9-2 .9-.5 1.8-1 2.6-1.6.3-.2.7-.5 1-.8.7-.5 1.3-1.1 1.9-1.7.3-.3.5-.5.7-.8 1.8-2.3 3.4-4.8 4.8-7.4-.1-.7-.1-1-.1-1.3z"/></g><g id="Group_240"><path id="Path_401" class="st2" d="M469.4 61.8c-3-4-9.6-5-15.2-5.1-3.2 0-6.4.5-9.5 1.4-2.9.7-5.4 1.9-8.4 2.4s-5.9 1.2-8.8 2c6-3.9 12.7-8.5 12.1-14.3-.1-.5-.8-.8-1.5-.6-4.5 1.4-8.7 3.7-12.3 6.8-3.6 3.2-5.4 7-4.1 10.1l-.3.1c-.1 0-.1.1-.2.1-3.9 1.6-7.6 3.6-11 6-3.4 2.4-6.5 5.2-9.4 8.2.9-1.8 1.5-3.7 2.1-4.9 2.1-5 4.5-9.9 5.5-14.8.1-.6-.5-.8-1.2-.6-3 1-5.6 2.9-7.5 5.5-1.7 2.2-2.9 4.8-3.6 7.5-1 4.2.8 8.1-.3 12.2-.7 2.7-2.6 5.1-4.5 7.6-1.6 1.9-3 4-4.2 6.3-.2.4-.4.9-.6 1.4.2-.5.3-.9.5-1.4 1.1-3.5 1.9-7 2.5-10.6.7-3.6.7-7.3.2-10.9-.1-.4-.4-.6-.8-.5-.1 0-.2.1-.3.2-5 3.3-7.5 8.8-8.1 14.3-.4 3.1-.4 6.2.1 9.3.3 1.9.7 3.8 1.2 5.6 0 .1 0 .2.1.3.1.3.2.6.2.9.1.2.2.3.3.4v.1c-.6 1.2-1.1 2.4-1.7 3.6-.6 1.4-1.3 2.8-1.8 4.2-1.4 3.2-2.6 6.5-3.7 9.8 0 .1-.1.3-.1.4v-.3c-.1-1.8-.2-3.5-.5-5.2-.1-1-.3-2.1-.6-3.1l-.3-1.2c-.1-.4-.2-.7-.3-1.1-.4-1.4-1.1-2.8-1.9-4-.5-.8-1.2-1.5-2-2-.1-.1-.2-.1-.3-.1-.1 0-.2.1-.3.1-.3.2-.6.5-.6.9-.2 1.2-.3 2.5-.4 3.7-.1.7-.1 1.3-.1 2V117.8c.1 1.3.2 2.6.5 3.8.3 1.9.9 3.7 1.7 5.4.1.2.2.4.3.5 0 .1.1.2.2.4l.2.4c.5.8 1.1 1.5 1.8 2.1l.1.1c.2.2.3.3.5.4-.2.6-.3 1.1-.5 1.7s-.4 1.4-.6 2.1c-.3 1.1-.6 2.3-.9 3.4-.2.9-.4 1.9-.6 2.8 0 .2-.1.4-.1.7-.3 1.6-.6 3.1-.9 4.7-.3 1.9-.6 3.7-.9 5.6-.2 1.7-.4 3.3-.6 5s-.3 3.1-.4 4.6h1.6c.3-5.1.9-10.2 1.8-15.3.3-1.4.5-2.9.8-4.3 0-.1.1-.2.1-.4.2-1 .4-2 .7-3 0-.1.1-.3.1-.4.6-2.6 1.3-5.1 2-7.6 1.6.2 3.1.2 4.7-.1 1.2-.2 2.5-.5 3.7-.9.7-.2 1.4-.5 2.1-.8 2.2-1.1 4.1-2.7 6.4-4 .4-.3.6-.9.3-1.3 0-.1-.1-.1-.2-.2-1.6-1.8-4.4-2.3-7.2-1.7-.8.1-1.6.4-2.4.6-2.1.8-4.1 1.9-5.8 3.4.4-1.2.8-2.3 1.2-3.4.9-2.5 1.9-5 2.9-7.5s2-4.6 3.1-6.9c.1-.2.2-.5.4-.8.1 0 .2 0 .4-.1 2.9-.1 5.7-.6 8.5-1.5 1.1-.4 2.1-.8 3.1-1.4 1.2-.7 3.1-1.7 3.9-3 .6-.8.5-2-.3-2.7-1.9-2.1-5.6-1.4-8.3-.5-.7.2-1.4.4-2.1.7-.3.1-.7.3-1 .4.2-.4.4-.7.6-1.1 2.8-4.7 5.8-9.1 9.2-13.4 1 .2 2 .8 3 1 1.3.2 2.5.3 3.8.1 2.2-.2 4.4-.6 6.5-1.1 1.3-.2 2.6-.6 3.8-1 1.2-.5 2.1-1.3 1.7-2.8-.6-1.5-1.8-2.5-3.3-2.8-1.6-.4-3.2-.6-4.9-.4-1.8.1-3.5.4-5.2.9 2.6-2.7 5.5-5.1 8.5-7.2 3.1-2.1 6.4-3.8 9.8-5.2.7 1.5 1.8 2.8 3.3 3.6 1.5.9 3.1 1.6 4.7 2.1 4.8 1.3 10.1 0 15.1-1.6.4-.1.7-.5.6-.9 0-.2-.1-.3-.3-.4-4.1-3.1-8.9-5.1-14-5.8 3.7-.9 7.4-1.6 11.2-2 8.6 2.5 17.4 4.9 26.6 1.7.4-.1.6-.5.5-.9.1.3.1.3.1.2z"/></g><g id="Group_241"><path id="Path_402" class="st2" d="M378.3 106.3c-2.6-.5-5 1.1-6.9 3.7-1.1 1.5-2.1 3.2-2.7 5-.4 1-.7 2-1 3l-.1.3c-.4-1.4-.8-2.7-1.3-4.1-.1-.2-.1-.3-.2-.5-1.4-4.4-2.9-8.7-4.6-12.9-.2-.7-.5-1.4-.8-2.1.3-.4.6-.8.9-1.3 1.9-2.5 3.2-5.5 3.7-8.7.1-.5.1-1 .1-1.5v-.5c.1-2-.1-5.9-1.9-7-.3-.2-.6-.3-1-.3-.2 0-.4 0-.6.1-2.1.5-3.1 3-3.8 5.4-.2.7-.4 1.4-.5 2.1s-.2 1.1-.4 1.7-.2 1.1-.3 1.7c-1.7-3.4-3.6-6.8-5.6-10-1.2-1.9-2.5-3.7-3.9-5.4.4-1 1.2-1.8 1.5-2.8.5-1.3.7-2.6.6-4 0-.5-.1-1-.1-1.5-.3-2.1-.9-4.2-1.7-6.2-.1-.3-.2-.6-.4-.9-.6-1.4-1.3-2.7-2.2-3.9-1.2-1.6-2.8-2.7-4.4-2-.8.4-1.4 1.2-1.4 2.2-.1.7-.1 1.4 0 2 .3 1.8.6 3.6 1.1 5.3.4 1.7.9 3.6 1.5 5.4-5.4-5.5-11.8-9.9-19-12.8.6-1.6.5-3.5-.3-5-.9-1.9-2.3-3.5-3.9-4.7-2.8-2-6.1-3.2-9.5-3.5-3.4-.3-6.9-.1-10.3.8-.9.2-1 1-.4 1.3 4.6 2.9 9.5 5.9 14.4 8.5-3.9-.6-7.9-.8-11.8-.6-4.5-1.7-9.3-2.4-14.1-2.2-4.9.2-9.6 1.7-13.8 4.3-.3.2-.5.6-.3.9 0 .1.1.1.1.2 4.1 3.1 10.8 2.4 16.3 1.8 3.1-.5 6.2-1.1 9.2-2 2.8-.7 5.5-1.6 8.5-1.4 3 .2 5.9.5 8.8 1.2-3.4.1-6.7 1.3-9.5 3.2-2.4 1.6-3.8 4.3-3.8 7.2 0 .5.5.8.9.8h.1c3.4-.8 6.8-1.9 10-3.2 3.4-1.4 6.8-3.1 8-6.2l.3.1h.2c7.6 3.1 14.4 7.8 19.9 13.9-1.5-.8-3.1-1.4-4.8-1.9-4.8-1.6-9.6-1.5-13.4.6-.4.2-.5.8-.3 1.1 0 0 0 .1.1.1 1.3 1.5 3 2.7 4.9 3.3 2 .7 4.1 1.1 6.2 1.3 3.5.5 7.5-.9 11.2 1.1 2.4 1.3 4.1 4 5.5 6.8s2.5 5.8 4.2 8.1c-2.4-3.3-5.4-6-8.9-8-3.3-1.9-6.8-2.8-9.5-2.4-.4 0-.7.4-.7.8v.1c1.1 4.3 4.4 7.3 8.4 10.1 3.5 2.3 7.2 4.4 11 6.2l1.5.7c.1.1.2.1.3.1l.9.4c.2.1.3.1.5 0l.1.1c1.8 4.5 3.4 9 4.9 13.6.6 1.7 1.1 3.4 1.6 5.1-.8-1.1-1.7-2.2-2.7-3.2-.5-.6-1.1-1.1-1.7-1.6-.3-.3-.6-.5-.9-.8-1.8-1.6-4-2.7-6.4-3.3-.5-.1-1-.2-1.5-.2-.6 0-1.1 0-1.7.1-.5.1-.6 1-.3 1.4.2.3.4.6.7.9 1.6 2.2 3.4 4.4 5.3 6.4 1.3 1.4 2.7 2.6 4.2 3.7 2 1.5 4.3 2.5 6.7 2.8.2.9.5 1.9.8 2.8.1.3.2.7.3 1 .5 1.8.9 3.6 1.3 5.5.2.7.3 1.3.5 2 .2.8.4 1.6.5 2.4.2 1.1.5 2.3.7 3.4 0 .1.1.2.1.4.2.8.4 1.7.5 2.5l.3 1.8c.8 4.4 1.5 8.8 2.1 13.3l.3 2.1h1.5c-.1-.6-.1-1.3-.2-1.9-.1-1-.2-2.1-.4-3.1-.5-3.5-1-7-1.7-10.4-.3-1.6-.6-3.1-.9-4.7-.2-1.1-.4-2.2-.7-3.4 0-.1 0-.2-.1-.3l-.2-3.1c-.2-.9-.4-1.7-.6-2.6l-.8-3.3c-.1-.3-.2-.6-.3-1 0-.1 0-.3-.1-.4 0-.2-.1-.4-.1-.6-.3-1.2-.6-2.4-1-3.6.5-.2.9-.4 1.3-.7.6-.4 1.2-.8 1.7-1.2.9-.7 1.6-1.5 2.3-2.3.4-.4.8-.9 1.1-1.4.7-1 1.2-2 1.7-3.1.4-.9.6-1.8.9-2.8.4-1.3.7-2.7 1-4.1.2-.7-.2-1.4-.9-1.6h.1z"/></g><g id="Group_242"><path id="Path_403" class="st2" d="M373 126.8c-.2 0-.4 0-.5.1-.6.1-1.3.3-1.8.6-.1 0-.2.1-.3.1h-.1c-.4.2-.9.5-1.3.8-.4.2-.7.5-1.1.8-.5.4-1.1.9-1.5 1.4-1.7 1.7-3.1 3.6-4.1 5.8-1.4-3.4-3-6.8-4.7-10 .9-1 1.8-2 2.5-3 .4-.5.8-1.1 1.2-1.6.9-1.3 1.5-2.7 1.9-4.2.1-.4.2-.9.2-1.3v-1.2c0-1-.4-1.8-1.7-1.6l-.2.1c-.2.1-.4.1-.5.2-1.7 1-3.1 2.4-4 4.2-.4.6-.6 1.2-.9 1.8-.3.7-.7 1.5-1 2.3-1.7-2.8-3.5-5.5-5.4-8.1.6-.8 1.4-1.5 2-2.3l.1-.1c.5-.7 1-1.5 1.3-2.4.1-.2.1-.3.2-.5.5-1.7.8-3.6.7-5.4v-1c-.1-1.6-.7-3.8-2.2-3.7-.4 0-.7.1-1 .3-2.5 1.4-2.9 5.6-3.3 7.6-.2 1.3-.4 2.6-.5 3.9-2.6-3.2-5.7-6-9.1-8.2 1.6-2.7 1.8-6.1.3-8.9-2-3.9-6.9-5.1-10.6-4.5-.4.1-.7.6-.6 1 0 .1 0 .1.1.2 1.7 3.4 3.6 6.7 5.8 9.8-2-.7-4-1.3-6.1-1.7-3.9-4.4-9.5-7.2-14.6-4-.3.3-.4.7-.2 1 1.6 4.1 5.1 5.1 8 5.7 1.7.2 3.4.2 5-.2 1.5-.2 3.1-.7 4.7-.3 1.5.4 3 1 4.4 1.6-2.2.2-4.2 1.1-5.8 2.6-1.8 1.8-3.1 4.1-3.5 6.6-.1.5.1.9.3.8 1.9-.5 3.8-1.4 5.5-2.6 2.5-1.5 4.7-3.5 6.3-6l.2.1h.1c3.6 2.4 6.8 5.3 9.5 8.8-1-.3-2.1-.5-3.1-.6-3.4-.5-6.9.4-9.6 2.5-.3.2-.5.6-.6 1 .4 2.2 3.1 2 6.3 1.8 2.6-.3 6.3-2 8.8-1.3 3.4.9 3.5 5.6 5.8 7.6-4-3.1-9.2-4.1-14-2.6-.4.1-.8.5-.8.8 0 3 2.2 4.3 5.3 5 3.4.7 6.8 1 10.3.9H356c.2 0 .3 0 .4-.1h.1c1.7 3.1 3.2 6.2 4.5 9.5-3.9-2.5-8.7-3-13-1.4-.4.2-.6.7-.4.9 3.4 2.1 8.4 4.8 14.7 3.8.3.8.6 1.6.8 2.3.5 1.5 1 2.9 1.4 4.4 1.4 4.9 2.5 9.8 3.2 14.8h1.5c-.1-.7-.2-1.4-.3-2.2s-.3-1.7-.4-2.5c-.3-1.6-.6-3.2-1-4.8-.4-1.9-.9-3.8-1.5-5.6-.4-1.5-.9-3-1.4-4.4-.4-1-.7-2.1-1.1-3.1 1.1-.5 2.2-1.2 3.2-1.9.5-.4 1-.7 1.5-1.2.6-.5 1.2-1 1.7-1.6.2-.2.3-.4.5-.6.2-.2.3-.4.5-.6.3-.3.5-.7.7-1.1.4-.6.7-1.2 1-1.8 0-.1.1-.2.1-.3l1.2-2.7c.1 0-.4-.3-.9-.3z"/></g><g id="Group_243"><path id="Path_404" class="st3" d="M458.6 91.1c-2.7-3.7-7.5-3.8-11.5-3.3-2.3.4-4.5 1.1-6.5 2.3-1.9 1-3.5 2.2-5.6 2.9s-4.1 1.3-6 2.1c3.8-3.6 7.8-8.6 6.3-14.3-.1-.4-.6-.7-1-.5l-.2.1c-3.1 1.6-5.7 4-7.7 6.8-2 3.1-2.9 6.5-1.5 9.5l-.2.1s-.1 0-.1.1c-5.4 2.4-10.5 5.5-15.1 9.3.6-1.2 1.1-2.5 1.5-3.7 1.8-3.8 2.9-8 3.2-12.2 0-.4-.3-.8-.7-.8h-.3c-2.2.5-4.1 1.7-5.4 3.5-1.3 1.7-2.1 3.7-2.5 5.7-.7 3.3.9 7.2-.1 10.3-.8 2-2.2 3.7-3.9 4.9-1.6 1.6-3.5 3-4.3 4.9 2.2-5 3.7-12 2.9-17.4 0-.2 0-.4-.1-.6-.1-.4-.5-.7-.9-.6h-.1c-1 .3-2 .9-2.9 1.5-1.3 1.1-2.4 2.5-3.1 4-.6 1.3-1.1 2.8-1.3 4.2-.4 2.2-.4 4.3-.1 6.5.2 2 .6 3.9 1.2 5.8 0 .1 0 .2.1.2.1.2.1.5.2.8.1.2.2.3.3.4v.2c-2.6 3.8-5.1 7.8-7.2 12 0-2.2-.2-4.4-.7-6.6l-.3-1.2c-.5-2-1.5-3.9-2.8-5.5-.3-.4-.6-.7-1-1-.4-.2-.8-.1-1.1.2 0 .1-.1.1-.1.2-.1.5-.2 1.1-.3 1.6-.4 2.4-.5 4.8-.2 7.2 0 .3 0 .5.1.8.4 3.2 1.9 6.1 4.2 8.3-.4.7-.8 1.5-1.1 2.3-.8 1.5-1.5 3-2.2 4.6-1.5 3.4-3 6.8-4.4 10.2l-1.2 2.9-.9 2.1h1.6c.2-.6.5-1.3.8-1.9 1.8-4.4 3.7-8.9 5.7-13.2.7-1.5 1.4-3 2.2-4.6.4-.8.7-1.5 1.1-2.2 2.6 1 5.3 1.5 8 1.4 3 0 5.4-.9 8.1-1.5.6-.1.6-.7.2-1.1-3-3.5-10.1-4-14.6-2.1 2.3-4.2 4.8-8.3 7.5-12.2 3.8.7 7.2 1.5 10.9.8 1.7-.3 5.2-.7 3.1-3.4-1.7-2.2-5-2.7-7.4-2.7-.9 0-1.9 0-2.8.1 1.3-1.6 2.7-3.2 4.1-4.8s2.9-3.1 4.5-4.4c.9.5 1.7 1.2 2.6 1.6 1 .5 2.1.9 3.2 1.1 1.8.4 3.6.6 5.4.8 1.6 0 5.3.7 4.4-2.2s-4.6-4.1-6.9-4.6c-1.4-.3-2.8-.5-4.3-.4 2.1-1.6 4.3-3.2 6.5-4.6 2.3-1.4 4.7-2.6 7.1-3.7 1.1 2.9 4.6 5 6.9 5.8 3.9 1.3 7.6-.1 10.8-2 .4-.3.4-.8.1-1.2l-.1-.1c-3.3-2.4-7.1-4.6-11.1-5.1 2.6-.9 5.2-1.7 7.8-2.4 6.6 1.9 13.1 3.2 19.1-1 .3-.2.4-.7.1-1z"/></g><g id="Group_244"><path id="Path_405" class="st3" d="M384.7 29.1c6.6-5.9 12.8-11.9 15.3-20.8.1-.4-.1-.8-.5-.9h-.1c-4.9 0-9.5 4.9-12.4 9.6-1.6 2.7-2.9 5.6-3.6 8.6-.9 2.8-1.1 5.5-2.3 8.2s-2.2 5.4-3.1 8.1c.3-3.4 0-6.9-.7-10.2-.7-3.1-2.2-5.8-4.8-7-.5-.2-1.1.2-1.2.9-1.1 4.2-1.4 8.7-.8 13 .6 4.3 2.5 7.9 5.6 8.9l-.1.3v.2c-2.4 7.6-4.3 15.4-5.7 23.2-.3-1.9-.8-3.8-1.1-5-.7-3.5-2-7-3.6-10.2-.6-1.2-1.3-2.2-2-3.3-.4-.5-1-.2-1.3.3-1.3 2.4-1.9 5.1-1.7 7.8 0 .3 0 .7.1 1 .3 2 .8 4 1.6 5.9.2.5.5 1 .8 1.5 1.4 2.2 3.3 4 4.6 6.2.4.7.7 1.4.9 2.1 1.4 5-1.8 11.4-1.4 16.7v.4c0-.3-.1-.5-.1-.8-.3-2.3-.8-4.6-1.4-6.8-.7-2.7-1.7-5.3-2.9-7.8-.9-1.9-2.1-3.6-3.5-5.1-.3-.3-.7-.3-1 0-.1.1-.1.1-.1.2-1.5 2.8-2.1 6-1.7 9.2.2 1.7.5 3.4 1.1 5 .1.3.2.7.3 1 1 2.7 2.3 5.4 4 7.8 1.1 1.6 2.2 3.2 3.5 4.6.1.1.1.2.2.2.2.2.4.5.6.7.1.1.2.2.4.2l.1.1c0 .6-.1 1.1-.1 1.7-.1 2.9-.2 5.8-.2 8.7v8.4c-.8-2-1.8-4-2.9-5.8-.5-.9-1.1-1.8-1.8-2.7-.2-.3-.5-.6-.7-.8-1.4-1.8-3.5-3.1-5.7-3.7-.3 0-.5.2-.6.4-.1.3-.2.6-.1.8.7 2.7 1.6 5.2 2.7 7.8v.1c.8 1.9 1.9 3.7 3.1 5.3 1.5 2.3 3.7 4 6.2 5 0 .8 0 1.5.1 2.3 0 2.2.1 4.4.2 6.6 0 1.6.1 3.2.2 4.8.1 1.5.1 3.1.2 4.6l.3 5.7c.2 3.1.4 6.2.6 9.4h1.5c-.1-1.4-.2-2.8-.2-4.2l-.3-5.4c-.1-1.8-.2-3.7-.3-5.6-.1-1.6-.1-3.1-.2-4.6-.1-1.9-.2-3.9-.2-5.8-.1-2.3-.1-4.6-.2-6.8v-1.7c.3 0 .6-.1.9-.2.4-.1.8-.2 1.3-.3l.2-.1c.2-.1.3-.1.5-.2.6-.2 1.2-.5 1.8-.8.9-.5 1.8-1 2.6-1.6.1 0 .1-.1.2-.1.1-.1.2-.1.3-.2.8-.6 1.5-1.2 2.1-1.9 1.5-1.8 2.9-3.6 4.2-5.6.4-.4.3-1.1-.1-1.4l-.1-.1-.1-.1c-.3-.2-.7-.3-1-.4-.5-.2-1.1-.2-1.6-.2-.6 0-1.1.1-1.7.2-1.2.3-2.3.8-3.3 1.4-.7.4-1.3.9-1.9 1.3-.6.5-1.2 1-1.7 1.6-.8.8-1.6 1.7-2.2 2.7-.2.2-.3.5-.5.7V118v-.1-3.2-2c0-2 .1-3.9.2-5.9 0-1.3.1-2.6.2-3.8.1-.1.2-.1.3-.2.7-.4 1.3-.7 2-1.1 2.9-1.5 5.5-3.6 7.5-6.2 1.3-1.8 4-5.5.8-6.7-2.6-1-5.7 1.3-7.7 3.2-.7.6-1.3 1.3-1.9 2-.1.1-.2.3-.4.4 0-.5.1-1.1.1-1.6.1-2 .4-4 .6-6 .3-3.1.8-6.2 1.2-9.3 1-.3 2.1-.3 3.1-.7 1.2-.4 2.3-1.1 3.4-1.8l1.5-1.2c1.2-1.1 2.3-2.3 3.4-3.6 1-1 1.9-2.2 2.6-3.4.7-1.3 1-2.7-.3-3.6-2.4-1.8-6.5 1.1-8.5 2.8-1.3 1.1-2.5 2.3-3.6 3.7 1.4-7.1 3.1-14.2 5.3-21.1 2.9 1.1 7-.9 9.5-2.9 4-3.4 6-8.8 7.1-13.8.1-.4-.1-.8-.5-.9-.2-.1-.4-.1-.5 0-4.7 1.8-9 4.7-12.4 8.5.7-1.7 1.4-3.4 2.1-5.2l1.4-5.2z"/></g></g></g><g id="Group_248"><g id="Group_247"><path id="Path_406" d="M394.8 210.5c-13.7 4-31.6 4-45.4 0-2.7-19.8-5.5-39.6-8.5-59.3h62.4c-3 19.7-5.8 39.5-8.5 59.3z" fill="#bbbdbf"/></g><path id="Path_407" d="M403.3 151.1h-62.4l2.8 18.3h56.8l2.8-18.3z" fill="#929497"/><path id="Path_408" d="M406.3 151.1h-68.4l2.2 14.2h64.1l2.1-14.2z" fill="#d0d2d3"/><path d="M401.7 162.9h-.1c-.5-.1-.9-.5-.8-1.1l1.2-8.7c.1-.5.5-.9 1.1-.8.5.1.9.5.8 1.1l-1.2 8.7c-.2.5-.6.8-1 .8z" opacity=".64" fill="#fff"/><path d="M392.8 203.8h-.1c-.5-.1-.9-.5-.8-1l3.6-31c.1-.5.5-.9 1-.8.5.1.9.5.8 1l-3.6 31c0 .5-.4.8-.9.8z" opacity=".47" fill="#fff"/></g></g><g id="Group_256"><g id="Group_252"><path id="Path_415" class="st9" d="M209.6 176.1c-3.6 10.7-28.5 66.9-36.1 74.2l16.3 19.1c8.1-5.3 24.8-65.5 27.4-86.1l-7.6-7.2z"/><path id="Path_416" class="st9" d="M223.6 162.6c3.2-1.5 6.6-2.3 10.1-2.5 1.4 0 2.8 0 4.2.2.7.1 3.4.6 3 1.3-.2.3-.6.6-1 .6-1.9.7-3.8 1.3-5.6 2-1.5.5-3 1.1-4.5 1.6-.5.2 1.1 1.2 1.2 1.3.7.6 1.2 1.4 1.5 2.2.6 1.7.7 3.5.1 5.2-1.1 2.6-3.1 4.8-5.6 6.2-3.8 2.3-8.2 3.5-12.6 3.3-2.2-.1-4.5-2.6-5-4.6s.3-4.2 1.4-5.9c2.5-4.1 6.7-7.4 10.8-9.9.6-.3 1.3-.7 2-1z"/></g><path id="Path_417" class="st10" d="M265.2 194.7l-24.7.4c-1.1 0-2-.8-2-1.9v-.1c0-.2 0-.4.1-.6l12.9-46.3c.2-.9 1-1.5 1.9-1.5l24.7-.4c1.1 0 2 .8 2 1.9v.1c0 .2 0 .4-.1.6l-12.9 46.3c-.2.9-1 1.5-1.9 1.5z"/><g id="Group_255"><g id="Group_253"><path id="Path_418" class="st11" d="M378.9 370.6c-4 9.6-10.4 17.9-18.7 24.1-27.6 21-72.5 19-104.6 17.8-63.3-2.4-127.5-9-187.3-31-31.2-11.5-56.1-35.2-64.5-67.9-6.7-26.2-3.7-54 2.3-80.4 5.4-23.9 13.4-47.4 26.2-68.2 16.5-26.8 50.1-62.5 84.9-53.8 14.5 3.6 26.2 14.4 35.5 26.1 11.1 14 19.6 29.7 25.4 46.6 5.6 16.5 8.5 34.2 18.1 48.7 11.3 17.2 30.6 27.2 50.4 31.2 21.7 4.4 43.3-1.4 65.2 2.7 23.3 4.3 45.4 17.1 58.9 36.6s17.5 45.7 8.2 67.5z"/><path id="Path_419" class="st12" d="M159 205.1c.6 19 5.1 38.6 19.1 52.2 10.6 10.4 24.9 16.2 39.4 18.5 22.4 3.7 48 .1 68.6-10.9-13.2.4-26.3 1.4-39.5-1.2-19.8-4-39.1-14-50.4-31.2-9.6-14.5-12.5-32.2-18.1-48.7-3.9-11.3-9-22-15.4-32.1-1.6 17.7-4.3 35.4-3.7 53.4z"/><path id="Path_420" class="st12" d="M275.6 408.1c-17.1-2.3-34.1-5.6-51-8.7-17.5-3.2-35-6.6-52.3-10.8-28.3-6.7-56.4-15.3-82.6-28.3-22.4-11-43.4-25.4-60.1-44C16.8 302 7 285.3.7 267.1c-1.3 15.6-.8 31.3 3.1 46.5 8.4 32.7 33.3 56.4 64.4 67.9 59.8 22.1 124 28.7 187.3 31 16.7.6 36.8 1.4 56.2-.9-12-.7-24.1-1.9-36.1-3.5z"/><path id="Path_421" class="st12" d="M135.3 263.9c-17.1-23.5-28.3-50.9-32.5-79.6-1.1-7.5-1.8-15.4-5.6-22-6.8-11.7-22.6-12.2-20.8 3.4 1.4 12.7 6.4 25.9 11.7 37.4 5.5 12 12.4 23.3 20.5 33.6 7.7 9.9 19.6 17.4 26.7 27.2z"/></g><path id="Path_422" class="st13" d="M491.1 366c-1.3 3.1-5.1 4.5-8.4 4.3s-6.5-1.7-9.7-2.8c-5.9-1.9-12.1-2.4-18.2-1.4-4.6.8-10.2 2.1-13.4-1.3-2.8-3-2-7.6-2.1-11.7-.3-6.8-3.6-13.1-9.1-17.1 1 .7 4.5-6.1 5.9-6.5 3-.7 5.9-2.4 8-.3 4.3 4.4 9.4 14.1 14.2 18.1 9.7 8.3 20.8 14.6 32.8 18.7z"/><path id="Path_423" class="st9" d="M504.6 400.2c-.6 2.2-3.9 1.9-5.7 1.8-2.5-.2-5.1 0-7.6-.3-4.2-.5-8.2.5-12.4.7-4.1.2-8.3-.2-12.3-1.1-5.7-1.4-10.1-1.1-15.8.2-4.3 1-11.6 1.4-14.3-3.1-1.8-3-.3-6.9-.4-10.4 0-5.6-4-10.3-8.2-14-6.6-5.8-13.6-10.9-14-20.6-.3-7 9.4-13.5 15.9-11.5 5.1 1.5 7.5 7.1 9.8 11.9 3 6.4 7 12.2 11.8 17.4 4.9 5.3 12.7 8.5 19 11.8 0 .6 6.1 3.2 6.8 3.5l7.5 3.9 7.2 3.7c2.3 1.1 4.8 1.8 7.3 2 1.3.1 2.5.4 3.6 1 1.3.6 1.9 1.8 1.8 3.1z"/><path id="Path_424" class="st3" d="M372.1 292.3c17.6 10.3 21.1 5.3 37.5 17.4 3.1 2.3 14.9 10.1 18.6 11.2 2.2.7 7.8 7.6 9.5 8.6 3.4 2 12.7 11 12.9 11.8.4 2-11.2 14.2-16.6 17.3-10.2 5.8-17.6 12.9-28.9 16.3-1.5.5-19.7-25.5-37.4-38.7-12.5-9.3-25.2-19-40-24.2-12.2-4.3-22.8-11.1-36.1-12.1-8.9-.7-18-1.6-27-2.1-3.6-.2-26.2-2.9-28 0l19.8-31.5c5.6-9 7.2-13.9 18.1-11.9 21.9 4.1 43.2 10.9 63.4 20.3 11.8 5.1 23.2 11 34.2 17.6z"/><path id="Path_425" class="st10" d="M95.4 63.8c-1.5 5.8-2.8 11.3-6.1 16.5-4.4 6.9-9 14.1-16 18.3-4.5 2.7-9.6 4-14.3 6.2-6.8 3.2-12.8 8.7-15 15.9s.5 16 7.1 19.5c2.6 1.3 5.5 1.8 8.1 3.1s5 3.7 4.8 6.6c-.3 4.3-4.8 6.6-4.1 11.2.9 6.6 8.1 8 12.8 10.7 6.8 3.8 12.9 11.9 20.4 13.9 28.2 7.4 21.3-28.2 34.7-38.7 5.1-4 12.2-3.8 18.3-5.8 13.4-4.4 20.6-18.7 25.9-31.8 5.9-14.6 11.3-30.5 7.9-45.9-2.4-10.4-8.6-19.5-17.3-25.5-25.4-17.2-59.6-3.3-67.2 25.8z"/><path id="Path_426" d="M222.5 263.6c-6.1 5.1-8.9 13-12.3 20.2s-8.1 14.6-15.6 17.1c-5.5 1.8-11.6.5-17.1-1.2-23-7.5-42.4-24.1-55.9-44.1s-21.5-43.4-26.1-67.2c-3.2-16.7-4.2-38.3 12.3-48.8 8.7-5.5 20.1-3.9 29.9-.5 12.6 4.4 25.2 11.4 34.7 20.9 9 9.1 21.8 19.8 22.3 33.7v1.4c-.2 7.7-4.4 14.5-4.7 22.1-.2 6.1 1.3 13.8 3.4 19.5 1.2 3.4 2.9 6.6 4.9 9.6 1.9 2.9 4.2 5.5 6.8 7.8 1.9 1.7 14.6 11.8 17.4 9.5z" fill="#ed5830"/><path id="Path_427" d="M198.3 246.2c-1.8 3.1-3 6.5-3.5 10.1-9.6-7.5-16.2-18.2-18.3-30.2-1-5.7-.8-12.1 3.1-16.4 2.1-2.4 5.2-3.9 7.8-5.8 3.2-2.1 5.8-5.2 7.4-8.7-.2 7.7-4.4 14.5-4.7 22.1-.2 6.1 1.3 13.8 3.4 19.5a38 38 0 004.8 9.4z" fill="#d73b1d"/><path id="Path_428" class="st9" d="M117.2 135.9c11.4 6.7 18.3 31.2 60.8 29.7-11.7-11.1-24.9-29.2-28.9-38.6-2.8-6.5-5.7-13.4-5-20.5s4.5-11.7 12.9-13.1c-6.1-3.6-14.6-4.2-21.3-6.7-2-.6-4.2-.7-6.3-.4 0 0 .3 31.6-12.2 49.6z"/><path id="Path_429" class="st13" d="M148.5 125.5c-2.6-6.1-5-12.5-4.4-19.1.7-7.1 4.5-11.7 12.9-13.1-6.1-3.6-14.6-4.2-21.4-6.7-2-.6-4.2-.7-6.3-.4-.1 6.4-.6 12.8-1.6 19.2 2.6 11.2 11.7 15.6 20.8 20.1z"/><path id="Path_430" class="st1" d="M219.2 311.4c8.8-.3 17.6-1.3 26.6-2.4l60.9-7.2c17.4-2 34-4.9 51.4-2.9 27.8 3.2 45.8 10.7 69.5 24.1 3.7 2.1 15.3 10.6 15.3 10.6 2.2-1.6 6.9-5.8 8.6-9.3 1.2-2.5-27.6-24.6-40.4-35.3-31.6-26.3-70.8-43-111.4-48.9-20.4-2.9-41-3.1-61.4-.4-18.2 2.4-41.1 6.8-55.9 18.5-7.3 5.8-30.1 22.4-22 34.1 6.8 9.8 18.4 13.8 29.5 16.5 9.5 2.2 19.4 3.1 29.3 2.6z"/><g id="Group_254"><path id="Path_431" class="st11" d="M295.1 337.5c-35 2.2-70.4 4.4-104.9-1.9-17.3-3-34-8.6-49.6-16.6-10.2-5.3-38-20.2-39.2-32.9 23.8-7 55.4-2.6 79.4 1.6 26.4 4.7 52 13.3 75.9 25.5 13.5 7 26.3 15.1 38.4 24.3z"/><path class="st16" d="M237 325.6c-.7 0-1.4-.1-2.1-.5-42.6-19.5-89.8-27.7-136.4-23.7-2.7.2-5.1-1.8-5.3-4.5s1.8-5.1 4.5-5.3c48.4-4.1 97.2 4.3 141.4 24.6 2.5 1.1 3.6 4.1 2.4 6.5-.8 1.9-2.6 2.9-4.5 2.9zM321.3 333.9c-.9 0-1.8-.2-2.6-.8-18.1-11.5-40.9-13.9-61-6.5-2.6.9-5.4-.4-6.3-2.9-.9-2.6.4-5.4 2.9-6.3 23-8.4 49-5.7 69.7 7.4 2.3 1.5 3 4.5 1.5 6.8-.9 1.5-2.5 2.3-4.2 2.3z"/></g><path id="Path_434" class="st9" d="M169.6 99.4c-2.7 6.4-6.4 11.9-11.2 14.5-12.2 6.6-24.3-3.7-31.6-13s-11.1-20.6-10.3-31.6c.5-6.5 2.3-15.4 7.6-19.6s13-6.4 19.9-6.5c7.9-.2 18.3 2.2 23.7 8.2 5.2 5.8 7.3 14.2 7.3 21.4-.2 9.2-2 18.2-5.4 26.6z"/><path id="Path_435" class="st10" d="M153.7 59.1c-4 5.2-10.4 7.8-15.4 12-9.4 7.8-9 18.2-10.1 31.7-11.7-6.7-19.9-16.6-22.4-29.8s2.4-28 13.2-36c11.6-8.7 28.8-8.4 40.8-.2s18.5 23.2 17.5 37.6c.9-3-.8-6.1-3.1-8.2s-5.1-3.4-7.6-5.2c-5.9-4.4-8.8-11.2-10.1-18.2 1.7 5.6.7 11.6-2.8 16.3z"/></g><path id="Path_436" class="st9" d="M110.6 168.9c-2.4 6.8-.8 14.3 1.3 21.2 11.8 36.9 38.1 67.4 72.9 84.4 6.1 3 13 5.5 19.7 4.1s12-6.8 16.4-12.1c8-9.7 19.4-56 27.5-66.3 3.7-4.7 8-9.1 10.7-14.5 3.3-6.4 4.3-13.5 4.9-20.7 0-.3-.2-.7-.6-.7-.2 0-.4.1-.5.2-4.8 5.8-16.5 14.2-21.4 17.2l3.9-13.2c-5.6 3.3-9.7 8.7-11.6 14.9-1.7 5.8-1.2 12-2.3 17.9-1.8 9.9-21.2 44.4-26.3 44.4-3.1 0-5.9-1.8-8.4-3.6-21.2-15.5-37.8-36.4-48.4-60.4-2.3-5.2-4.3-10.6-7.7-15.1-7.5-10.2-25.1-11.5-30.1 2.3z"/><path id="Path_437" class="st10" d="M105 183.5c5.5-3.2 8.9-9.2 10.6-15.4s1.9-12.6 2.6-18.9c1.3-11.4 4.4-22.6 7.3-33.7 1.8-7.1 3.1-15.9-2.3-20.8-18.4 13.6-30.9 34.2-38.1 56-3.2 9.5-3.9 18.5.6 27.7 3.5 7 12.1 9.2 19.3 5.1z"/><path class="st13" d="M159.8 100.4c-.3 0-.6-.1-.7-.4-.2-.4-.1-.9.3-1.1.5-.3 1-.5 1.4-.7.8-.3 1.6-.7 2-1.2 0-.3-.1-.9-.2-1.4-.3-2-.9-5.3.3-9.4.5-1.8 1.1-3.5 3-4.5 1.8-.9 3.9-1.2 5.9-.8.4.1.7.5.7 1s-.5.7-1 .7c-1.6-.3-3.4-.1-4.9.7-1.3.7-1.7 1.9-2.2 3.5-1.1 3.8-.6 6.7-.3 8.7.2 1.1.3 1.8.1 2.4 0 .1-.1.1-.1.2-.7 1-1.8 1.5-2.8 1.9-.4.2-.9.4-1.2.6 0-.2-.1-.2-.3-.2z"/><path class="st17" d="M152.3 86c-1.3 0-2.7-.5-3.7-1.4-.3-.3-.4-.8-.1-1.2.3-.3.8-.4 1.2-.1 1.1 1 2.6 1.3 4 .7.4-.2.9.1 1.1.5.2.4-.1.9-.5 1.1-.6.3-1.3.4-2 .4zM169.9 87.9c-.9 0-1.8-.3-2.5-.9-.3-.3-.4-.8-.1-1.2.3-.3.8-.4 1.2-.1.8.7 1.9.7 2.7.2.4-.3.9-.2 1.1.2.3.4.2.9-.2 1.1-.7.4-1.4.7-2.2.7z"/><path class="st13" d="M154.8 81c-.2 0-.3-.1-.5-.2-1.6-1.2-3.8-1.5-5.7-.8-.4.2-.9-.1-1.1-.5-.2-.4.1-.9.5-1.1 2.4-.9 5.1-.5 7.2 1 .4.3.4.8.2 1.2-.1.3-.4.4-.6.4z"/></g></g></g></g></svg>