<?xml version="1.0" encoding="utf-8"?>
<!-- Generator: Adobe Illustrator 24.1.2, SVG Export Plug-In . SVG Version: 6.00 Build 0)  -->
<svg version="1.1" id="Layer_1" xmlns="http://www.w3.org/2000/svg" xmlns:xlink="http://www.w3.org/1999/xlink" x="0px" y="0px"
	 viewBox="0 0 526.3 515.7" style="enable-background:new 0 0 526.3 515.7;" xml:space="preserve">
<style type="text/css">
	.st0{fill:#262728;}
	.st1{fill:#FFA000;}
	.st2{fill:#DF880B;}
	.st3{fill:#FFBC00;}
	.st4{fill:#E7A579;}
	.st5{fill:#E5E6E7;}
	.st6{fill:#1D5DC4;}
	.st7{fill:#A6A8AB;}
	.st8{fill:#E76464;}
	.st9{fill:#F6BD96;}
	.st10{fill:#D0D2D3;}
	.st11{fill:#F0F1F1;}
	.st12{opacity:0.78;fill:#D24242;enable-background:new    ;}
	.st13{fill:#D0CCC8;}
	.st14{fill:#39395C;}
	.st15{fill:#808184;}
	.st16{opacity:0.88;fill:#FFFFFF;enable-background:new    ;}
	.st17{fill:#F17E7E;}
	.st18{fill:#3A3942;}
	.st19{fill:#00B580;}
	.st20{fill:#0A8E6D;}
	.st21{fill:#0B7C5C;}
	.st22{fill:#BBBDBF;}
	.st23{fill:#929497;}
	.st24{opacity:0.64;fill:#FFFFFF;enable-background:new    ;}
	.st25{opacity:0.47;fill:#FFFFFF;enable-background:new    ;}
</style>
<g id="Layer_2_1_">
	<g id="Layer_1-2">
		<g id="Group_61">
			<g id="Group_20">
				<path id="Path_1" class="st0" d="M50,300.3L6.8,454.8c-0.7,2.3,0.7,4.8,3,5.5s4.8-0.7,5.5-3l0,0l48.1-158.1
					C58.9,299.6,54.5,300,50,300.3z"/>
				<g id="Group_18">
					<path id="Path_2" class="st0" d="M199.9,222.8l24.5,199.4c0.2,2-1.2,3.9-3.3,4.1c-2,0.2-3.8-1.1-4.1-3.1l-31.9-198.3
						c-0.7-4,2.1-7.9,6.1-8.5c4-0.7,7.9,2.1,8.5,6.2C199.9,222.6,199.9,222.7,199.9,222.8z"/>
				</g>
				<g id="Group_19">
					<path id="Path_3" class="st0" d="M188,235.2L73.8,202.3c-3.9-1.3-5.9-5.6-4.6-9.4c1.2-3.6,5-5.7,8.7-4.8l0.3,0.1l112.8,37.6
						c2.6,0.9,4,3.7,3.1,6.3C193.2,234.5,190.5,235.9,188,235.2L188,235.2z"/>
				</g>
			</g>
			<g id="Group_21">
				<path id="Path_4" class="st1" d="M380,54.3c-0.4-0.3-0.7-0.5-1.1-0.7c-2.7-1.3-6.1-1.4-9.1-1.8c-3.4-0.3-6.8-0.4-10.3-0.2
					c-6.3,0.1-12.5,0.7-18.8,0.9c-14.4,0.4-28.9,0.2-43.4,0.1c-20.4-0.2-43.2-4.7-62.6,4.1c-17.3,7.8-23.8,27.1-28.1,44.2
					c-5.9,23.4-10.8,47.1-15.7,70.8c-3.1,15.3-7.6,30.3-13.5,44.8c-3.1,7.6-6.6,15.1-9.4,22.8c-1.7,4.6-2.9,9.4-4.6,14
					c-11.7,0.7-23.5,3.9-35.2,4.6c-13.9,0.9-27.7,2.6-41.4,5c-21.3,3.8-44.2,7.1-63.9,16.5c-7.9,3.8-16.8,9.1-20.2,17.7
					c-3.2,8.2-3.3,20.4-2,29c1,6.9,6,6.7,12.7,8c12.3,2.5,25,2,37.3,4.3c18.2,3.5,36.3,7.2,54.4,10.9c9.1,1.9,18.1,3.8,27.2,5.7
					c8.7,1.8,17.1,4.3,25.9,5.3c9.4,1,18.8-1.4,27.9-3.2c17.4-3.5,34.9-6.8,52.5-9.3c18.9-2.7,38-2.5,56.8-5.3
					c9.2-1.4,19.7-0.8,27.9-5.5c10.8-6.2,10.6-21.3,11.4-32.4c1.1-14.3,4-28.3,7-42.3c6.1-27.9,10.9-55.9,16.5-83.9
					c5.5-27.6,10.9-55.4,17.7-82.8c1.5-6.2,4.5-11.9,6.4-18c1.4-4.3,2.4-9,1.9-13.6c-0.2-2.2-1.2-3.8-1.8-5.8
					C382.2,56.7,381.3,55.3,380,54.3z"/>
				<path id="Path_5" class="st2" d="M374.3,67.1c-0.5-4-2.2-7.5-4.7-6.5c-9.2,0.7-15.6,10.8-20,17.9c-7.8,12.6-11.4,26.8-14.9,41.1
					c-4.4,17.9-10.1,35.4-14.7,53.2s-8.4,35.6-12.2,53.4c-5.5,25.4-15.1,48.5,2.9,71.5c2.2,2.8,5.7,5.7,9,4.4c5-2,6.5-15.4,7.4-19.9
					c3.6-17.5,7.1-35,10.8-52.5c8.6-41.3,19-82.1,29.9-122.9C371.3,94.2,375.9,80.6,374.3,67.1z"/>
				<path id="Path_6" class="st3" d="M228.5,280.1c-25.7-15-57-21.6-86.6-19.8c-17.6,1.1-35,5.1-52.2,8.5
					c-9.4,1.9-18.8,3.6-28.2,5.5c-3.9,0.8-7.8,1.6-11.6,2.7c-4.5,1.3-8.6,3.6-13.5,3.7c-0.7,0-1.3,0.5-1.4,1.2
					c-0.1-0.8-0.8-1.3-1.6-1.2c-0.3,0.1-0.6,0.2-0.9,0.5l-1.2,1.4c-0.6,0.6-0.6,1.6,0,2.2c3.4,3.8,7.2,4.8,12.2,4.5
					c8-0.4,16-1.2,24-2c17.8-1.9,35.4-3.2,53.3-3.4c35.7-0.4,71.3,1.9,107-0.8c0.9,0,1.5-0.7,1.5-1.6c0,0,0,0,0,0
					C229.2,280.9,228.9,280.4,228.5,280.1z"/>
				<path id="Path_7" class="st2" d="M239.2,342.3l53.1-7.1c6.8-0.9,13.8-1.9,19.9-5.2c8.5-4.6,18.8-22.1,8.8-30.4
					c-6.8-5.5-20.5-2-28.2-0.6c-12.8,2.3-25.6,4.3-38.5,6.3c-16,2.5-32,5.6-48,8c-8.8,1.3-17.8,2.2-26.6,3.3
					c-6.3,0.8-18.3,0.4-22.8,5.8c-2.7,3.2-1.7,15.3-1.3,19.6c1.4,17.7,46.9,5.2,57,3.8L239.2,342.3z"/>
			</g>
			<g id="Group_41">
				<g id="Group_28">
					<g id="Group_22">
						<path id="Path_8" class="st4" d="M135.8,437.7c3.2-0.2,6.4-1,9.4-2.2l-0.9-20.3l-26-2.6l1,24l1.8,0.2
							C126,437.6,130.9,437.9,135.8,437.7z"/>
						<path id="Path_9" class="st5" d="M135.8,437.7c-4.9,0.2-9.8-0.1-14.7-0.8c-0.6-0.1-1.2-0.1-1.8-0.2l1,23.8l25.8-5.5l-0.9-19.5
							C142.2,436.8,139,437.5,135.8,437.7z"/>
					</g>
					<g id="Group_27">
						<path id="Path_10" class="st6" d="M149.6,458.5c-1.4-3.1-2.6-6.2-3.6-9.5c-8.9,3.3-17.7,1.2-26.5-1.9
							c-1.3,4.6-5.5,9.9-6.6,11.5c-0.2,0.4-0.5,0.7-0.8,1c-0.5,0.7-1.1,1.3-1.8,1.9c-0.6,0.7-1.3,1.3-2.1,1.8
							c-0.7,0.5-1.4,1-2.1,1.5c-0.8,0.5-1.5,1-2.3,1.5s-1.5,0.9-2.2,1.3s-1.3,0.8-1.9,1.1c-0.1,0.1-0.2,0.1-0.3,0.2
							c-0.7,0.4-1.5,0.8-2.3,1.2c-4.9,2.6-10,4.7-15.2,6.5c-1.7,0.4-3.3,1.1-4.7,2.1c-2.8,2.3-3.6,6.3-2,9.6c2,3.5,6.9,2.8,9.9,2.2
							c20.8-3.8,44.6-8.4,65.3-12.6C156.9,476.2,150.9,461,149.6,458.5z"/>
						<path id="Path_11" class="st7" d="M75.5,488.4c2.1,3,6.7,2.3,9.5,1.8c20.8-3.9,44.6-8.4,65.3-12.6c1.8-0.4,3.1-2.1,2.9-3.9
							L75.5,488.4z"/>
						<g id="Group_23">
							<path id="Path_12" class="st7" d="M103,474.9c-0.2,0.2-0.4,0.3-0.6,0.3c-0.4,0.1-0.8-0.1-1.1-0.4l-4.2-5
								c0.8-0.4,1.5-0.8,2.3-1.2l3.7,4.3C103.6,473.6,103.5,474.4,103,474.9z"/>
						</g>
						<g id="Group_24">
							<path id="Path_13" class="st7" d="M107.4,472.3c-0.2,0.2-0.4,0.3-0.6,0.3c-0.4,0.1-0.9-0.1-1.2-0.5l-4.1-4.8
								c0.7-0.4,1.5-0.8,2.2-1.3l3.6,4.2C107.9,471,107.9,471.8,107.4,472.3z"/>
						</g>
						<g id="Group_25">
							<path id="Path_14" class="st7" d="M111.6,469.2c-0.2,0.2-0.4,0.3-0.6,0.3c-0.5,0.1-0.9-0.1-1.2-0.5l-3.7-4.3
								c0.7-0.4,1.4-0.9,2.1-1.5l3.5,4C112.1,467.8,112.1,468.6,111.6,469.2z"/>
						</g>
						<g id="Group_26">
							<path id="Path_15" class="st7" d="M115.8,466c-0.2,0.2-0.4,0.3-0.6,0.3c-0.4,0.1-0.8-0.1-1.1-0.4l-3.8-4.4
								c0.6-0.6,1.2-1.2,1.8-1.9l3.8,4.5C116.3,464.7,116.3,465.5,115.8,466z"/>
						</g>
					</g>
				</g>
				<g id="Group_33">
					<path id="Path_16" class="st6" d="M115.3,286.2c-17.1,6.9-36.8,14.7-54,21.4c-2.5,1-6.6,2.4-8.7,0c-1.8-2.4-1.6-5.8,0.4-8
						c1.1-1,2.4-1.9,3.8-2.5c4.2-2.3,8.2-4.9,12.1-7.8c0.6-0.4,1.2-0.9,1.8-1.3c0.1-0.1,0.2-0.1,0.2-0.2c0.5-0.4,1-0.8,1.5-1.2
						s1.2-0.9,1.8-1.4s1.2-1,1.8-1.6c0.6-0.5,1.1-1,1.6-1.5c0.6-0.5,1.1-1.1,1.6-1.8c0.5-0.6,0.9-1.1,1.3-1.8c0.2-0.3,0.4-0.6,0.6-1
						c0.8-1.4,1.6-3,2.2-4.5c0.5-1.7,0.1-3.6,1.3-5.1s3.3-1.4,5-1.5c0.1,0,0.2,0,0.3,0c2-0.2,2.7-0.9,4.4-1.9
						c2.8-1.7,8.2-2.8,11.2-3.9c0.7-0.2,4.1,7.1,6.8,10.6C113.7,272.9,120.8,284,115.3,286.2z"/>
					<path id="Path_17" class="st7" d="M53,307.8c2.2,2,6,0.7,8.4-0.2c17.2-6.7,36.9-14.4,54-21.4c1.4-0.6,2.3-2.1,2-3.6L53,307.8z"
						/>
					<g id="Group_29">
						<path id="Path_18" class="st7" d="M74.7,292.3c-0.1,0.2-0.3,0.3-0.5,0.4c-0.3,0.1-0.7,0.1-1-0.1l-4.2-3.2
							c0.6-0.4,1.2-0.9,1.8-1.3l3.8,2.8c0.5,0.3,0.6,0.9,0.3,1.4C74.8,292.2,74.8,292.2,74.7,292.3L74.7,292.3z"/>
					</g>
					<g id="Group_30">
						<path id="Path_19" class="st7" d="M78.1,289.5c-0.1,0.2-0.3,0.3-0.5,0.4c-0.3,0.1-0.7,0-1-0.2l-4.1-3.1
							c0.6-0.5,1.2-0.9,1.8-1.4l3.6,2.8C78.3,288.4,78.4,289,78.1,289.5z"/>
					</g>
					<g id="Group_31">
						<path id="Path_20" class="st7" d="M81.3,286.3c-0.1,0.2-0.3,0.3-0.5,0.4c-0.4,0.1-0.8,0.1-1.1-0.1l-3.7-2.8
							c0.6-0.5,1.1-1,1.6-1.5l3.5,2.6C81.6,285.1,81.6,285.8,81.3,286.3z"/>
					</g>
					<g id="Group_32">
						<path id="Path_21" class="st7" d="M84.4,283c-0.1,0.2-0.3,0.3-0.5,0.4c-0.3,0.1-0.7,0.1-1-0.1l-3.8-2.9
							c0.5-0.6,0.9-1.1,1.3-1.8l3.8,2.9C84.7,281.8,84.8,282.5,84.4,283C84.5,283,84.5,283,84.4,283L84.4,283z"/>
					</g>
				</g>
				<path id="Path_22" class="st8" d="M209.3,228.7c-20.2-18.9-45.5-36.8-68.1-52.8c-21.1-14.9-44-39.4-67.2-25.8
					c-28.6,16.9-5.9,78,4.5,109.1c9.1,1.7,19.5-3.4,28.6-1.7c6.7-48.8,1.7-37.8,2.5-51.5c30.5,32.8,55.5,57.3,90.4,68.9L209.3,228.7
					z"/>
				<path id="Path_23" class="st9" d="M156,212.9l24.3,6.8c20.4-3.3,34.4-16.7,43.9-32.6c-7.2-4.2-14-9.4-21.1-12.7
					C191.1,191.1,175.6,203.7,156,212.9z"/>
				<path id="Path_24" class="st7" d="M225,111.4l3.4,2.1c0.2-0.7,0.3-1.4,0.5-2.1H225z"/>
				<path id="Path_25" class="st10" d="M223.5,116.7c-5.4,24.5-12.7,40.5-24.4,56.8c7.2,3.3,20.6,12.1,27.8,16.2
					c16.9-28.2,17.1-66.6,17.1-66.6L223.5,116.7z"/>
				<path id="Path_26" class="st8" d="M213.2,270.4c9.7,6,30.4,4.8,42.7,2.3c-12.2-17.7-35.5-31.5-51.4-47.4
					C198.9,241.8,195.5,259.5,213.2,270.4z"/>
				<path id="Path_27" class="st11" d="M304.1,156.2c-2-17.7-9.3-41.3-25-51.7c-12-7.9-31.7-14.3-46.1-9.8
					c-17,5.4-9.2,32.5-10.4,45.5c-2.2,24-8.2,47.4-17.7,69.5c-1.3,2.9-2.6,5.9-2.6,9.1c0.1,6.6,8,12,12.5,15.9
					c6.2,5.4,12.6,10.6,18.9,15.9c2.6,2.2,33.8,31.6,32.9,32.1c14.2-7.9,29.9-55.6,33.7-73.7C303.9,191.6,306.1,173.8,304.1,156.2z"
					/>
				<g id="Group_34">
					<path id="Path_28" class="st8" d="M269.4,267.6c-1.2-11.6-7.4-14-18.3-14.5c-34.4-1.6-68-4.9-102.6-3.3
						c-10,0.5-21.1,1.8-27.4,9.6c-4.5,5.6-5.3,13.3-5.8,20.5c-3.4,47.9-4,95.9-1.6,143.8c9.9,3.2,20,3.9,35.1,4.8
						c7.1-28.4,21.3-130.3,21.4-130.2c17.2,0.5,30,1.1,47.4,2.4c12.6,1,25.9,0.8,36.9-5.3C264.5,289.6,270.6,278.9,269.4,267.6z"/>
					<path id="Path_29" class="st12" d="M161.8,284.7l-14.8,143.6l2,0.1c7.1-28.4,21.3-130.2,21.4-130.2c17.2,0.5,30,1.1,47.4,2.4
						c12.6,1,25.9,0.8,36.9-5.3c5-2.8,9.1-7,11.8-12.1C235.9,300.7,196.6,281.5,161.8,284.7z"/>
					<path id="Path_30" class="st11" d="M227.2,245.2c15.1,12.6,31.7,26.3,39.4,37.5c6.7-3.8,13.8-16.5,19.8-30.7
						C266.9,247.9,247.1,245.6,227.2,245.2z"/>
				</g>
				<path id="Path_31" class="st13" d="M160.2,235.1c-1.4,0.1-2.8,0.2-4.2,0.4C157.4,235.7,158.8,235.6,160.2,235.1z"/>
				<g id="Group_37">
					<g id="Group_36">
						<path id="Path_32" class="st6" d="M194,37.1c-2.6,5.1-4.3,10.5-5,16.1c-0.7,5.6,0.3,11.4,2.9,16.4c3-11.1,7.2-21.9,12.3-32.2
							L194,37.1z"/>
						<path id="Path_33" class="st9" d="M242.7,117.4L242.7,117.4c8.6-2.3,13.7-11.1,11.4-19.6c0,0,0,0,0,0l0,0l-15.6-58.5
							l-31.1,8.3l15.6,58.5C225.3,114.6,234.2,119.7,242.7,117.4z"/>
						<path id="Path_34" class="st4" d="M243.8,95.7c0.9-4.7,1.2-9.4,0.7-14.2c-0.2-3.6-0.8-7.3-1.7-10.8c-2.6,0.4-5,1.9-7.4,3.1
							c-2.5,1.2-5.1,2.3-7.8,3.2c-3.7,1.4-7.5,2.6-11.2,3.9l6.7,25c0.7,2.7,2.1,5.1,4.1,7.1C235.7,111.6,241.9,104,243.8,95.7z"/>
						<g id="Group_35">
							<path id="Path_35" class="st9" d="M225.1,107.4c-31.6,16.9-49.6-60.7-17.6-78.8C243.7,8.1,255,47,243.8,78.6
								C239.8,89.8,235.7,101.7,225.1,107.4z"/>
							<path id="Path_36" class="st6" d="M247.3,74.8c0.5,2.5,1.4,4.8,2.9,6.9c-0.6-0.8,2.3-7.6,2.6-8.7c2.3-8.3,4.5-16.8,3.7-25.4
								c-0.3-2.9-1-5.8-2.2-8.5c-7.8-17.9-31.6-22.1-47.7-12.7c-3.4,2-6.6,4.3-9.4,7.1c-3.2,2.9-5.5,6.8-6.4,11.1
								c-0.8,4.3,0.3,9,3.5,11.9c9.4,8.6,21.1-2.1,28.9-7.2c3.8-2.5,9.3-4.4,12.5-1.2c4.6,4.5,5.2,15.1,5,21.4
								c0,0.6,2.7,0.7,2.8-0.1c0.2-1.6,0-2.8,1.3-3.4c0.4-0.2,3-1.3,2.4,0C246.1,69.1,246.7,71.7,247.3,74.8z"/>
						</g>
						<path id="Path_37" class="st9" d="M242.8,67c0.4-0.9,1.1-1.7,2-2.1c0.9-0.4,2-0.2,2.7,0.5c0.6,1,0.7,2.2,0.3,3.2
							c-0.9,2.6-2.2,5.1-3.8,7.3L242.8,67z"/>
						<path id="Path_38" class="st6" d="M198.4,94.8c-0.1,0.2-0.2,0.3-0.3,0.5c-1.2,2.5,0.1,5.4,1.4,7.9c2,3.8,4.2,7.9,7.9,10
							c7.2,4.1,15.8-0.3,21.6-4.8c14.2-11.2,19.7-30.2,13.6-47.2c-1.2,1.4-1.9,3.3-2,5.1c-0.2,2.4,0.9,15.3-6.6,23.2
							c-3.3,3.5-9.5,3.7-14,3.3c-5.6-0.4-11.2-2.2-16.8-0.9C201.3,92.2,199.6,93.2,198.4,94.8z"/>
						<path id="Path_39" class="st6" d="M239.4,29.8c-2.3-5.7-3.5-11.8-3.5-17.9c0-4.1,0.9-8.7,4.4-10.8c3.6-2.3,8.6-0.6,11.9,2.1
							c4.1,3.3,7,8.9,5.4,14c-2.4,7.9-13.8,10.6-15.6,18.7L239.4,29.8z"/>
						<path id="Path_40" class="st9" d="M204.2,94.6c-1.4,1.2-1.9,3.1-1.1,4.8c0.3,0.7,0.8,1.2,1.5,1.4c0.6,0.1,1.3-0.1,1.8-0.5
							c0.5-0.4,0.9-0.9,1.2-1.5c0.8,0.8,1.7,1.5,2.7,2.1c1,0.6,2.2,0.7,3.3,0.3c1.1-0.4,1.8-1.5,1.7-2.7c-0.2-0.7-0.6-1.4-1.2-1.9
							C212,94.7,207,92.4,204.2,94.6z"/>
					</g>
					<path class="st4" d="M206.5,89.9C206.5,89.9,206.5,89.9,206.5,89.9c-1,0-2-0.2-3-0.5c-0.8-0.1-1.5-0.7-1.9-1.4l-0.1-0.2
						c-0.2-0.9,0-1.9,0.5-2.7c1.4-3.1,0.8-6.7-0.1-10.7c-0.1-0.5,0.2-1,0.7-1.1c0.5-0.1,1,0.2,1.1,0.7c0.7,3.4,1.7,8-0.1,12
						l-0.1,0.1c-0.2,0.3-0.3,0.7-0.3,1.1c0.2,0.2,0.4,0.4,0.7,0.4c0.9,0.3,1.7,0.4,2.6,0.4c0.5,0,0.9,0.4,0.9,1
						C207.4,89.6,207,89.9,206.5,89.9z M202.8,85.6L202.8,85.6L202.8,85.6z"/>
					<path class="st14" d="M216.4,79c-0.2,0-0.3,0-0.5,0c-1-0.1-2-0.6-2.6-1.5c-0.3-0.4-0.2-1,0.1-1.3c0.4-0.3,1-0.2,1.3,0.1
						c0.7,0.9,2,1.1,2.9,0.3c0.4-0.3,1-0.3,1.3,0.1c0.3,0.4,0.3,1-0.1,1.3C218.1,78.8,217.3,79,216.4,79z"/>
					<path class="st14" d="M195.9,79.5c-1,0-2-0.4-2.8-1.2c-0.3-0.4-0.3-0.9,0-1.3c0.4-0.3,0.9-0.3,1.3,0c0.6,0.6,1.5,0.8,2.3,0.5
						c0.5-0.2,1,0,1.2,0.5c0.2,0.5,0,1-0.5,1.2C196.9,79.4,196.4,79.5,195.9,79.5z"/>
					<path class="st14" d="M221.8,73.8c-0.1,0-0.3,0-0.4-0.1c-3.6-1.4-7.5-1.7-11.3-1.1c-0.6,0.1-1.2-0.3-1.3-0.9
						c-0.1-0.6,0.3-1.2,0.9-1.3c4.2-0.7,8.5-0.3,12.5,1.2c0.6,0.2,0.9,0.9,0.7,1.5C222.7,73.5,222.3,73.8,221.8,73.8z"/>
					<path class="st14" d="M192.8,73.6c-0.6,0-1.1-0.4-1.1-1c-0.1-0.6,0.3-1.2,1-1.3c2.1-0.3,4.2-0.3,6.2,0c0.6,0.1,1.1,0.7,1,1.3
						c-0.1,0.6-0.7,1.1-1.3,1c-1.8-0.3-3.7-0.3-5.6,0C192.9,73.6,192.9,73.6,192.8,73.6z"/>
				</g>
				<g id="Group_38">
					<rect id="Rectangle_18" x="180.4" y="244.7" class="st15" width="55.4" height="5.6"/>
					<path id="Path_46" class="st7" d="M104.6,250.2h99.6l-14.2-55.6c-1.1-4.1-4.8-7-9-7H93.7c-2.2,0-4,1.8-4,4c0,0.3,0,0.7,0.1,1
						L104.6,250.2z"/>
					<path id="Path_47" class="st15" d="M189.9,194.7l14.2,55.6H198l-16-62.5C185.8,188.2,189,190.9,189.9,194.7z"/>
					<circle id="Ellipse_1" class="st16" cx="141.2" cy="217" r="4.7"/>
				</g>
				<path id="Path_48" class="st9" d="M252.4,168.2c-2.1,19.6-8.5,67.4-8.5,67.4c-15.3-4.7-30.4-4.3-45.6-7.7l3.7,14.4
					c20.3,5.9,39.7,13.3,43.1,14.3c6,1.7,13,1.5,18-2.3c4.5-3.4,6.5-9.1,8.2-14.5c6.3-20.4,11.8-40.7,14-61.4
					C272.6,175.6,267,168.2,252.4,168.2z"/>
				<g id="Group_40">
					<path id="Path_49" class="st11" d="M287.1,150.9c-0.9-12-1.9-31.1-11.2-36.9c-14.2-8.8-27.9,6.4-28.8,20.4
						c-1,15.8-3.8,30.9-5.4,46c16.1,0,30.8,0.2,44.8,3.2C287.7,172.8,287.9,161.8,287.1,150.9z"/>
					<path id="Path_50" class="st10" d="M287.1,150.9c-0.8-10.5-1.6-26.6-8.2-34.2c6.9,21.2,4.7,44.2,3,66.1c1.5,0.3,3,0.5,4.5,0.9
						C287.6,172.8,287.9,161.8,287.1,150.9z"/>
					<g id="Group_39">
						<path id="Path_51" class="st5" d="M246.3,143.4c0.1-0.5,0.1-1,0.1-1.6C246.4,142.3,246.3,142.8,246.3,143.4z"/>
						<path id="Path_52" class="st5" d="M246.3,143.4c-1.3,12.6-3.3,24.8-4.6,37.1c1.6,0,3.1,0,4.6,0
							C245.8,164.7,245.5,152.8,246.3,143.4z"/>
					</g>
				</g>
				<path id="Path_53" class="st17" d="M111.9,411.1c-0.4,0.3-0.8,0.7-1,1.2c-1,2-0.1,4.5-0.1,6.6v6.3c0,0,15.1,8.6,40.9,5.1
					c0.6-0.1,2.1-10.5,2.2-11.5c0.7-5.9-8.7-3.7-12.3-3.8c-4.5-0.1-9.1-0.4-13.6-0.9c-4.1-0.4-8.2-1.2-12.2-2.4
					C114.3,411.3,113,410.4,111.9,411.1z"/>
				<path id="Path_54" class="st17" d="M77.7,265.1c0.8,2.2,2,4.4,4,5.4c1.9,0.9,4.1,0.5,6.2,0.1c7.9-1.4,15.6-3.2,23.4-5.2
					c-0.3-3.5-0.6-7-0.8-10.4c0-0.8-0.2-1.5-0.6-2.1c-1-1.4-3.1-1.2-4.7-0.8c-9.4,2.2-20.6,3.2-29.5,6.9
					C76.1,261.1,76.8,263.1,77.7,265.1z"/>
			</g>
			<g id="Group_45">
				<g id="Group_42">
					<path id="Path_55" class="st0" d="M243.1,231.6l-77.6,255.2c-0.8,2.3-3.3,3.6-5.6,2.8c-2.2-0.7-3.5-3-2.9-5.3l71.9-256.9
						c1.1-3.9,5.2-6.3,9.1-5.1c3.9,1.1,6.3,5.2,5.2,9.1l0,0C243.1,231.4,243.1,231.5,243.1,231.6z"/>
				</g>
				<g id="Group_43">
					<path id="Path_56" class="st0" d="M314.4,252.3l24.5,199.4c0.3,2-1,3.9-3.1,4.2c-2,0.3-3.9-1-4.2-3.1c0-0.1,0-0.1,0-0.2
						l-31.9-198.3c-0.7-4,2.1-7.9,6.1-8.5s7.9,2.1,8.5,6.1C314.4,252.1,314.4,252.2,314.4,252.3z"/>
				</g>
				<g id="Group_44">
					<path id="Path_57" class="st0" d="M338.2,264.7l-124-35.9c-3.9-1.1-6.2-5.3-5.1-9.2s5.3-6.2,9.2-5.1l0,0l0,0l0.3,0.1
						l122.5,40.7c2.6,0.8,4.1,3.6,3.3,6.2C343.5,264,340.8,265.5,338.2,264.7L338.2,264.7z"/>
				</g>
			</g>
			<g id="Group_60">
				<g id="Group_49">
					<g id="Group_46">
						<path id="Path_58" class="st18" d="M431.4,497.6h-0.2c-1.1,0-1.9-0.9-1.9-1.9c0,0,0,0,0,0l0,0l1.3-107.8
							c0-1.1,0.9-1.9,1.9-1.9s1.9,0.9,1.9,1.9v0.1l-1.3,107.8C433.1,496.7,432.4,497.5,431.4,497.6z"/>
					</g>
					<g id="Group_47">
						<path id="Path_59" class="st18" d="M385.7,515.7c-0.1,0-0.3,0-0.4,0c-1-0.2-1.7-1.2-1.5-2.2l26.7-131c0.2-1,1.3-1.7,2.3-1.4
							c1,0.2,1.6,1.2,1.4,2.2l-26.7,130.9C387.4,515.1,386.6,515.7,385.7,515.7z"/>
					</g>
					<g id="Group_48">
						<path id="Path_60" class="st18" d="M492.4,515.7c-0.9,0-1.7-0.6-1.9-1.5l-26.7-130.9c-0.2-1,0.4-2.1,1.5-2.3s2.1,0.4,2.3,1.5
							v0.1l26.7,130.9c0.2,1-0.5,2-1.5,2.2C492.6,515.7,492.5,515.7,492.4,515.7z"/>
					</g>
					<ellipse id="Ellipse_2" class="st18" cx="436.7" cy="376.5" rx="41.9" ry="15.2"/>
					<path class="st18" d="M439.1,451.3c-15.2,0-40.9-2.7-40.9-12.9s25.7-12.9,40.9-12.9s40.9,2.7,40.9,12.9
						S454.3,451.3,439.1,451.3z M404.2,438.5c0.9,2,12.3,6.9,35,6.9s34-4.9,35-6.9c-0.9-2-12.3-6.9-35-6.9S405.1,436.4,404.2,438.5z
						"/>
				</g>
				<g id="Group_57">
					<g id="Group_56">
						<g id="Group_50">
							<path id="Path_61" class="st19" d="M452.3,275.3c0-0.2-0.2-0.5-0.4-0.6c-0.1-0.1-0.3-0.2-0.4-0.2c-0.4-0.1-0.8-0.2-1.1-0.2
								c0,0-0.1,0-0.1,0c-2.1-0.1-4.2,0.5-5.9,1.6c-3.5,2.2-6.4,5.1-8.5,8.6c-0.2-2.2-0.5-4.4-0.9-6.5c-0.4-2.4-0.8-4.8-1.2-7.2
								c0-0.4-0.1-0.7-0.2-1.1c-0.3-1.5-0.6-2.9-0.9-4.4c0.5-0.4,1-0.8,1.4-1.1c3.2-2.6,6-5.4,7.7-9.7c0.3-0.8,0.5-1.6,0.7-2.4
								c0.6-2.3,0.6-5-2.5-4.8c-3.4,0.2-5.9,3.8-7.6,6.5l-0.1,0.2c-0.6,0.9-1.1,1.9-1.7,3c-0.8-2.9-1.6-5.8-2.5-8.7
								c-0.7-2.3-1.5-4.6-2.2-6.8c-0.1-0.3-0.2-0.5-0.3-0.8c0.1-0.1,0.1-0.1,0.2-0.2c0.9-0.8,1.9-1.3,2.8-2.1
								c0.7-0.7,1.3-1.5,1.8-2.3c0.3-0.4,0.5-0.9,0.7-1.3c1.1-2.4,1.8-5,2-7.7c0.3-1.7,0.3-3.4,0-5.1c-0.3-1.8-1.2-3.2-3.1-3
								c-3.7,0.4-5.1,6-6.1,8.9c-0.6,1.8-1,3.7-1.4,5.6c-2.9-6.7-6.4-13-10.6-18.9c3.2-1.9,4.7-7.2,4.1-10.9
								c-0.2-1.6-0.6-3.1-1.4-4.5c-0.8-1.4-1.7-2.8-2.7-4c-2.3-2.5-5-4.5-8-5.9c-0.4-0.3-1-0.1-1.2,0.3c-0.1,0.2-0.2,0.4-0.1,0.7
								c1.1,5.8,1.8,11.6,3.4,16.8c-2.4-2.8-5.1-5.4-7.9-7.8c-1.7-4.5-4.6-8.4-8.4-11.3c-4.1-3-9.4-4.1-14.3-3
								c-0.5,0.1-0.7,0.6-0.6,1.1c0,0,0,0,0,0c0,0,0,0.1,0,0.1c0.6,1.3,1.3,2.5,2.3,3.5c0.4,0.5,0.9,0.9,1.4,1.4
								c0.5,0.5,1,0.9,1.5,1.3c2.1,1.6,4.3,3,6.4,4.3c1.2,0.8,2.4,1.4,3.7,2c1.2,0.6,2.6,1.2,3.9,1.8s2.4,1.1,3.6,1.7
								c1.2,0.6,2.3,1.4,3.3,2.4c2,2,3.9,4.1,5.6,6.2c-1.5-0.9-3.1-1.6-4.8-2.1c-1.6-0.5-3.3-0.7-5-0.6c-3.3,0.1-6.5,1.7-8.6,4.2
								c-0.3,0.3-0.4,0.8,0,1.1c0,0,0.1,0.1,0.1,0.1c3.2,1.5,6.6,2.5,10,3.2c4,0.7,8.2,0.9,11.6-1.5l0.2,0.2c0,0.1,0.1,0.1,0.1,0.1
								c4.4,6.4,8.2,13.2,11.2,20.4c-1.2-1.2-2.6-2.2-4.1-3.1c-2.1-1.4-4.3-2.5-6.7-3.3c-2.4-0.8-4.9-1.1-7.4-0.9c-0.6,0-1,0.4-1,1
								c0,0,0,0,0,0.1v0.1c0.3,2.1,1.5,4,3.1,5.4c0.3,0.2,0.5,0.4,0.8,0.6c1.6,1.1,3.2,2,5,2.7c0.8,0.3,1.6,0.5,2.4,0.7
								c3.2,0.8,6.9,0.9,9.4,3.1c4.1,3.6,3.2,10.9,5.5,15.6c0,0.1,0.1,0.2,0.1,0.3l-0.2-0.3c-2.9-5.3-7.4-9.6-12.9-12.1
								c-1.4-0.6-2.8-1-4.3-1.1c-0.5-0.1-1,0.3-1.1,0.7c-0.6,4.8,2,8.6,5.8,12c0.4,0.4,0.8,0.7,1.3,1c1.4,1.1,2.9,2.2,4.5,3.1
								c0.6,0.4,1.2,0.7,1.8,1.1c1.8,1.1,3.5,2,5.1,2.9c0.1,0.1,0.2,0.1,0.3,0.1c0.3,0.2,0.6,0.3,0.9,0.5c0.1,0,0.2,0.1,0.3,0.1
								c0.1,0,0.2,0,0.3,0c0,0,0.1,0.1,0.1,0.1c0.4,1.6,0.7,3.2,1,4.9c0,0.1,0,0.2,0,0.3c0.5,2.6,0.9,5.2,1.3,7.8
								c0.2,1.6,0.5,3.1,0.6,4.7c0,0.2,0.1,0.4,0.1,0.6c-0.1-0.2-0.2-0.3-0.3-0.5c-0.3-0.4-0.5-0.8-0.8-1.1
								c-0.4-0.6-0.9-1.1-1.4-1.7c-1.3-1.5-2.8-2.8-4.5-3.9c-1.5-1-3.1-1.8-4.9-2.2l0,0c-1.2-0.3-2.4-0.4-3.7-0.4
								c-0.4,0.1-0.7,0.4-0.8,0.8c0,0.2,0,0.3,0.1,0.5c0.6,1,1.3,2,2,3c2.6,3.7,5.8,7.5,9.9,9.9c0.5,0.3,1.1,0.6,1.6,0.8
								c0,0,0.1,0.1,0.2,0.1c0.4,0.2,0.8,0.3,1.2,0.5c0,0,0,0,0.1,0c0.3,0.1,0.6,0.2,0.9,0.3c0.4,0.1,0.7,0.2,1.1,0.3
								c0.2,0,0.4,1.6,0.4,3.5l0,0c0.1,1.1,0.1,2.3,0.1,3.4c0.1,1.7,0.1,3.1,0.1,3.5v0.3c0,0.2,0,0.4,0,0.5c0,0.3,0,0.6,0,0.9
								c0,0.2,0,0.3,0,0.5c0,1.4,0.1,2.7,0.1,4c0,0.8,0,1.5,0,2.3s0,1.7,0,2.6l-0.1,2.3c0,0.2,0,0.4,0,0.6c0,1.5-0.1,2.9-0.2,4.3
								c-0.2,3.4-0.6,6.8-1.2,10.2l0,0c-0.1,0.6-0.3,1.3-0.4,1.9c0,0.2-0.1,0.4-0.1,0.5c-0.1,0.5-0.2,1-0.4,1.5h0.8h0.5
								c0.6,0,1.3,0,2,0l0,0c0.2-4.7,0.6-9.4,0.8-14.1c0-0.5,0.1-1.1,0.1-1.7c0.1-0.9,0.1-1.8,0.1-2.6s0.1-1.8,0.1-2.7
								c0-0.2,0-0.5,0-0.7v-0.2c0-0.5,0-2.3-0.1-4.7c0-0.6,0-1.3-0.1-2v-0.4c0-1-0.1-2.1-0.1-3.1c0-0.2,0-0.5,0-0.7
								c0-1.4-0.1-2.9-0.2-4.2s-0.1-2.7-0.1-3.8c-0.1-1.8-0.1-3-0.2-3c0.5-0.1,0.9-0.2,1.4-0.3c1.6-0.4,3.1-1,4.5-1.8
								c0.8-0.4,1.6-0.9,2.4-1.5c0.3-0.2,0.6-0.5,0.9-0.7c0.6-0.5,1.2-1,1.7-1.6c0.2-0.2,0.4-0.5,0.6-0.7c1.6-2.1,3.1-4.4,4.4-6.8
								C452.4,275.9,452.4,275.6,452.3,275.3z"/>
						</g>
						<g id="Group_51">
							<path id="Path_62" class="st20" d="M526.1,241.2c-2.8-3.7-8.8-4.6-14-4.7c-3,0-5.9,0.4-8.7,1.3c-2.7,0.7-5,1.7-7.8,2.2
								c-2.7,0.5-5.4,1.1-8.1,1.9c5.5-3.6,11.7-7.9,11.2-13.2c-0.1-0.5-0.8-0.7-1.4-0.5c-4.2,1.3-8.1,3.4-11.4,6.2
								c-3.3,2.9-5,6.5-3.8,9.3l-0.3,0.1c-0.1,0-0.1,0.1-0.2,0.1c-3.6,1.5-7,3.3-10.1,5.5c-3.1,2.2-6,4.8-8.6,7.6
								c0.8-1.6,1.4-3.4,1.9-4.5c2-4.6,4.1-9.1,5.1-13.6c0.1-0.6-0.4-0.8-1.1-0.6c-2.8,0.9-5.2,2.7-7,5.1c-1.6,2.1-2.7,4.4-3.3,6.9
								c-0.9,3.9,0.7,7.5-0.3,11.2c-0.7,2.5-2.4,4.7-4.1,7c-1.5,1.8-2.8,3.7-3.9,5.8c-0.2,0.4-0.4,0.8-0.5,1.3
								c0.1-0.4,0.3-0.8,0.4-1.3c1-3.2,1.8-6.5,2.2-9.8c0.6-3.3,0.7-6.7,0.2-10.1c-0.1-0.3-0.4-0.5-0.7-0.5c-0.1,0-0.2,0.1-0.3,0.1
								c-4.6,3-6.9,8.1-7.5,13.2c-0.4,2.9-0.3,5.7,0.1,8.6c0.2,1.8,0.6,3.5,1.1,5.2c0,0.1,0,0.2,0.1,0.3c0.1,0.3,0.2,0.6,0.2,0.8
								c0.1,0.2,0.2,0.3,0.3,0.4c0,0,0,0.1,0,0.1c-0.5,1.1-1,2.2-1.5,3.3c-0.6,1.3-1.2,2.6-1.7,3.9c-1.3,3-2.4,6-3.4,9.1
								c0,0.1-0.1,0.2-0.1,0.4c0-0.1,0-0.2,0-0.3c-0.1-1.6-0.2-3.2-0.5-4.8c-0.1-1-0.3-1.9-0.5-2.9c-0.1-0.4-0.2-0.7-0.3-1.1
								s-0.2-0.6-0.3-1c-0.4-1.3-1-2.5-1.8-3.7c-0.5-0.7-1.1-1.3-1.8-1.8c-0.1-0.1-0.2-0.1-0.3-0.1c-0.1,0-0.2,0.1-0.2,0.1
								c-0.3,0.2-0.5,0.5-0.6,0.9c-0.2,1.1-0.3,2.3-0.4,3.4c-0.1,0.6-0.1,1.2-0.1,1.8c0,1,0,2,0,2.9c0,0,0,0.1,0,0.1
								c0.1,1.2,0.2,2.4,0.4,3.5c0.3,1.7,0.8,3.4,1.6,4.9c0.1,0.2,0.2,0.3,0.3,0.5c0,0.1,0.1,0.2,0.2,0.3l0.2,0.4
								c0.5,0.7,1,1.4,1.7,1.9l0.1,0.1c0.2,0.2,0.3,0.3,0.5,0.4c-0.2,0.5-0.3,1-0.4,1.6s-0.4,1.3-0.5,2c-0.3,1-0.5,2.1-0.8,3.2
								c-0.2,0.8-0.4,1.7-0.6,2.6c0,0.2-0.1,0.4-0.1,0.6c-0.3,1.4-0.6,2.9-0.8,4.3c-0.3,1.7-0.6,3.4-0.8,5.2c-0.2,1.5-0.4,3-0.5,4.6
								s-0.2,2.8-0.4,4.3h1.5c0.3-4.7,0.9-9.4,1.7-14.1c0.2-1.3,0.5-2.7,0.8-4c0-0.1,0.1-0.2,0.1-0.3c0.2-0.9,0.4-1.8,0.6-2.7
								c0-0.1,0.1-0.2,0.1-0.4c0.5-2.4,1.2-4.7,1.9-7c1.4,0.2,2.9,0.2,4.3-0.1c1.2-0.2,2.3-0.4,3.4-0.8c0.7-0.2,1.3-0.5,1.9-0.8
								c2-1,3.8-2.5,5.9-3.7c0.4-0.3,0.6-0.8,0.3-1.2c0-0.1-0.1-0.1-0.1-0.2c-1.5-1.6-4-2.1-6.7-1.6c-0.8,0.1-1.5,0.3-2.2,0.6
								c-0.8,0.3-1.5,0.6-2.3,1c-1.1,0.6-2.1,1.3-3,2.1c0.3-1.1,0.7-2.1,1.1-3.2c0.8-2.3,1.7-4.6,2.7-6.9s1.9-4.3,2.9-6.4
								c0.1-0.2,0.2-0.5,0.3-0.7h0.3c2.7-0.1,5.3-0.6,7.8-1.4c1-0.3,2-0.8,2.9-1.3c1.1-0.6,2.9-1.5,3.6-2.7c0.6-0.8,0.5-1.8-0.3-2.5
								c-1.7-1.9-5.2-1.3-7.7-0.5c-0.6,0.2-1.3,0.4-1.9,0.7c-0.3,0.1-0.6,0.3-1,0.4c0.2-0.3,0.4-0.7,0.6-1c2.5-4.3,5.3-8.5,8.4-12.5
								c1,0.2,1.8,0.7,2.8,0.9c1.2,0.2,2.3,0.3,3.5,0.1c2-0.2,4-0.6,6-1c1.2-0.2,2.4-0.5,3.5-0.9c1.1-0.5,1.9-1.2,1.5-2.5
								c-0.5-1.3-1.7-2.3-3.1-2.6c-1.5-0.4-3-0.5-4.5-0.4c-1.6,0.1-3.3,0.4-4.8,0.9c2.4-2.5,5-4.7,7.9-6.6c2.8-1.9,5.9-3.5,9-4.8
								c0.6,1.4,1.7,2.6,3,3.3c1.4,0.8,2.8,1.4,4.4,1.9c4.5,1.2,9.3,0,13.9-1.4c0.4-0.1,0.6-0.5,0.5-0.8c0-0.2-0.1-0.3-0.3-0.4
								c-3.8-2.9-8.2-4.7-12.9-5.3c3.4-0.8,6.9-1.4,10.4-1.8c8,2.3,16,4.5,24.6,1.6c0.3-0.1,0.5-0.5,0.4-0.8
								C526.2,241.4,526.2,241.3,526.1,241.2z"/>
						</g>
						<g id="Group_52">
							<path id="Path_63" class="st20" d="M442.2,282.2c-2.4-0.5-4.6,1-6.3,3.4c-1,1.4-1.9,3-2.5,4.6c-0.3,0.9-0.6,1.8-0.9,2.7l0,0
								c0,0.1,0,0.2,0,0.3c-0.4-1.3-0.8-2.5-1.2-3.8c-0.1-0.2-0.1-0.3-0.1-0.5c-1.3-4-2.7-8-4.2-11.9c-0.2-0.6-0.5-1.3-0.8-1.9
								c0.3-0.4,0.5-0.8,0.8-1.2l0,0c1.8-2.3,2.9-5.1,3.4-8c0.1-0.4,0.1-0.9,0.1-1.4c0-0.2,0-0.3,0-0.5c0.1-1.8,0-5.5-1.8-6.4l0,0
								c-0.3-0.2-0.6-0.2-0.9-0.2c-0.2,0-0.4,0-0.6,0.1c-2,0.4-2.9,2.7-3.5,5c-0.2,0.7-0.3,1.3-0.5,1.9s-0.2,1-0.3,1.6
								s-0.2,1-0.2,1.5c-1.6-3.2-3.3-6.3-5.2-9.2c-1.1-1.7-2.3-3.4-3.5-5c0.4-0.9,1.1-1.6,1.4-2.6c0.4-1.2,0.6-2.4,0.5-3.7
								c0-0.4-0.1-0.9-0.1-1.4c-0.3-2-0.8-3.9-1.6-5.7c-0.1-0.2-0.2-0.5-0.3-0.8c-0.5-1.3-1.2-2.5-2-3.6c-1.1-1.4-2.6-2.5-4-1.8
								c-0.8,0.4-1.3,1.1-1.3,2c-0.1,0.6-0.1,1.3,0,1.9c0.2,1.7,0.6,3.3,1,4.9c0.4,1.6,0.9,3.3,1.4,5c-5-5.1-10.9-9.1-17.5-11.8
								c0.6-1.5,0.5-3.2-0.3-4.6c-0.8-1.7-2-3.2-3.5-4.3c-2.6-1.9-5.6-3-8.8-3.2c-3.2-0.3-6.4-0.1-9.5,0.7c-0.8,0.2-0.9,0.9-0.4,1.2
								c4.3,2.6,8.8,5.5,13.3,7.8c-3.6-0.5-7.3-0.7-10.9-0.5c-4.2-1.5-8.6-2.2-13-2c-4.5,0.2-8.9,1.5-12.7,3.9
								c-0.3,0.2-0.4,0.5-0.2,0.9c0,0.1,0.1,0.1,0.1,0.2c3.8,2.9,9.9,2.2,15,1.6c2.9-0.4,5.7-1,8.5-1.9c2.6-0.6,5-1.5,7.9-1.3
								c2.7,0.1,5.4,0.4,8.1,0.9c-3.1,0.1-6.2,1.2-8.7,3c-2.2,1.5-3.5,4-3.5,6.7c0,0.4,0.4,0.7,0.8,0.7c0,0,0,0,0,0h0.1
								c3.1-0.8,6.2-1.8,9.2-3c3.1-1.3,6.3-2.9,7.4-5.7l0.3,0.1h0.2c7,2.8,13.3,7.2,18.3,12.8c-1.4-0.7-2.9-1.3-4.4-1.8
								c-4.4-1.4-8.8-1.4-12.3,0.5c-0.4,0.2-0.5,0.6-0.3,1c0,0,0,0,0,0c0,0,0.1,0.1,0.1,0.1c1.2,1.4,2.8,2.5,4.5,3.1
								c1.8,0.6,3.7,1,5.7,1.2c3.3,0.4,6.9-0.9,10.3,1c2.2,1.2,3.8,3.7,5,6.3s2.4,5.3,3.9,7.4c-2.2-3-5-5.5-8.2-7.4
								c-2.6-1.7-5.7-2.4-8.8-2.2c-0.4,0-0.6,0.4-0.6,0.7c0,0,0,0,0,0c0,0,0,0.1,0,0.1c1,4,4,6.8,7.7,9.3c3.3,2.1,6.7,4.1,10.2,5.7
								l0,0l1.3,0.6c0.1,0.1,0.2,0.1,0.2,0.1c0.3,0.1,0.5,0.2,0.8,0.4c0.1,0.1,0.3,0.1,0.5,0h0.1c1.6,4.1,3.1,8.3,4.5,12.6
								c0.5,1.5,1,3.1,1.5,4.7c-0.8-1-1.6-2-2.5-2.9c-0.5-0.5-1-1-1.5-1.5c-0.3-0.3-0.6-0.5-0.9-0.7c-1.7-1.5-3.7-2.5-5.9-3.1
								c-0.5-0.1-0.9-0.2-1.4-0.1c-0.5,0-1,0-1.5,0.1c-0.4,0.1-0.6,0.9-0.2,1.3s0.4,0.5,0.6,0.8c1.5,2.1,3.1,4,4.9,5.9l0,0
								c1.2,1.3,2.5,2.4,3.9,3.4c1.8,1.4,3.9,2.3,6.2,2.6c0.2,0.9,0.5,1.7,0.7,2.6c0.1,0.3,0.2,0.6,0.2,0.9c0.4,1.7,0.8,3.4,1.2,5.1
								c0.2,0.6,0.3,1.2,0.4,1.8s0.4,1.5,0.5,2.2c0.2,1,0.5,2.1,0.6,3.1c0,0.1,0.1,0.2,0.1,0.3c0.2,0.8,0.3,1.5,0.5,2.3
								c0.1,0.5,0.2,1.1,0.3,1.7c0.8,4.1,1.4,8.1,1.9,12.2c0.1,0.6,0.2,1.3,0.3,2h0.5c0.3,0,0.6,0,0.9,0c-0.1-0.6-0.1-1.2-0.2-1.7
								c-0.1-1-0.2-1.9-0.4-2.9c-0.4-3.2-1-6.4-1.5-9.6c-0.2-1.4-0.5-2.9-0.8-4.3c-0.2-1-0.4-2.1-0.6-3.1l-0.1-0.3l-0.6-2.9
								l-0.6-2.4c-0.2-1-0.5-2.1-0.8-3.1c-0.1-0.3-0.1-0.6-0.2-0.9c0-0.1-0.1-0.2-0.1-0.4c0-0.2-0.1-0.4-0.1-0.5
								c-0.3-1.1-0.6-2.2-0.9-3.3c0.4-0.2,0.8-0.4,1.2-0.6c0.6-0.3,1.1-0.7,1.6-1.1c0.8-0.6,1.5-1.3,2.1-2.1c0.4-0.4,0.7-0.8,1-1.3
								c0.6-0.9,1.1-1.9,1.5-2.9c0.3-0.9,0.6-1.7,0.8-2.6c0.3-1.2,0.6-2.5,0.9-3.7C443.2,283,442.8,282.4,442.2,282.2z"/>
						</g>
						<g id="Group_53">
							<path id="Path_64" class="st20" d="M437.3,301.1c-0.2,0-0.3,0.1-0.5,0.1c-0.6,0.1-1.2,0.3-1.7,0.6c-0.1,0-0.2,0.1-0.3,0.1
								h-0.1c-0.4,0.2-0.8,0.5-1.2,0.7c-0.4,0.2-0.7,0.5-1,0.8c-0.5,0.4-1,0.8-1.4,1.3c-1.6,1.6-2.8,3.4-3.8,5.3
								c-1.3-3.2-2.7-6.3-4.4-9.3c0.8-0.9,1.6-1.8,2.4-2.8c0.4-0.5,0.7-1,1.1-1.5c0.8-1.2,1.4-2.5,1.7-3.9c0.1-0.4,0.2-0.8,0.2-1.2
								c0-0.4,0-0.7,0-1.1c0-0.9-0.4-1.7-1.5-1.5l-0.2,0.1c-0.2,0-0.3,0.1-0.5,0.2c-1.6,0.9-2.9,2.2-3.7,3.9l0,0
								c-0.3,0.6-0.6,1.1-0.8,1.6c-0.3,0.7-0.6,1.4-0.9,2.1c-1.5-2.6-3.2-5-5-7.4c0.5-0.7,1.3-1.4,1.8-2.1l0.1-0.1
								c0.5-0.7,0.9-1.4,1.2-2.2c0.1-0.1,0.1-0.3,0.2-0.4c0.5-1.6,0.7-3.3,0.7-5c0-0.2,0-0.5,0-0.9c-0.1-1.5-0.6-3.5-2-3.4
								c-0.3,0-0.6,0.1-0.9,0.3c-2.3,1.3-2.6,5.1-3,7c-0.2,1.2-0.4,2.4-0.4,3.6c-2.4-3-5.2-5.5-8.4-7.6c1.5-2.5,1.6-5.6,0.3-8.2
								c-1.9-3.6-6.4-4.7-9.7-4.2c-0.4,0.1-0.7,0.5-0.6,1c0,0,0,0,0,0c0,0.1,0,0.1,0.1,0.1c1.6,3.1,3.3,6.2,5.4,9
								c-1.8-0.7-3.7-1.2-5.6-1.6c-3.6-4-8.7-6.6-13.5-3.7c-0.3,0.2-0.3,0.6-0.2,1c1.5,3.8,4.7,4.7,7.4,5.2c1.5,0.2,3.1,0.2,4.6-0.1
								c1.4-0.2,2.9-0.6,4.3-0.2c1.4,0.4,2.7,0.9,4,1.5c-2,0.2-3.9,1-5.4,2.4c-1.7,1.7-2.8,3.8-3.2,6.1c-0.1,0.5,0.1,0.8,0.3,0.8
								c1.8-0.5,3.5-1.3,5-2.4c2.3-1.4,4.3-3.3,5.8-5.5l0.1,0.1c0,0,0.1,0,0.1,0c3.3,2.2,6.3,4.9,8.7,8c-0.9-0.3-1.9-0.5-2.9-0.6
								c-3.1-0.4-6.3,0.4-8.9,2.3c-0.3,0.2-0.5,0.6-0.5,0.9c0.3,2,2.9,1.9,5.8,1.6c2.5-0.2,5.8-1.9,8.1-1.2c3.1,0.8,3.2,5.2,5.3,7
								c-3.7-2.9-8.5-3.8-12.9-2.4c-0.3,0.1-0.7,0.5-0.7,0.7c0,2.8,2,3.9,4.9,4.6c3.1,0.6,6.3,0.9,9.5,0.9c0.1,0,0.1,0,0.2,0h0.7
								c0.1,0,0.3,0,0.4-0.1h0.1c1.5,2.8,2.9,5.7,4.1,8.7c-3.6-2.3-8-2.8-12-1.3c-0.4,0.2-0.6,0.6-0.4,0.8c3.1,2,7.7,4.4,13.5,3.5
								c0.3,0.7,0.5,1.4,0.7,2.2c0.5,1.4,0.9,2.7,1.3,4.1c1.3,4.5,2.3,9,2.9,13.7h0.4h0.3h0.7c-0.1-0.7-0.2-1.3-0.3-2
								s-0.2-1.5-0.4-2.3c-0.2-1.5-0.5-2.9-0.9-4.4c-0.4-1.7-0.8-3.5-1.3-5.2c-0.4-1.4-0.8-2.8-1.3-4.1c-0.3-1-0.6-1.9-1-2.9
								c1.1-0.5,2.1-1.1,3-1.7c0.5-0.3,0.9-0.7,1.4-1.1c0.5-0.5,1.1-1,1.6-1.5c0.2-0.2,0.3-0.3,0.5-0.5c0.1-0.2,0.3-0.3,0.4-0.5
								s0.5-0.6,0.7-1c0.3-0.5,0.6-1.1,0.9-1.6c0-0.1,0.1-0.2,0.1-0.3c0.4-0.8,0.7-1.6,1.1-2.5C438.2,301.4,437.9,301,437.3,301.1z"
								/>
						</g>
						<g id="Group_54">
							<path id="Path_65" class="st21" d="M516.2,268.2c-2.5-3.4-6.9-3.5-10.6-3.1c-2.1,0.3-4.1,1-6,2.1c-1.8,0.9-3.3,2.1-5.2,2.6
								s-3.7,1.2-5.6,1.9c3.5-3.3,7.2-8,5.8-13.1c-0.1-0.4-0.5-0.6-0.9-0.5l-0.1,0.1c-2.8,1.5-5.3,3.7-7.1,6.3
								c-1.9,2.8-2.7,6-1.4,8.8l-0.2,0.1c0,0-0.1,0-0.1,0.1c-5,2.2-9.7,5.1-13.9,8.6c0.6-1.1,1-2.3,1.4-3.4c1.6-3.5,2.6-7.3,3-11.2
								c0-0.4-0.3-0.7-0.6-0.7c0,0,0,0,0,0c-0.1,0-0.2,0-0.2,0c-2,0.4-3.8,1.6-4.9,3.2c-1.2,1.6-2,3.4-2.3,5.3
								c-0.7,3.1,0.8,6.6,0,9.5c-0.7,1.8-2,3.4-3.6,4.6c-1.5,1.4-3.2,2.8-3.9,4.5c2-4.6,3.4-11.1,2.7-16c0-0.2,0-0.4-0.1-0.6
								c-0.1-0.4-0.4-0.6-0.8-0.5h-0.1c-1,0.3-1.9,0.8-2.7,1.4c-1.2,1-2.2,2.3-2.9,3.7c-0.6,1.2-1,2.6-1.2,3.9c-0.3,2-0.4,4-0.1,6
								c0.2,1.8,0.5,3.6,1.1,5.4c0,0.1,0,0.2,0.1,0.2c0.1,0.2,0.1,0.5,0.2,0.7c0,0.1,0.1,0.3,0.3,0.3c0,0,0,0.1,0,0.1
								c-2.4,3.5-4.7,7.2-6.7,11c0-2-0.2-4.1-0.6-6.1c-0.1-0.4-0.2-0.7-0.3-1.1c-0.5-1.8-1.4-3.5-2.6-5c-0.3-0.3-0.6-0.6-0.9-0.9
								c-0.3-0.2-0.8-0.1-1,0.2c0,0.1-0.1,0.1-0.1,0.2c-0.1,0.5-0.2,1-0.3,1.5c-0.4,2.2-0.4,4.4-0.2,6.7c0,0.2,0,0.5,0.1,0.7
								c0.4,2.9,1.7,5.6,3.9,7.6c-0.4,0.7-0.7,1.4-1,2.1c-0.7,1.4-1.4,2.8-2,4.2c-1.4,3.1-2.8,6.2-4.1,9.4c-0.4,0.9-0.7,1.8-1.1,2.6
								c-0.3,0.6-0.5,1.3-0.8,2h1c0.2,0,0.3,0,0.5,0l0.7-1.7c1.6-4.1,3.4-8.1,5.2-12.2c0.7-1.4,1.3-2.8,2-4.2c0.3-0.7,0.7-1.4,1-2.1
								c2.4,0.9,4.9,1.4,7.4,1.3c2.8,0,5-0.8,7.5-1.4c0.5-0.1,0.6-0.6,0.2-1c-2.8-3.3-9.3-3.7-13.4-2c2.1-3.9,4.4-7.7,6.9-11.3
								c3.5,0.6,6.7,1.4,10,0.8c1.6-0.3,4.8-0.7,2.9-3.1c-1.5-2-4.6-2.5-6.8-2.5c-0.9,0-1.7,0-2.6,0.1c1.2-1.5,2.5-3,3.8-4.4
								s2.6-2.9,4.1-4.1c0.8,0.4,1.6,1.1,2.4,1.5c0.9,0.5,1.9,0.8,3,1c1.6,0.3,3.3,0.6,5,0.7c1.4,0,4.9,0.7,4-2s-4.2-3.8-6.4-4.3
								c-1.3-0.3-2.7-0.4-4-0.4c3.8-3.1,8.1-5.6,12.5-7.6c1,2.6,4.2,4.6,6.4,5.4c3.6,1.2,7-0.1,10-1.9c0.3-0.3,0.4-0.8,0.1-1.1
								l-0.1-0.1c-3-2.2-6.5-4.2-10.2-4.6c2.4-0.8,4.8-1.5,7.2-2.2c6.1,1.8,12.1,2.9,17.6-0.9C516.4,269,516.4,268.5,516.2,268.2z"
								/>
						</g>
						<g id="Group_55">
							<path id="Path_66" class="st21" d="M448.1,211.1c6.1-5.4,11.8-10.9,14.1-19.2c0.1-0.4-0.1-0.7-0.5-0.8h-0.1
								c-4.5,0-8.7,4.5-11.4,8.8c-1.5,2.5-2.6,5.2-3.4,8c-0.8,2.5-1,5-2.1,7.5s-2,4.9-2.9,7.4c0.3-3.2,0-6.4-0.7-9.4
								c-0.7-2.9-2-5.3-4.5-6.4c-0.4-0.2-1,0.2-1.1,0.8c-1,3.9-1.3,8-0.7,12c0.6,4,2.3,7.3,5.2,8.2l-0.1,0.3c0,0.1,0,0.1,0,0.2
								c-2.2,7-3.9,14.2-5.2,21.4c-0.2-1.7-0.7-3.5-1-4.6c-0.7-3.2-1.8-6.4-3.3-9.4c-0.5-1.1-1.2-2.1-1.9-3
								c-0.3-0.4-0.9-0.2-1.2,0.3c-1.2,2.2-1.8,4.7-1.5,7.2c0,0.3,0,0.6,0.1,0.9c0.3,1.9,0.8,3.7,1.5,5.4c0.2,0.5,0.5,0.9,0.7,1.4
								c1.3,2,3,3.6,4.2,5.8c0.4,0.6,0.6,1.3,0.8,2c1.3,4.6-1.6,10.5-1.3,15.4c0,0.1,0,0.3,0,0.4c0-0.2-0.1-0.5-0.1-0.7
								c-0.3-2.1-0.7-4.2-1.3-6.3c-0.6-2.5-1.5-4.9-2.7-7.2c-0.8-1.7-1.9-3.3-3.2-4.7c-0.2-0.2-0.6-0.2-0.9,0c0,0,0,0,0,0
								c-0.1,0-0.1,0.1-0.1,0.2c-1.4,2.6-1.9,5.6-1.6,8.5c0.2,1.6,0.5,3.1,1,4.6c0.1,0.3,0.2,0.6,0.3,0.9c0.9,2.5,2.2,4.9,3.7,7.1
								l0,0c1,1.5,2.1,2.9,3.2,4.3c0,0.1,0.1,0.1,0.2,0.2c0.2,0.2,0.4,0.4,0.6,0.6c0.1,0.1,0.2,0.2,0.4,0.2l0.1,0.1
								c0,0.5-0.1,1-0.1,1.6c-0.1,2.7-0.2,5.3-0.2,8c0,0.1,0,0.3,0,0.4c0,2.5,0,4.9,0,7.4c-0.7-1.9-1.6-3.7-2.7-5.4
								c-0.5-0.9-1.1-1.7-1.7-2.5c-0.2-0.3-0.4-0.5-0.7-0.8c-1.3-1.7-3.2-2.9-5.3-3.4c-0.2,0-0.4,0.1-0.6,0.4
								c-0.1,0.2-0.2,0.5-0.1,0.8c0.6,2.4,1.4,4.8,2.5,7.1c0,0,0,0,0,0.1c0.8,1.7,1.7,3.4,2.8,4.9c1.4,2.1,3.4,3.7,5.7,4.6
								c0,0.7,0,1.4,0.1,2.1c0,2,0.1,4,0.2,6.1c0,1.5,0.1,2.9,0.2,4.4s0.1,2.8,0.2,4.2c0.1,1.8,0.2,3.5,0.3,5.2
								c0.2,2.9,0.4,5.8,0.5,8.6h0.3h0.8h0.4c-0.1-1.3-0.1-2.6-0.2-3.9l0,0c-0.1-1.7-0.2-3.3-0.3-5s-0.2-3.4-0.3-5.1
								c-0.1-1.4-0.1-2.9-0.2-4.3c-0.1-1.8-0.2-3.6-0.2-5.4c-0.1-2.1-0.1-4.2-0.2-6.3c0-0.5,0-1,0-1.5l0.8-0.1
								c0.4-0.1,0.8-0.2,1.2-0.3l0.2-0.1l0.4-0.2c0.6-0.2,1.1-0.4,1.7-0.7c0.9-0.4,1.7-0.9,2.5-1.5c0.1,0,0.1-0.1,0.1-0.1
								c0.1-0.1,0.2-0.1,0.2-0.2c0.7-0.5,1.4-1.1,1.9-1.8c1.4-1.6,2.7-3.3,3.9-5.1c0.3-0.4,0.2-1-0.2-1.3c0,0-0.1-0.1-0.1-0.1
								c-0.3-0.2-0.6-0.3-0.9-0.4c-0.5-0.1-1-0.2-1.5-0.2c-0.5,0-1,0.1-1.5,0.2c-1.1,0.3-2.1,0.7-3,1.3c-0.6,0.4-1.2,0.8-1.7,1.2
								c-0.6,0.4-1.1,0.9-1.6,1.5l0,0c-0.8,0.7-1.4,1.6-2,2.5c-0.2,0.2-0.3,0.4-0.4,0.7V293l0,0c0,0,0-0.1,0-0.1c0-1,0-1.9,0-2.9
								c0-0.6,0-1.2,0-1.9c0-1.8,0.1-3.6,0.1-5.4c0-1.2,0.1-2.4,0.1-3.5c0.1-0.1,0.2-0.1,0.3-0.1l1.8-1c2.7-1.4,5-3.3,6.9-5.8
								c1.2-1.6,3.7-5,0.8-6.1c-2.4-0.9-5.2,1.2-7.1,2.9c-0.6,0.6-1.2,1.2-1.8,1.8c-0.1,0.1-0.2,0.2-0.3,0.4c0-0.5,0.1-1,0.1-1.5
								c0.1-1.9,0.3-3.7,0.5-5.5c0.3-2.9,0.7-5.8,1.1-8.6c0.9-0.3,1.9-0.3,2.8-0.6c1.1-0.4,2.2-1,3.1-1.7c0.5-0.4,0.9-0.7,1.4-1.1
								c1.1-1,2.1-2.1,3.1-3.3c0.9-0.9,1.7-2,2.4-3.1c0.7-1.2,0.9-2.5-0.3-3.4c-2.2-1.7-5.9,1-7.9,2.6c-1.3,1-2.4,2.2-3.5,3.5
								c1.2-6.6,2.9-13,4.8-19.4c2.6,1.1,6.5-0.8,8.7-2.7c3.7-3.1,5.5-8.1,6.5-12.7c0.1-0.4-0.1-0.7-0.4-0.9c0,0,0,0,0,0
								c-0.2-0.1-0.3-0.1-0.5,0c-4.4,1.7-8.3,4.4-11.4,7.8c0.6-1.6,1.3-3.2,1.9-4.8L448.1,211.1z"/>
						</g>
					</g>
				</g>
				<g id="Group_59">
					<g id="Group_58">
						<path id="Path_67" class="st22" d="M457.4,378.2c-13.7,3.7-28.1,3.7-41.8,0c-2.5-18.2-5-36.5-7.8-54.7h57.5
							C462.5,341.7,459.9,360,457.4,378.2z"/>
					</g>
					<path id="Path_68" class="st23" d="M465.2,323.5h-57.5l2.6,16.9h52.3L465.2,323.5z"/>
					<path id="Path_69" class="st10" d="M468,323.5h-63l2,13.1h59L468,323.5z"/>
					<path class="st24" d="M463.7,334.4c0,0-0.1,0-0.1,0c-0.5-0.1-0.9-0.5-0.8-1.1l1.1-8c0.1-0.5,0.6-0.9,1.1-0.8
						c0.5,0.1,0.9,0.5,0.8,1.1l-1.1,8C464.6,334.1,464.2,334.4,463.7,334.4z"/>
					<path class="st25" d="M455.6,372.1c0,0-0.1,0-0.1,0c-0.5-0.1-0.9-0.5-0.8-1l3.4-28.6c0.1-0.5,0.5-0.9,1-0.8
						c0.5,0.1,0.9,0.5,0.8,1l-3.4,28.6C456.5,371.8,456.1,372.1,455.6,372.1z"/>
				</g>
			</g>
		</g>
	</g>
</g>
</svg>
