<svg xmlns="http://www.w3.org/2000/svg" viewBox="0 0 648.417 619.688"><defs><style>.a{fill:#a6a8ab}.t,.u{stroke-miterlimit:10}.c{fill:#808184}.d{fill:#58595b}.e{fill:#18a2f7}.f{fill:#d0ccc8}.g{fill:#f6bd96}.i{fill:#576fd2}.t,.u,.z{fill:none}.z{stroke-linejoin:round}.l{fill:#ffa82f}.m{fill:#d24242}.o{fill:#4c4c75}.p{fill:#39395c}.q{fill:#7e8ee8}.s{fill:#ed5830}.t,.u{stroke:#808184}.t{stroke-width:1.469px}.u{stroke-width:1.574px}.z{stroke:#d0ccc8;stroke-width:12.276px}.ac{fill:#fa9e9e}.ad{fill:#00b580}</style></defs><g transform="translate(422.696 1.538)"><path class="a" d="M109.465 54.614a54.733 54.733 0 10-54.615 54.85 54.794 54.794 0 0054.615-54.85z"/><path d="M113.918 54.719a53.958 53.958 0 10-53.842 54.073 54.02 54.02 0 0053.842-54.073z" stroke-miterlimit="10" stroke="#929497" stroke-width="4.83" fill="#fff"/><path class="c" d="M16.716 64.588a.253.253 0 00-.3-.175l-3.146.683a.239.239 0 00-.176.3.258.258 0 00.3.192l3.138-.716a.231.231 0 00.184-.284zM19.974 73.988a.243.243 0 00-.324-.108l-2.914 1.367a.247.247 0 00-.111.333.25.25 0 00.331.123l2.9-1.4a.24.24 0 00.118-.315zM25.208 82.438a.234.234 0 00-.333-.037l-2.538 1.979a.256.256 0 00-.041.354.241.241 0 00.344.05l2.517-2.006a.249.249 0 00.051-.34zM32.184 89.53a.254.254 0 00-.344.05l-2.036 2.489a.237.237 0 00.048.342.259.259 0 00.357-.039l2.01-2.513a.23.23 0 00-.035-.329zM40.586 94.849a.244.244 0 00-.32.118l-1.43 2.883a.246.246 0 00.12.33.249.249 0 00.336-.11l1.4-2.9a.24.24 0 00-.106-.321zM49.947 98.186a.234.234 0 00-.284.18l-.745 3.131a.254.254 0 00.19.3.242.242 0 00.3-.176l.711-3.139a.249.249 0 00-.172-.296zM59.822 99.361a.228.228 0 00-.237.233l-.027 3.219a.261.261 0 00.252.257.235.235 0 00.253-.233l-.006-3.218a.257.257 0 00-.235-.258zM69.706 98.261a.252.252 0 00-.174.3l.691 3.144a.239.239 0 00.3.175.258.258 0 00.192-.3l-.725-3.137a.232.232 0 00-.284-.182zM79.084 94.969a.243.243 0 00-.106.324l1.38 2.907a.254.254 0 00.456-.221l-1.412-2.893a.24.24 0 00-.318-.117zM87.51 89.691a.233.233 0 00-.035.333l1.995 2.526a.255.255 0 00.354.039.24.24 0 00.049-.344l-2.021-2.5a.251.251 0 00-.342-.054zM94.553 82.667a.253.253 0 00.051.343l2.5 2.021a.238.238 0 00.343-.05.258.258 0 00-.041-.356l-2.526-2a.231.231 0 00-.327.042zM99.827 74.234a.244.244 0 00.119.32l2.89 1.416a.247.247 0 00.33-.122.25.25 0 00-.111-.335l-2.906-1.385a.24.24 0 00-.322.106zM103.13 64.857a.234.234 0 00.18.284l3.133.735a.254.254 0 00.3-.19.241.241 0 00-.177-.3l-3.141-.7a.249.249 0 00-.295.171zM104.29 54.974a.229.229 0 00.233.237l3.219.026a.262.262 0 00.257-.252.235.235 0 00-.233-.253l-3.219.007a.256.256 0 00-.257.235zM103.204 45.081a.253.253 0 00.3.175l3.145-.683a.238.238 0 00.177-.3.259.259 0 00-.3-.192l-3.138.716a.233.233 0 00-.184.284zM99.948 35.69a.242.242 0 00.324.107l2.914-1.367a.247.247 0 00.112-.333.25.25 0 00-.331-.122l-2.9 1.4a.24.24 0 00-.119.315zM94.712 27.232a.234.234 0 00.334.037l2.538-1.979a.256.256 0 00.041-.354.241.241 0 00-.344-.051l-2.517 2.006a.25.25 0 00-.052.341zM87.735 20.141a.253.253 0 00.344-.049l2.037-2.492a.237.237 0 00-.048-.342.259.259 0 00-.357.039l-2.01 2.513a.23.23 0 00.034.331zM79.334 14.822a.244.244 0 00.32-.118l1.43-2.883a.246.246 0 00-.12-.33.25.25 0 00-.336.11l-1.4 2.9a.24.24 0 00.106.321zM69.974 11.484a.235.235 0 00.284-.18l.745-3.131a.255.255 0 00-.19-.3.242.242 0 00-.3.177l-.711 3.139a.248.248 0 00.172.295zM60.099 10.308a.229.229 0 00.237-.233l.026-3.218a.261.261 0 00-.252-.257.234.234 0 00-.253.233l.007 3.218a.255.255 0 00.235.257zM50.214 11.408a.251.251 0 00.175-.3l-.691-3.144a.239.239 0 00-.3-.176.259.259 0 00-.191.3l.725 3.136a.232.232 0 00.282.184zM40.836 14.7a.243.243 0 00.106-.324l-1.381-2.908a.253.253 0 00-.455.222l1.412 2.892a.24.24 0 00.318.118zM32.411 19.979a.234.234 0 00.036-.334l-1.995-2.525a.257.257 0 00-.355-.039.241.241 0 00-.049.344l2.021 2.5a.251.251 0 00.342.054zM25.368 27.004a.252.252 0 00-.052-.343l-2.5-2.021a.237.237 0 00-.342.05.258.258 0 00.041.356l2.526 1.995a.231.231 0 00.327-.037zM20.094 35.44a.243.243 0 00-.119-.32l-2.89-1.416a.246.246 0 00-.33.122.249.249 0 00.112.335l2.905 1.385a.241.241 0 00.322-.106zM16.79 44.813a.235.235 0 00-.181-.284l-3.133-.735a.255.255 0 00-.3.191.241.241 0 00.177.3l3.14.7a.248.248 0 00.297-.172zM15.629 54.695a.229.229 0 00-.233-.237l-3.218-.026a.261.261 0 00-.256.252.235.235 0 00.233.253l3.219-.007a.255.255 0 00.255-.235z"/><circle class="d" cx="5.228" cy="5.228" transform="translate(54.732 51.267)" r="5.228"/><g><path class="d" d="M60.828 59.423a2.455 2.455 0 00.932-4.725L31.053 42.024a2.455 2.455 0 10-1.873 4.539l30.707 12.674a2.451 2.451 0 00.941.186z"/><path class="d" d="M60.826 58.707a1.736 1.736 0 001.452-.785l22.018-33.544a1.738 1.738 0 00-2.907-1.907L59.376 56.014a1.739 1.739 0 001.455 2.693z"/></g></g><g transform="translate(5.945 106.944)"><path class="e" d="M575.515 203.033v5.213a17.367 17.367 0 11-34.734 0v-5.213z"/><path class="e" d="M584.773 221.787c-5.988 3.259-15.668 5.386-26.624 5.386s-20.636-2.127-26.625-5.386zM550.403 221.568l.12-1.88c-.094 0-9.411-.665-12.238-4.649a4.7 4.7 0 01-.417-5.216c2.011-3.42 8.562-2.188 9.862-1.905l.4-1.842c-2.131-.466-9.28-1.635-11.884 2.792a6.628 6.628 0 00.507 7.261c3.341 4.714 13.229 5.409 13.65 5.439z"/><path class="f" d="M555.813 164.06a8.777 8.777 0 00-2.261 1.726 7.541 7.541 0 00-1.625 2.522 6.642 6.642 0 00-.4 3.161 5.023 5.023 0 001.415 3.019 7.626 7.626 0 002.588 1.591 24.608 24.608 0 012.495 1.077 4.671 4.671 0 011.854 1.642 3.375 3.375 0 01.318 2.277 4.847 4.847 0 01-.957 2.005 16.17 16.17 0 01-1.617 1.8c-.614.593-1.285 1.2-1.945 1.881a11.175 11.175 0 00-1.835 2.381 7.212 7.212 0 00-.888 3.171 7.912 7.912 0 00.561 3.089 13.534 13.534 0 003.245 4.642l.246-.146a38.624 38.624 0 01-1.31-5.083 7.5 7.5 0 01.024-2.241 6.193 6.193 0 01.778-1.908 43.794 43.794 0 013.134-3.968 11.575 11.575 0 001.615-2.493 6.023 6.023 0 00.518-3.115 5.747 5.747 0 00-1.09-2.834 9.383 9.383 0 00-2.164-1.885 13.3 13.3 0 01-3.737-3.42 5.139 5.139 0 01-.722-1.844 6.282 6.282 0 01.021-2.166 10.741 10.741 0 01.743-2.293c.348-.776.777-1.555 1.2-2.387z"/><path class="g" d="M283.781 173.413c16.7 20.885 34.335 38.958 59.416 48.23-31.911 5.8-66.539-7.3-86.634-32.755z"/><path d="M254.876 113.943c-1.625 1.9 9.493 26.888 11.074 30.469a83.727 83.727 0 007.579 13.469c2.37 3.461 9.178 8.442 10.141 12.134a4.914 4.914 0 01-1.49 4.434 29.074 29.074 0 01-3.866 2.976 19.344 19.344 0 00-6.83 9.665c-.634 2.036-1.113 4.434-2.982 5.463-1.743.958-4.028.2-5.412-1.232-13.324-13.76-25.579-30.579-32.712-48.656z" fill="#667cd7"/><path class="i" d="M289.422 178.597a34.987 34.987 0 00-24.194 21.013c-4.606.2-9.026-2.789-11.134-6.889a17.252 17.252 0 01-.555-13.44 28.674 28.674 0 017.81-11.248c4.63-4.3 11.38-8.2 17.956-7.352 6.317.819 8.063 12.595 10.117 17.916z"/><path stroke-linejoin="round" stroke="#6d6e71" stroke-width="11.942" fill="none" d="M223.282 298.011v165.671"/><path d="M318.903 260.461l52.289 15.1-143.071 41.872s-128.308-4.047-134.1-178.919l116.2-25.879s4.257 91.612 27.579 115.228 81.103 32.598 81.103 32.598z" fill="#ee8d1b"/><path class="l" d="M328.757 258.865l52.289 15.1-143.071 41.872s-128.308-4.048-134.1-178.92l116.2-25.879s4.252 91.618 27.575 115.232 81.107 32.595 81.107 32.595z"/><path class="m" d="M209.293 369.907c-.9 2.938-3.329 5.61-6.357 5.529-2.16-.059-3.758-6.541-4.368-7.994-1.237-2.953-1.864-5.987-2.906-9.026-1.375-4.006-1.759-8.664-2.516-12.829-.992-5.451-2.047-10.929-2.729-16.43-.5-4.026-.7-8.494 1.748-11.726 2.712-3.574 7.667-4.374 12.122-4.916s9.414-1.381 12.077-4.991l6.362 14.314a4.717 4.717 0 01.555 2.023c-.114 3.407-14.934 9.851-14.021 35.414.118 3.295.9 6.62.233 9.848a9.005 9.005 0 01-.2.784zM394.69 481.687c2.566 1.687 4.443 4.776 3.511 7.658-.666 2.056-57.948 1.822-59.707.779-3.177-1.883-1.918-4.72-1.538-7.56.531-3.967 1.383-7.979 1.662-11.973.095-1.354.782-13.624-1.783-13.283l15.527-2.066a4.72 4.72 0 012.1.037c3.237 1.071 5.239 17.107 30.021 23.439 3.194.816 6.606 1 9.514 2.555q.352.19.693.414z"/><path d="M205.62 257.94c17.706 13.436 40.231 19.674 62.457 19.89s44.213-5.3 64.873-13.5c19.025-7.552 31.059-8.536 49.676-16.995 3.693-1.678 6.118-12 .985-18.706-3.169-4.141-1.279-8.208-6.2-8.668-37.871-3.551-75.589 1.852-112.039 12.7a290.885 290.885 0 00-59.752 25.279z" fill="#2c2c4c"/><path class="o" d="M265.971 326.592c-10.169-4.238-20.385-8.372-30.524-12.682-9.045-3.844-18.885-6.03-27.885-10.292-8.346-3.953-16.132-9.515-21.382-17.113-3.412-4.937-5.718-11.086-4.348-16.929 4.773-20.364 40.77-18.846 56.09-16.5 42.134 6.452 94.37 40.883 110.613 81.454 8.142 20.336 15.858 91.824 15.858 129.911l-28.115 3.294-27.268-103.269c-1.684-6.378-3.456-12.94-7.458-18.185-5.342-7-13.861-10.668-21.994-14.047z"/><path class="p" d="M212.276 303.242c12.28 3.718 24.989 5.7 37.578 8.047 17.23 3.217 35.956 6.846 49.649 18.612 7.255 6.234 11.9 14.732 15.719 23.375a184.825 184.825 0 019.688 29.18c2.465 9.691 4.434 19.5 6.39 29.3 2.269 11.371 5.035 22.631 7.7 33.911 1.667 7.046 3.33 14.1 4.94 21.172l-7.666.9L309.01 364.47c-1.684-6.378-3.456-12.94-7.457-18.185-5.342-7-13.861-10.669-21.994-14.047l-13.588-5.643c-10.169-4.237-20.385-8.372-30.524-12.682-9.044-3.844-18.885-6.03-27.885-10.292a64.491 64.491 0 01-11.188-6.706 91.477 91.477 0 0015.902 6.327z"/><path class="q" d="M156.133 104.036c7.257-6.288 15.617-11.127 24.185-15.391 7.933-3.948 16.508-8.127 25.6-7.916a54.38 54.38 0 0116.865 3.064 55.482 55.482 0 0132.094 30.15c3.662 8.594 6.173 19.707 5.857 29.029-.359 10.6-2.727 20.822-2.3 31.6a143.791 143.791 0 004.869 31.84c1.331 4.92 2.617 11.764 5.215 16.156 2.478 4.19 3.624 6.5.591 11.165-2.345 3.6-6.1 6.009-9.733 8.3-8.781 5.54-17.655 11.115-27.329 14.981a87.412 87.412 0 01-15.01 4.168c-5.137 1.065-10.221 3.418-15.22 5.216-6.249 2.248-13.2 4.495-19.353 2-5.9-2.39-9.329-8.451-12.109-14.176-12.42-25.578-19.809-53.129-27.944-80.288-7.251-24.197-6.704-52.201 13.722-69.898z"/><path class="a" d="M212.987 95.21l-3.558 2.184c-.162-.737-.348-1.44-.5-2.184z"/><path class="g" d="M198.558 101.046a15.952 15.952 0 01-15.72-16.18l.862-60 31.9.459-.862 60a15.952 15.952 0 01-16.18 15.721z"/><path d="M186.396 55.295l-2.7-30.428 31.9.459-.862 60a15.771 15.771 0 01-2.08 7.5c-17.263-5.623-22.795-21.095-26.258-37.531z" fill="#e7a579"/><path class="g" d="M212.998 88.243c35.523 12.863 43.983-69.449 7.881-83.489-55.506-21.584-53.666 66.91-7.881 83.489z"/><path class="s" d="M185.09 57.895a17.93 17.93 0 01-2.023 7.438c.489-.847-3.393-7.515-3.839-8.574-3.459-8.216-6.97-16.657-7.3-25.565a28.96 28.96 0 011.053-9.037c8.647-30.181 51.251-25.074 71.374-10.915a14.523 14.523 0 014.649 4.633c1.786 3.274 1.074 7.538-1.153 10.531-4.717 6.337-16.119 9.165-23.646 9.139a33.5 33.5 0 01-23.559-9.513 22.109 22.109 0 01-12.7 23.225c-.934-1.682-2.478-1.532-3.961-.308 1.581 2.913 1.278 5.635 1.105 8.946z"/><g transform="translate(188.674 49.215)"><path class="t" d="M46.388 7.568c.467 3.506 4.11 5.912 8.134 5.375s6.908-3.815 6.44-7.321S56.852-.29 52.827.247s-6.907 3.816-6.439 7.321z"/><ellipse class="t" cx="6.404" cy="7.352" rx="6.404" ry="7.352" transform="rotate(-97.58 20.917 -3.67)"/><path class="u" d="M26.333 9.223L0 0M46.253 6.564a6.151 6.151 0 00-5.346.714"/></g><path class="g" d="M188.674 49.216a4.367 4.367 0 00-2.354-1.88 2.515 2.515 0 00-2.741.88 3.585 3.585 0 00.134 3.342 27.645 27.645 0 004.961 6.959z"/><path d="M233.608 57.067c-.323 4-.572 8.321 1.578 11.708.382.6.855 1.271.668 1.958a2.094 2.094 0 01-1.294 1.185 11.684 11.684 0 01-2.723.844" stroke-linecap="round" stroke-width="1.706" stroke="#e7a579" fill="none" stroke-miterlimit="10"/><path d="M234.311 76.59a16.955 16.955 0 01-7 1" stroke="#d79468" stroke-linecap="round" stroke-width="1.706" fill="none" stroke-miterlimit="10"/><path class="o" d="M322.006 234.585c22.392-9.35 53.126-23.191 76.433-7.873 7.5 4.931 13.394 13.206 13.723 22.346.355 9.894-5.817 19.012-13.69 24.61s-17.3 8.309-26.536 10.931l-72.2 20.493c-14.134 4.012-28.251 8.849-42.475 12.405-10.973 2.737-39.43 13.453-39.43 13.453s-8.191-12.446-11.138-23.424c32.604-33.192 72.8-55.19 115.313-72.941z"/><path class="p" d="M289.505 250.469a325.7 325.7 0 00-28.456 19.43c-4.24 3.26-8.278 6.764-12.478 10.074-3.837 3.024-7.835 5.84-11.862 8.6-9.851 6.76-20.333 13.4-29.179 21.617-.3-.893-.6-1.787-.837-2.668 27-27.49 59.224-47.29 93.646-63.37-3.624 2.086-7.269 4.133-10.834 6.317zM228.864 326.47c11.757-4.359 23.786-7.866 35.6-12.036 20.734-7.316 40.406-17.165 60.442-26.137 11.887-5.324 24.38-9.19 36.411-14.167 11.814-4.886 23.977-10.644 33.146-19.78a39.045 39.045 0 009.38-14.252 32.935 32.935 0 001.618-7.144 26.593 26.593 0 016.7 16.1c.355 9.894-5.817 19.012-13.69 24.61s-17.3 8.309-26.536 10.931l-72.2 20.493c-14.134 4.011-28.251 8.849-42.475 12.405-10.973 2.737-39.43 13.453-39.43 13.453l-.086-.133a382.457 382.457 0 0111.12-4.343z"/><g><path class="g" d="M187.062 188.196a9.133 9.133 0 013.862 4.178c5.691 10.72 16.774 18.02 27.162 24.334a141.733 141.733 0 0018.12 9.3c3.523 1.5 13.466 7.076 17.2 6.026-20 5.622-36.006.784-55.051-4.718-15.288-4.417-28.683-11.655-37.9-25.379-2.357-3.508 11.634-9.978 13.569-10.9 4.94-2.352 9.397-4.632 13.038-2.841z"/><path class="q" d="M146.165 133.159a26.281 26.281 0 014.363-10.673c6.055-8.39 15.692-7.032 21.081 1.013a36.046 36.046 0 014.167 9.774c3.937 13.022 5.068 26.215 7.68 39.431.971 4.912 2.083 10.043 4.278 14.475-10.393.254-21.188 6.2-27.281 14.766a67.021 67.021 0 01-5.907-10.766c-4.9-11.336-7.1-23.595-8.26-35.827-.658-6.936-1.491-14.917-.121-22.193z"/><path d="M174.904 146.764c-1.116-6.322-1.882-12.725-3.75-18.888a33.47 33.47 0 00-4.015-8.936 16.523 16.523 0 014.47 4.554 36.045 36.045 0 014.167 9.774c3.937 13.022 5.068 26.215 7.68 39.43.971 4.912 2.083 10.043 4.278 14.475a31.618 31.618 0 00-8.066 1.3c-2.549-13.771-2.326-27.898-4.764-41.709z" fill="#a5b4f6"/><path class="i" d="M155.674 193.479c-.37-.77-.793-1.526-1.129-2.3-4.592-10.63-6.8-22.074-8.018-33.545a108.071 108.071 0 002.85 6.859c2.347 5.171 8.489 21.381 9.958 23.4-2.463 2.299-2.004 2.677-3.661 5.586zM194.133 194.015a34.99 34.99 0 00-24.195 21.013c-4.606.2-9.026-2.789-11.134-6.889a17.253 17.253 0 01-.555-13.44 28.669 28.669 0 017.814-11.248c4.63-4.3 11.381-8.2 17.955-7.352 6.315.818 8.06 12.594 10.115 17.916z"/></g><path d="M223.282 460.029l72.836 13.6H150.446z" fill="#6d6e71"/><path class="g" d="M254.677 221.068a32.68 32.68 0 0119.273 8.093c-12.523 2.121-25.484 4.229-37.794 1.1-7.363-1.869-.7-4.852 2.41-6.146a35.025 35.025 0 0116.111-3.047z"/><g><path class="z" d="M142.714 511.22L72.492 237.458M0 511.22l70.222-273.762M636.527 511.22l-70.222-273.762M493.812 511.22l70.222-273.762"/><path stroke-width="29.854" stroke="#ff7e19" fill="none" stroke-miterlimit="10" d="M607.761 237.145H26.032"/></g><g><path class="c" d="M498.178 142.661l.556 1.647-1.1-.026z"/><path class="l" d="M496.271 148.329l1.361-4.045 1.1.026 1.389 4.114v.058l-3.851-.111z"/><path class="c" d="M500.121 148.476l-1.245 51.513-3.852-.091 1.245-51.533z"/><path d="M481.799 160.098l6.6 38.785a2.886 2.886 0 01-2.36 3.331 2.74 2.74 0 01-.488.041 2.89 2.89 0 01-2.841-2.4l-6.583-38.677z" fill="#20a7f7"/><path class="ac" d="M475.014 154.631a2.886 2.886 0 115.69-.97l.451 2.652-5.678 1.042z"/><path class="f" d="M481.156 156.313l.644 3.785-5.672 1.078-.651-3.822z"/><path class="ad" d="M512.076 161.375l-4.429 36.3a2.683 2.683 0 01-2.987 2.339 2.571 2.571 0 01-.446-.093 2.687 2.687 0 01-1.893-2.894l4.417-36.2z"/><path class="ac" d="M507.486 154.703a2.682 2.682 0 115.325.649l-.3 2.481-5.333-.581z"/><path class="f" d="M512.509 157.832l-.432 3.543-5.338-.547.436-3.577z"/><path stroke-width="5.971" stroke="#ff7e19" fill="none" stroke-miterlimit="10" d="M505.734 163.037l-6.014 25.979"/><g><path class="ad" d="M493.376 152.529l.471 1.673-1.1-.081z"/><path class="l" d="M491.186 158.091l1.565-3.971 1.1.082 1.178 4.18v.058l-3.84-.307z"/><path d="M495.021 158.44l-3.862 51.383-3.842-.287 3.864-51.4z" fill="#1a1a3a"/></g><g><path class="e" d="M520.507 153.024l.207 1.831-1.135-.273z"/><path class="l" d="M517.264 158.469l2.315-3.887 1.135.273.518 4.574-.014.059-3.965-.977z"/><path class="e" d="M521.219 159.489l-12.82 53.1-3.971-.957 12.826-53.119z"/></g><g><path class="l" d="M486.276 147.438l.647 1.613-1.1.036z"/><path d="M484.69 153.199l1.132-4.115 1.1-.036 1.617 4.03v.058l-3.851.1z" fill="#d0d2d3"/><path class="l" d="M488.542 153.139l1.643 51.5-3.851.125-1.647-51.519z"/></g><path class="s" d="M486.464 227.823h22.076l7.7-42.876h-37.47z"/></g><path d="M285.38 227.907h146.695l20.305-96.644H305.686z" fill="#bbbdbf"/><circle cx="4.898" cy="4.898" transform="rotate(-103.282 256.015 -51.79)" fill="#fff" r="4.898"/></g></svg>