<svg xmlns="http://www.w3.org/2000/svg" viewBox="0 0 309.295 503.527"><defs><filter id="a" x="0" y="0" width="309.295" height="503.527" filterUnits="userSpaceOnUse"><feOffset/><feGaussianBlur stdDeviation="5" result="b"/><feFlood flood-opacity=".251"/><feComposite operator="in" in2="b"/><feComposite in="SourceGraphic"/></filter><style>.b{fill:#918fe6}</style></defs><g filter="url(#a)"><path d="M294.295 458.127a30.4 30.4 0 01-30.407 30.4H45.407A30.4 30.4 0 0115 458.127V45.407A30.408 30.408 0 0145.407 15H263.89a30.408 30.408 0 0130.407 30.407z" fill="#6c6add"/></g><path class="b" d="M36.976 75.767h235.343v359.604H36.976zm144.191-26.932a2.647 2.647 0 01-2.646 2.646h-47.747a2.65 2.65 0 01-2.655-2.646 2.652 2.652 0 012.655-2.655h47.745a2.65 2.65 0 012.646 2.655zm-26.519 417.396a19.948 19.948 0 01-17.2-9.845c-.031.4-.07.8-.07 1.211a17.269 17.269 0 0017.269 17.261 17.262 17.262 0 0017.26-17.261c0-.414-.031-.812-.062-1.211a19.946 19.946 0 01-17.197 9.845z"/><path d="M154.633 204C125.012 204 101 222.731 101 245.837c0 14.763 9.8 27.74 24.609 35.186v16.434a1.334 1.334 0 002.17 1.04l14.8-11.886a68.342 68.342 0 0012.056 1.062c29.62 0 53.633-18.731 53.633-41.837S184.253 204 154.633 204z" fill="#fff"/><path class="b" d="M129.273 238.643a7.194 7.194 0 00-7.194 7.193 7.193 7.193 0 007.194 7.193 7.193 7.193 0 007.193-7.193 7.193 7.193 0 00-7.193-7.193zm25.361 0a7.194 7.194 0 00-7.194 7.193 7.193 7.193 0 007.194 7.193 7.193 7.193 0 007.193-7.193 7.193 7.193 0 00-7.193-7.193zm25.36 0a7.194 7.194 0 00-7.194 7.193 7.193 7.193 0 007.194 7.193 7.193 7.193 0 007.193-7.193 7.193 7.193 0 00-7.193-7.193z"/></svg>