<svg xmlns="http://www.w3.org/2000/svg" viewBox="0 0 26.82 26.16"><defs><style>.cls-1,.cls-2{fill:#fff;}.cls-1{fill-rule:evenodd;}</style></defs><g id="Layer_2" data-name="Layer 2"><g id="Layer_1-2" data-name="Layer 1"><g id="Group_259" data-name="Group 259"><path id="Path_442" data-name="Path 442" class="cls-1" d="M13.41,0A13.41,13.41,0,0,0,9.17,26.14c.67.12.92-.29.92-.65s0-1.37,0-2.5c-3.73.82-4.52-1.58-4.52-1.58a3.6,3.6,0,0,0-1.49-2c-1.22-.83.09-.81.09-.81A2.79,2.79,0,0,1,6.21,20a2.86,2.86,0,0,0,3.88,1.12h0A2.85,2.85,0,0,1,11,19.34C8,19,4.85,17.85,4.85,12.71a5.22,5.22,0,0,1,1.38-3.6,4.84,4.84,0,0,1,.13-3.55s1.13-.36,3.69,1.38a12.57,12.57,0,0,1,6.72,0c2.56-1.74,3.68-1.38,3.68-1.38a4.79,4.79,0,0,1,.13,3.55A5.17,5.17,0,0,1,22,12.71c0,5.15-3.13,6.28-6.12,6.62a3.18,3.18,0,0,1,.91,2.48c0,1.8,0,3.24,0,3.68s.24.78.92.65A13.41,13.41,0,0,0,13.41,0Z"/><path id="Path_443" data-name="Path 443" class="cls-2" d="M5.08,19.26c0,.06-.14.08-.23,0s-.15-.14-.12-.2.13-.09.23,0,.15.13.12.2Z"/><path id="Path_444" data-name="Path 444" class="cls-2" d="M5.62,19.86a.21.21,0,0,1-.28-.06.22.22,0,0,1,0-.28c.07-.06.19,0,.28.06s.1.22,0,.28Z"/><path id="Path_445" data-name="Path 445" class="cls-2" d="M6.15,20.64c-.08.05-.22,0-.3-.12a.24.24,0,0,1,0-.32c.08-.06.22,0,.3.11a.25.25,0,0,1,0,.33Z"/><path id="Path_446" data-name="Path 446" class="cls-2" d="M6.87,21.38c-.07.08-.23.06-.34-.05A.26.26,0,0,1,6.45,21,.26.26,0,0,1,6.8,21C6.92,21.15,7,21.3,6.87,21.38Z"/><path id="Path_447" data-name="Path 447" class="cls-2" d="M7.87,21.82c0,.1-.18.15-.33.1s-.25-.17-.22-.27.18-.16.33-.11S7.91,21.71,7.87,21.82Z"/><path id="Path_448" data-name="Path 448" class="cls-2" d="M9,21.9c0,.11-.12.2-.28.2s-.29-.09-.3-.2.13-.2.29-.2.29.08.29.2Z"/><path id="Path_449" data-name="Path 449" class="cls-2" d="M10,21.72c0,.11-.09.22-.25.25s-.3,0-.32-.14.1-.23.25-.25S10,21.61,10,21.72Z"/></g></g></g></svg>