<svg xmlns="http://www.w3.org/2000/svg" viewBox="0 0 32.19 26.16"><defs><style>.cls-1{fill:#fff;}</style></defs><g id="Layer_2" data-name="Layer 2"><g id="Layer_1-2" data-name="Layer 1"><path id="Path_345" data-name="Path 345" class="cls-1" d="M0,23.2a18.62,18.62,0,0,0,10.12,3c12.26,0,19.19-10.35,18.77-19.64a13.25,13.25,0,0,0,3.3-3.42,13.41,13.41,0,0,1-3.79,1A6.64,6.64,0,0,0,31.3.49a13.67,13.67,0,0,1-4.19,1.6A6.61,6.61,0,0,0,15.68,6.62a6.81,6.81,0,0,0,.17,1.49A18.79,18.79,0,0,1,2.24,1.21,6.62,6.62,0,0,0,4.29,10a6.71,6.71,0,0,1-3-.83,6.63,6.63,0,0,0,5.3,6.56,6.67,6.67,0,0,1-3,.11,6.62,6.62,0,0,0,6.17,4.59A13.3,13.3,0,0,1,0,23.2Z"/></g></g></svg>