<svg xmlns="http://www.w3.org/2000/svg" viewBox="0 0 26.06 26.08"><defs><style>.cls-1{fill:#fff;}</style></defs><g id="Layer_2" data-name="Layer 2"><g id="Layer_1-2" data-name="Layer 1"><g id="Group_260" data-name="Group 260"><g id="Group_205" data-name="Group 205"><rect id="Rectangle_38" data-name="Rectangle 38" class="cls-1" x="0.52" y="8.69" width="5.38" height="17.39"/><path id="Path_350" data-name="Path 350" class="cls-1" d="M3.18,6.42A3.19,3.19,0,0,0,6.36,3.21,3.19,3.19,0,0,0,3.18,0h0a3.21,3.21,0,0,0,0,6.42Z"/></g><path id="Path_351" data-name="Path 351" class="cls-1" d="M14.5,17c0-2.44,1.12-3.9,3.28-3.9,2,0,2.93,1.4,2.93,3.9v9.13h5.35v-11c0-4.66-2.64-6.91-6.32-6.91A6.06,6.06,0,0,0,14.5,11V8.69H9.34V26.08H14.5Z"/></g></g></g></svg>