<svg version="1.1" id="Layer_1" xmlns="http://www.w3.org/2000/svg" x="0" y="0" viewBox="0 0 110.9 28" xml:space="preserve">
  <style>
    .st0 {
      fill: #fff;
    }
  </style>
  <g id="Group_200" transform="translate(-1225.749 -1442.417)"><path id="Path_88" style="fill: #fff" d="M1259.9 1463.8v-14.5h8.1v1.5h-6v4.8h5.1v1.5h-5.1v6.6h-2.1z"/><path id="Path_89" style="fill: #fff" d="M1274 1464.1c-1.4.1-2.7-.5-3.6-1.5a6.75 6.75 0 010-8.1c2.1-2 5.3-2 7.4 0 1.8 2.4 1.8 5.7 0 8.1-1 1-2.4 1.5-3.8 1.5zm0-1.5c2 0 3.1-1.4 3.1-4.1 0-2.7-1-4.1-3-4.1s-3 1.4-3 4.1c0 2.8 1 4.1 2.9 4.1z"/><path id="Path_90" style="fill: #fff" d="M1281.3 1463.8v-10.6h1.9v2c.8-1.3 2.2-2.2 3.7-2.2.8 0 1.6.3 2.2.9.6.6.9 1.5.8 2.3v7.6h-1.9v-7c0-.6-.1-1.2-.3-1.7-.3-.4-.7-.5-1.1-.5-1.2 0-2.3.8-3.3 2.3v6.9h-2z"/><path id="Path_91" style="fill: #fff" d="M1297.1 1464.1c-1.4.1-2.7-.5-3.6-1.5a6.75 6.75 0 010-8.1c2.1-2 5.3-2 7.4 0 1.8 2.4 1.8 5.7 0 8.1-1 1-2.4 1.5-3.8 1.5zm0-1.5c2 0 3.1-1.4 3.1-4.1 0-2.7-1-4.1-3-4.1s-3 1.4-3 4.1c0 2.8.9 4.1 2.9 4.1z"/><path
    id="Path_92"
    style="fill: #fff"
    d="M1307.2 1464.1c-1.1 0-2.2-.2-3.2-.6v-1.8c1 .6 2.1.9 3.3.9.5 0 1-.1 1.4-.4.3-.3.6-.7.5-1.1 0-.7-.5-1.2-1.5-1.6l-1.1-.5c-1.7-.7-2.5-1.7-2.5-3 0-.8.3-1.7 1-2.2.8-.6 1.7-.9 2.7-.8.7 0 1.5.1 2.2.2l.4.1v1.6c-.8-.3-1.7-.4-2.6-.5-1.2 0-1.9.4-1.9 1.3 0 .6.5 1.1 1.4 1.5l.9.4c.8.3 1.6.8 2.2 1.4.4.5.7 1.2.7 1.8 0 .9-.4 1.8-1.1 2.3-.7.7-1.8 1-2.8 1z"/><path id="Path_93" style="fill: #fff" d="M1317 1464.1c-.8 0-1.7-.3-2.3-.8-.6-.6-.9-1.5-.8-2.3v-6.2h-1.3v-1.4h1.3v-1.9l1.9-.2v2.1h2.8v1.4h-2.8v5.9c0 1.4.6 2.1 1.8 2.1.3 0 .6-.1.9-.1v1.3c-.5 0-1 .1-1.5.1z"/><path
    id="Path_94"
    style="fill: #fff"
    d="M1328.2 1463.5c-1.1.4-2.2.6-3.3.6-1.4.1-2.8-.5-3.8-1.6s-1.5-2.6-1.5-4c-.1-1.4.4-2.8 1.3-4 .8-1 2-1.6 3.3-1.5 1.2-.1 2.3.5 3 1.4.8 1.1 1.1 2.5 1.1 3.9v.6h-6.7c.3 2.5 1.5 3.8 3.7 3.8 1 0 2-.3 2.9-.6v1.4zm-6.5-6.1h4.7c0-2-.7-3-2.2-3-1.5 0-2.3 1-2.5 3z"/><path id="Path_95" style="fill: #fff" d="M1330.8 1463.8v-10.6h1.9v2c.6-1.3 1.9-2.2 3.3-2.2h.6v1.8c-.3-.1-.6-.2-.9-.2-1.3.1-2.5.9-3.1 2.2v7h-1.8z"/><path id="Path_96" style="fill: #fff" d="M1236.9 1464.8v5.7l11.2-5.7h-11.2z"/><path
    id="Path_97"
    d="M1225.7 1442.4v22.3h22.3v-22.3h-22.3zm6.3 15c0 .2-.2.4-.4.4h-2.7c-.2 0-.4-.2-.4-.4v-2.7c0-.2.2-.4.4-.4h2.7c.2 0 .4.2.4.4v2.7zm4.9-.1c0 .2-.2.4-.4.4h-2.7c-.2 0-.4-.2-.4-.4v-2.7c0-.2.2-.4.4-.4h2.7c.2 0 .4.2.4.4v2.7zm3.3-5c0 .2-.2.4-.4.4H1229c-.2 0-.4-.2-.4-.4v-2.7c0-.2.2-.4.4-.4h10.9c.2 0 .4.2.4.4v2.7zm5.1 0c0 .2-.2.4-.4.4h-2.7c-.2 0-.4-.2-.4-.4v-2.7c0-.2.2-.4.4-.4h2.7c.2 0 .4.2.4.4v2.7z"
    fill-rule="evenodd"
    clip-rule="evenodd"
    fill="#fff"/></g>
</svg>