<?xml version="1.0" encoding="utf-8"?>
<!-- Generator: Adobe Illustrator 24.1.2, SVG Export Plug-In . SVG Version: 6.00 Build 0)  -->
<svg version="1.1" id="Layer_1" xmlns="http://www.w3.org/2000/svg" xmlns:xlink="http://www.w3.org/1999/xlink" x="0px" y="0px"
	 viewBox="0 0 110.9 28" style="enable-background:new 0 0 110.9 28;" xml:space="preserve">
<style type="text/css">
	.st0{fill:#565757;}
	.st1{fill:#1EB060;}
	.st2{fill:#4AB96D;}
	.st3{fill:#FFFFFF;}
</style>
<g id="Group_71" transform="translate(-181.351 636.663)">
	<g id="Group_71-2" transform="translate(215.353 -629.745)">
		<path id="Path_75" class="st0" d="M0.4,14.5V0.1h8v1.5h-6v4.8h5v1.5h-5v6.5L0.4,14.5z"/>
	</g>
	<g id="Group_72" transform="translate(224.445 -626.146)">
		<path id="Path_76" class="st0" d="M5.3,11.1C4,11.2,2.6,10.6,1.7,9.6C0.8,8.5,0.3,7,0.4,5.6c-0.1-1.5,0.4-2.9,1.4-4
			c1-1,2.3-1.6,3.7-1.5C6.8,0,8.1,0.5,9.1,1.5c0.9,1.1,1.4,2.6,1.4,4C10.5,7,10,8.5,9.1,9.6C8.1,10.6,6.7,11.2,5.3,11.1z M5.4,9.7
			c2,0,3-1.4,3-4.1c0-2.7-1-4.1-3-4.1c-2,0-3,1.4-3,4.1C2.4,8.3,3.4,9.7,5.4,9.7z"/>
	</g>
	<g id="Group_73" transform="translate(236.708 -626.146)">
		<path id="Path_77" class="st0" d="M0.4,10.9V0.3h1.9v2C3.1,0.9,4.5,0.1,6,0.1c0.8,0,1.6,0.3,2.2,0.9C8.8,1.6,9,2.4,9,3.3v7.6H7.1
			v-7c0-0.6-0.1-1.2-0.3-1.7C6.5,1.9,6,1.7,5.6,1.7C4.4,1.7,3.3,2.5,2.3,4v6.8L0.4,10.9z"/>
	</g>
	<g id="Group_74" transform="translate(247.425 -626.146)">
		<path id="Path_78" class="st0" d="M5.3,11.1C4,11.2,2.6,10.6,1.7,9.6C0.8,8.5,0.3,7,0.4,5.6c-0.1-1.5,0.4-2.9,1.4-4
			c1-1,2.3-1.6,3.7-1.5C6.8,0,8.1,0.5,9.1,1.5c0.9,1.1,1.4,2.6,1.4,4C10.5,7,10,8.5,9.1,9.6C8.1,10.6,6.7,11.2,5.3,11.1z M5.4,9.7
			c2,0,3-1.4,3-4.1c0-2.7-1-4.1-3-4.1s-3,1.4-3,4.1C2.4,8.3,3.4,9.7,5.4,9.7L5.4,9.7z"/>
	</g>
	<g id="Group_75" transform="translate(259.299 -626.146)">
		<path id="Path_79" class="st0" d="M3.6,11.1c-1.1,0-2.2-0.2-3.2-0.6V8.7c1,0.6,2.1,0.9,3.3,0.9c0.5,0,1-0.1,1.4-0.4
			C5.4,9,5.6,8.5,5.6,8.1C5.6,7.4,5,6.9,4,6.5L2.9,6C1.3,5.3,0.4,4.3,0.4,3c0-0.8,0.3-1.6,1-2.2C2.2,0.3,3.1,0,4.1,0.1
			c0.7,0,1.5,0.1,2.2,0.2l0.4,0.1V2C5.8,1.7,5,1.5,4.1,1.5C2.9,1.5,2.3,2,2.3,2.8c0,0.6,0.5,1.1,1.4,1.5l0.9,0.4
			C5.4,5,6.2,5.5,6.8,6.1c0.4,0.5,0.7,1.2,0.7,1.8c0,0.9-0.4,1.7-1.1,2.3C5.6,10.8,4.6,11.1,3.6,11.1z"/>
	</g>
	<g id="Group_76" transform="translate(267.788 -628.014)">
		<path id="Path_80" class="st0" d="M4.8,13c-0.8,0-1.7-0.3-2.3-0.8c-0.6-0.6-0.9-1.5-0.8-2.3V3.6H0.4V2.2h1.3V0.2l1.9-0.2v2.1h2.8
			v1.4H3.6v5.9c0,1.4,0.6,2.1,1.8,2.1c0.3,0,0.6,0,0.9-0.1v1.3C5.8,12.9,5.3,13,4.8,13z"/>
	</g>
	<g id="Group_77" transform="translate(274.837 -626.155)">
		<path id="Path_81" class="st0" d="M8.9,10.5c-1.1,0.4-2.2,0.5-3.3,0.6c-1.4,0.1-2.8-0.5-3.8-1.6c-1-1.1-1.5-2.5-1.5-4
			C0.3,4.1,0.8,2.7,1.7,1.6c0.8-1,2-1.6,3.3-1.5c1.2-0.1,2.3,0.5,3,1.4c0.8,1.1,1.1,2.5,1,3.9l0,0.6H2.3C2.6,8.4,3.8,9.7,6,9.7
			c1,0,2-0.3,2.9-0.6L8.9,10.5z M2.4,4.4h4.7c0-2-0.7-2.9-2.2-2.9C3.4,1.5,2.6,2.5,2.4,4.4L2.4,4.4z"/>
	</g>
	<g id="Group_78" transform="translate(285.962 -626.146)">
		<path id="Path_82" class="st0" d="M0.4,10.9V0.3h1.9v2c0.6-1.3,1.9-2.2,3.3-2.2c0.2,0,0.4,0,0.6,0v1.8C5.9,1.8,5.6,1.7,5.3,1.7
			C4,1.8,2.8,2.7,2.3,3.9v7L0.4,10.9z"/>
	</g>
	<path id="Path_83" class="st1" d="M192.8-614.4v5.6l11.1-5.6H192.8z"/>
	<rect id="Rectangle_20" x="181.7" y="-636.6" class="st2" width="22.2" height="22.2"/>
	<path id="Path_84" class="st3" d="M195.8-629.8h-10.8c-0.2,0-0.4,0.2-0.4,0.4l0,0v2.7c0,0.2,0.2,0.4,0.4,0.4c0,0,0,0,0,0h10.8
		c0.2,0,0.4-0.2,0.4-0.4l0,0v-2.7C196.1-629.6,196-629.8,195.8-629.8C195.8-629.8,195.8-629.8,195.8-629.8"/>
	<path id="Path_85" class="st3" d="M192.5-624.8h-2.7c-0.2,0-0.4,0.2-0.4,0.4v2.7c0,0.2,0.2,0.4,0.4,0.4h2.7c0.2,0,0.4-0.2,0.4-0.4
		v-2.7C192.8-624.7,192.7-624.8,192.5-624.8"/>
	<path id="Path_86" class="st3" d="M187.6-624.8h-2.7c-0.2,0-0.4,0.2-0.4,0.4v2.7c0,0.2,0.2,0.4,0.4,0.4h2.7c0.2,0,0.4-0.2,0.4-0.4
		v-2.7C188-624.6,187.8-624.8,187.6-624.8"/>
	<path id="Path_87" class="st3" d="M200.8-629.8h-2.7c-0.2,0-0.4,0.2-0.4,0.4l0,0v2.7c0,0.2,0.2,0.4,0.4,0.4h0h2.7
		c0.2,0,0.4-0.2,0.4-0.4l0,0v-2.7C201.1-629.6,201-629.8,200.8-629.8L200.8-629.8"/>
</g>
</svg>
