<svg xmlns="http://www.w3.org/2000/svg" viewBox="0 0 110.449 27.883">
    <path class="b" d="M34.002 21.316v-14.4h8.045v1.527h-6v4.825h5.039v1.508h-5.039v6.538z" style="fill: #565757"/>

    <path class="b" d="M48.065 21.559a4.628 4.628 0 01-3.619-1.5 5.789 5.789 0 01-1.352-4.023 5.746 5.746 0 011.357-4.032 4.744 4.744 0 013.682-1.484 4.744 4.744 0 013.682 1.484 5.717 5.717 0 011.357 4.013 5.773 5.773 0 01-1.362 4.067 4.84 4.84 0 01-3.745 1.475zm.029-1.44q3.045 0 3.045-4.105 0-4.057-3.006-4.057t-3 4.076q.004 4.086 2.961 4.086z" style="fill: #565757"/>

    <path class="b" d="M55.357 21.316V10.751h1.917v1.985a4.423 4.423 0 013.716-2.218 2.859 2.859 0 012.189.871 3.281 3.281 0 01.817 2.34v7.588h-1.917v-6.966a3.064 3.064 0 00-.345-1.678 1.289 1.289 0 00-1.143-.5q-1.761 0-3.317 2.306v6.839z" style="fill: #565757"/>

    <path class="b" d="M71.045 21.559a4.628 4.628 0 01-3.619-1.5 5.788 5.788 0 01-1.352-4.023 5.746 5.746 0 011.357-4.032 4.744 4.744 0 013.682-1.484 4.745 4.745 0 013.682 1.484 5.717 5.717 0 011.357 4.013 5.773 5.773 0 01-1.362 4.067 4.84 4.84 0 01-3.745 1.475zm.029-1.44q3.045 0 3.045-4.105 0-4.057-3.006-4.057t-3 4.076q.004 4.086 2.962 4.086z" style="fill: #565757"/>

    <path class="b" d="M81.139 21.559a10.606 10.606 0 01-3.191-.613v-1.757a7.572 7.572 0 003.269.934 2.089 2.089 0 001.372-.448 1.39 1.39 0 00.545-1.119q0-.983-1.527-1.625l-1.119-.477q-2.481-1.031-2.481-2.967a2.648 2.648 0 01.978-2.174 4.138 4.138 0 012.68-.793 12.32 12.32 0 012.189.243l.4.078v1.6a9.542 9.542 0 00-2.549-.477q-1.849 0-1.849 1.343 0 .866 1.4 1.459l.925.389a6.209 6.209 0 012.218 1.4 2.662 2.662 0 01.652 1.834 2.819 2.819 0 01-1.1 2.286 4.309 4.309 0 01-2.812.884z" style="fill: #565757"/>

    <path class="b" d="M90.854 21.559a3.036 3.036 0 01-2.276-.837 3.186 3.186 0 01-.817-2.325V12.19h-1.323v-1.44h1.323V8.833l1.917-.185v2.1h2.763v1.44h-2.763v5.857q0 2.072 1.79 2.072a4.2 4.2 0 00.924-.126v1.323a5.934 5.934 0 01-1.538.245z" style="fill: #565757"/>

    <path class="b" d="M102.067 20.976a11.684 11.684 0 01-3.3.584 5.017 5.017 0 01-3.809-1.552 5.6 5.6 0 01-1.474-4.023 5.894 5.894 0 011.3-3.94 4.155 4.155 0 013.322-1.537 3.517 3.517 0 012.962 1.362 6.247 6.247 0 011.046 3.872l-.01.593H95.44q.418 3.765 3.687 3.765a8.8 8.8 0 002.938-.642zm-6.538-6.08h4.66q0-2.948-2.2-2.948t-2.46 2.948z" style="fill: #565757"/>

    <path class="b" d="M104.611 21.316V10.751h1.916v1.985a3.578 3.578 0 013.308-2.218 4.114 4.114 0 01.613.049v1.79a2.817 2.817 0 00-.876-.165 3.544 3.544 0 00-3.045 2.16v6.966z" style="fill: #565757"/>
  <path d="M11.12 22.242v5.64l11.121-5.64z" style="fill:#1eb060"/>
  <path style="fill:#4ab96d" d="M0 0h22.243v22.243H0z"/>
  <path class="e" d="M14.037 6.827H3.194a.379.379 0 00-.379.379V9.87a.379.379 0 00.379.379h10.843a.379.379 0 00.379-.379V7.206a.379.379 0 00-.379-.379M10.742 11.767H8.078a.379.379 0 00-.379.379v2.664a.379.379 0 00.379.379h2.664a.379.379 0 00.379-.379v-2.664a.379.379 0 00-.379-.379M5.858 11.844H3.194a.379.379 0 00-.379.379v2.664a.379.379 0 00.379.379h2.664a.379.379 0 00.379-.379v-2.664a.379.379 0 00-.379-.379M19.05 6.827h-2.664a.379.379 0 00-.379.379V9.87a.379.379 0 00.379.379h2.664a.379.379 0 00.379-.379V7.206a.379.379 0 00-.379-.379" style="fill: white"/>
</svg>
