<svg xmlns="http://www.w3.org/2000/svg" style="display: none;"><symbol id="facebook" viewBox="0 0 24 24"><title>facebook</title><path d="m15.997 3.985h2.191v-3.816c-.378-.052-1.678-.169-3.192-.169-3.159 0-5.323 1.987-5.323 5.639v3.361h-3.486v4.266h3.486v10.734h4.274v-10.733h3.345l.531-4.266h-3.877v-2.939c.001-1.233.333-2.077 2.051-2.077z"/></symbol><symbol id="twitter" viewBox="0 0 24 24"><title>twitter</title><path d="m21.534 7.113c.976-.693 1.797-1.558 2.466-2.554v-.001c-.893.391-1.843.651-2.835.777 1.02-.609 1.799-1.566 2.165-2.719-.951.567-2.001.967-3.12 1.191-.903-.962-2.19-1.557-3.594-1.557-2.724 0-4.917 2.211-4.917 4.921 0 .39.033.765.114 1.122-4.09-.2-7.71-2.16-10.142-5.147-.424.737-.674 1.58-.674 2.487 0 1.704.877 3.214 2.186 4.089-.791-.015-1.566-.245-2.223-.606v.054c0 2.391 1.705 4.377 3.942 4.835-.401.11-.837.162-1.29.162-.315 0-.633-.018-.931-.084.637 1.948 2.447 3.381 4.597 3.428-1.674 1.309-3.8 2.098-6.101 2.098-.403 0-.79-.018-1.177-.067 2.18 1.405 4.762 2.208 7.548 2.208 8.683 0 14.342-7.244 13.986-14.637z"/></symbol><symbol id="linkedin" viewBox="0 0 24 24"><title>linkedin</title><path d="m23.994 24v-.001h.006v-8.802c0-4.306-.927-7.623-5.961-7.623-2.42 0-4.044 1.328-4.707 2.587h-.07v-2.185h-4.773v16.023h4.97v-7.934c0-2.089.396-4.109 2.983-4.109 2.549 0 2.587 2.384 2.587 4.243v7.801z"/><path d="m.396 7.977h4.976v16.023h-4.976z"/><path d="m2.882 0c-1.591 0-2.882 1.291-2.882 2.882s1.291 2.909 2.882 2.909 2.882-1.318 2.882-2.909c-.001-1.591-1.292-2.882-2.882-2.882z"/></symbol><symbol id="github" viewBox="0 0 24 24"><title>github</title><path d="m12 .5c-6.63 0-12 5.28-12 11.792 0 5.211 3.438 9.63 8.205 11.188.6.111.82-.254.82-.567 0-.28-.01-1.022-.015-2.005-3.338.711-4.042-1.582-4.042-1.582-.546-1.361-1.335-1.725-1.335-1.725-1.087-.731.084-.716.084-.716 1.205.082 1.838 1.215 1.838 1.215 1.07 1.803 2.809 1.282 3.495.981.108-.763.417-1.282.76-1.577-2.665-.295-5.466-1.309-5.466-5.827 0-1.287.465-2.339 1.235-3.164-.135-.298-.54-1.497.105-3.121 0 0 1.005-.316 3.3 1.209.96-.262 1.98-.392 3-.398 1.02.006 2.04.136 3 .398 2.28-1.525 3.285-1.209 3.285-1.209.645 1.624.24 2.823.12 3.121.765.825 1.23 1.877 1.23 3.164 0 4.53-2.805 5.527-5.475 5.817.42.354.81 1.077.81 2.182 0 1.578-.015 2.846-.015 3.229 0 .309.21.678.825.56 4.801-1.548 8.236-5.97 8.236-11.173 0-6.512-5.373-11.792-12-11.792z"/></symbol></svg>